<svg version="1.1" id="Layer_1" xmlns="http://www.w3.org/2000/svg" xmlns:xlink="http://www.w3.org/1999/xlink" x="0px" y="0px"
	 width="100%" viewBox="0 0 417 417" enable-background="new 0 0 417 417" xml:space="preserve">
<path fill="#FEFEFE" opacity="1.000000" stroke="none" 
	d="
M230.000000,418.000000 
	C153.333344,418.000000 77.166687,418.000000 1.000021,418.000000 
	C1.000014,279.000031 1.000014,140.000046 1.000007,1.000058 
	C139.999954,1.000039 278.999908,1.000039 417.999908,1.000019 
	C417.999939,139.999939 417.999939,278.999878 417.999969,417.999908 
	C355.500000,418.000000 293.000000,418.000000 230.000000,418.000000 
M8.172864,84.042564 
	C8.434949,84.385277 8.697034,84.727989 9.302126,85.551674 
	C9.860009,85.710327 10.417893,85.868988 10.995293,86.007500 
	C10.995293,86.007500 10.971271,86.028267 11.498782,86.502190 
	C16.015471,88.268715 20.532162,90.035233 25.523497,92.049736 
	C25.701691,92.060318 25.879883,92.070892 26.255758,92.200577 
	C26.255758,92.200577 26.415991,92.034477 26.776054,92.561508 
	C27.178240,92.680420 27.580425,92.799339 28.253017,93.173492 
	C28.253017,93.173492 28.624332,93.153816 29.181406,93.630852 
	C36.127693,96.448288 43.073982,99.265724 50.131741,102.846039 
	C48.333435,107.913597 46.269325,112.907837 44.843227,118.078064 
	C44.070797,120.878487 44.386261,123.978981 44.147560,127.705833 
	C44.914692,132.375870 46.602367,136.477631 51.428375,139.370224 
	C52.053753,139.914688 52.679131,140.459152 53.224964,141.842636 
	C58.481182,142.190063 63.737404,142.537491 69.778358,143.064301 
	C71.376259,143.111679 72.974159,143.159042 74.662216,144.111847 
	C74.662216,160.975494 74.662216,177.839127 74.662216,194.689865 
	C77.563347,194.689865 79.636246,194.689865 82.280472,194.689865 
	C82.280472,177.376968 82.280472,160.370270 82.280472,143.081879 
	C88.487663,143.081879 94.123924,143.197845 99.748703,142.995071 
	C101.049881,142.948166 102.311783,141.811874 104.062698,141.243088 
	C104.365669,141.146851 104.660355,141.029785 105.715836,140.983322 
	C106.477234,140.862915 107.238632,140.742508 108.710793,140.677078 
	C109.467957,139.545273 110.584816,138.508255 110.912888,137.263367 
	C111.795021,133.916107 112.340218,130.480057 113.857178,126.932487 
	C121.926582,125.797173 129.995987,124.661850 138.046173,124.394066 
	C137.603638,126.133163 137.160278,127.872047 136.718719,129.611389 
	C134.801041,137.165421 132.883896,144.719559 130.394226,152.077667 
	C129.707550,152.712021 129.020874,153.346375 127.397270,153.928558 
	C120.988625,153.732346 115.211250,155.051819 110.998978,160.678818 
	C111.616714,161.404083 112.092903,162.086349 112.692162,162.633957 
	C113.367546,163.251144 114.153748,163.747070 114.857506,164.270264 
	C120.985481,157.527298 121.318581,157.334671 126.831520,157.786469 
	C125.216179,161.210358 123.600838,164.634232 121.227150,168.094254 
	C114.726524,169.268692 110.380096,172.889587 108.872940,179.415253 
	C107.642784,184.741623 109.194763,189.427689 113.464005,192.781128 
	C120.406525,198.234390 127.500748,196.091522 133.080933,193.237732 
	C136.768875,194.155792 139.289185,194.783203 142.107651,195.484818 
	C142.107651,184.892532 142.348541,175.268448 142.016220,165.664185 
	C141.820541,160.009735 138.786118,155.999313 132.945084,153.915756 
	C132.956406,151.978226 132.524002,149.908615 133.054703,148.125671 
	C135.556519,139.720535 138.322235,131.393951 141.840500,122.958389 
	C148.224976,121.982201 154.620117,121.067329 160.981857,119.960472 
	C161.885803,119.803192 162.627457,118.713310 163.444229,118.055061 
	C162.639374,117.383087 161.834534,116.711113 160.269012,115.879555 
	C152.855942,112.891869 145.442886,109.904182 137.561142,106.389877 
	C133.430542,104.801682 129.299927,103.213486 124.650711,101.166420 
	C117.469955,98.360054 110.289200,95.553688 102.615967,92.257385 
	C97.401581,90.197937 92.187195,88.138496 86.492630,85.567078 
	C80.040665,82.941727 73.383957,80.721039 67.189362,77.586990 
	C59.709679,73.802795 52.445648,75.025162 44.147854,76.963440 
	C37.592365,77.917587 31.025301,78.799744 24.485462,79.851227 
	C20.138098,80.550194 15.829629,81.491096 10.800290,82.186516 
	C10.051273,82.659782 9.302256,83.133049 8.568131,83.670334 
	C8.568131,83.670334 8.575369,83.735664 8.172864,84.042564 
M360.072021,328.329773 
	C358.354034,328.865509 356.652344,329.801270 354.915436,329.871948 
	C343.782684,330.325134 332.608490,331.297729 321.511108,330.770172 
	C296.521820,329.582245 271.550323,327.862488 246.607376,325.903473 
	C222.965790,324.046692 200.181000,318.036987 177.550247,311.109528 
	C165.095474,307.297028 152.223846,304.749420 139.427124,302.198669 
	C134.298447,301.176392 128.677963,300.725433 123.619255,301.724823 
	C117.203217,302.992371 111.127480,305.990906 104.912910,308.264618 
	C103.092171,308.930756 100.773003,309.183868 99.586914,310.464233 
	C95.364983,315.021942 91.532875,319.940735 87.553177,324.722839 
	C89.767113,324.861359 91.585228,324.107178 93.402321,323.350555 
	C99.945755,320.625824 106.275070,316.618622 113.083427,315.483032 
	C122.691849,313.880432 132.736603,313.422333 142.447449,314.235260 
	C158.808624,315.604858 175.201904,317.591461 191.314362,320.702881 
	C217.074936,325.677307 242.589447,331.913330 268.262939,337.356903 
	C280.565765,339.965454 292.940125,342.371979 305.388824,344.101654 
	C311.754364,344.986084 318.438171,343.489197 324.834442,344.260437 
	C344.808350,346.668823 363.652863,343.073212 381.329895,333.964935 
	C386.298370,331.404907 391.264313,327.322235 394.213531,322.661194 
	C401.477356,311.181091 397.630157,297.357452 389.666443,287.618774 
	C388.977325,286.776062 387.594543,286.500580 386.533966,285.961639 
	C386.716461,288.322845 387.465576,289.778503 388.171844,291.254639 
	C394.349579,304.165894 390.869141,315.843842 378.104187,322.377869 
	C372.888550,325.047638 366.832245,326.075043 360.985229,328.021118 
	C360.985229,328.021118 360.816498,328.197021 360.072021,328.329773 
M198.983871,153.720459 
	C203.415970,166.285629 207.773026,178.878448 212.380234,191.379074 
	C212.923218,192.852356 214.851364,194.770035 216.115997,194.754364 
	C217.385803,194.738632 219.241409,192.786850 219.786377,191.297791 
	C224.022659,179.722855 227.993301,168.050827 232.079529,156.420593 
	C232.536316,155.120483 233.201996,153.893768 234.163284,151.763000 
	C235.096817,154.232742 235.707367,155.716827 236.223038,157.233170 
	C240.084122,168.586563 243.845032,179.975372 247.872650,191.269165 
	C248.405472,192.763229 250.257767,194.739334 251.516144,194.751755 
	C252.752075,194.763947 254.621414,192.781006 255.164108,191.291534 
	C261.037445,175.171478 266.709625,158.978073 272.414703,142.796906 
	C272.828522,141.623215 273.070984,140.389114 273.393127,139.183090 
	C272.927216,138.871414 272.461304,138.559723 271.995392,138.248032 
	C270.910400,139.598770 269.374329,140.784622 268.810944,142.326004 
	C263.731049,156.224365 258.821686,170.185059 253.395935,185.438614 
	C252.377121,182.703247 251.777313,181.225464 251.272263,179.715973 
	C247.149521,167.394272 243.096344,155.048798 238.867126,142.763855 
	C238.350113,141.262085 236.917770,140.075424 235.909637,138.742722 
	C234.758575,140.120392 233.101624,141.318024 232.537033,142.904419 
	C228.293243,154.828918 224.272919,166.832825 220.158966,178.803741 
	C219.598999,180.433151 218.907227,182.017258 217.790970,184.857834 
	C216.628616,181.867905 215.943405,180.230881 215.350861,178.560989 
	C211.228622,166.943954 206.843918,155.408737 203.145554,143.657776 
	C201.508347,138.455872 198.696472,137.911987 193.878845,139.276352 
	C195.533356,143.967804 197.123550,148.476929 198.983871,153.720459 
M342.789032,273.203766 
	C342.646271,269.233398 341.909363,265.177063 342.469177,261.308350 
	C344.352264,248.294266 351.553101,244.317795 363.309082,249.357437 
	C364.883942,239.545090 363.262177,237.505798 353.583893,237.128555 
	C342.625763,236.701401 333.348511,243.436844 330.302185,254.593002 
	C327.675812,264.211060 328.387909,273.810333 332.423889,282.957031 
	C336.484314,292.159149 344.185059,296.354858 354.197113,295.278625 
	C363.672424,294.260040 364.729065,292.887329 363.288574,282.952515 
	C357.389191,286.718964 351.598419,287.300964 346.855408,281.484039 
	C345.120819,279.356689 344.267792,276.510498 342.789032,273.203766 
M103.402451,233.501709 
	C103.402451,253.907516 103.402451,274.313324 103.402451,294.614075 
	C107.935387,294.614075 111.824890,294.614075 115.695747,294.614075 
	C115.695747,268.321381 115.695747,242.436325 115.695747,216.309967 
	C111.567024,216.309967 107.699913,216.309967 103.402710,216.309967 
	C103.402710,221.915390 103.402710,227.209045 103.402451,233.501709 
M190.085953,237.307297 
	C182.128357,237.088898 174.609497,238.373276 167.816940,243.620041 
	C169.404495,246.017670 170.827194,248.166321 172.128815,250.132111 
	C175.531982,248.673508 178.312866,247.037323 181.315491,246.278229 
	C190.236176,244.023026 193.993286,246.815277 194.289307,255.894897 
	C194.538422,263.536377 194.693085,271.206421 194.263947,278.828583 
	C194.139709,281.035400 192.344238,284.201477 190.467300,285.047668 
	C185.867935,287.121124 186.383255,290.240204 187.184952,295.123138 
	C191.069672,292.819855 194.356079,290.871307 197.233170,289.165466 
	C200.108429,291.307465 203.025925,293.480927 206.893845,296.362457 
	C207.976257,292.576080 209.349411,290.137115 209.195999,287.798309 
	C208.910248,283.441589 207.353241,279.172516 207.019180,274.813782 
	C206.486465,267.862915 206.858231,260.838440 206.238373,253.899490 
	C205.277374,243.141296 201.553177,239.404099 190.085953,237.307297 
M276.801849,247.881226 
	C277.803894,249.806854 278.855743,250.400070 281.107269,249.118637 
	C283.646332,247.673538 286.539154,246.449799 289.405396,246.055817 
	C297.555481,244.935547 300.090240,247.001755 300.484894,255.263748 
	C300.865387,263.229858 300.936279,271.234863 300.567993,279.196136 
	C300.473297,281.243774 298.657043,284.191528 296.860718,284.988800 
	C292.292389,287.016479 292.618469,290.177094 293.550140,295.034668 
	C297.285156,292.826752 300.564667,290.888092 303.131012,289.371002 
	C304.705109,290.587555 306.156158,292.063690 307.904968,292.956665 
	C309.518555,293.780609 311.451660,293.978790 313.244019,294.452576 
	C313.825470,291.956879 314.934998,289.445251 314.860138,286.969391 
	C314.757141,283.563995 313.421722,280.206635 313.208984,276.791626 
	C312.672211,268.174500 312.638672,259.525299 312.064758,250.911484 
	C311.736450,245.983810 309.153442,242.157700 304.747833,239.688232 
	C296.565216,235.101715 281.333496,237.175140 274.355988,243.963272 
	C275.017273,245.044540 275.705078,246.169205 276.801849,247.881226 
M379.322784,216.117874 
	C375.586212,216.117874 371.849640,216.117874 368.474609,216.117874 
	C368.474609,242.805389 368.474609,268.724152 368.474609,294.758606 
	C372.615021,294.758606 376.215851,294.758606 380.073975,294.758606 
	C380.073975,268.589844 380.073975,242.656860 379.322784,216.117874 
M138.488068,266.518860 
	C138.488068,275.928406 138.488068,285.337921 138.488068,294.582642 
	C143.124100,294.582642 147.014923,294.582642 150.409470,294.582642 
	C150.409470,280.530945 151.257050,266.834564 150.157578,253.296326 
	C149.170105,241.137421 137.487671,234.572128 125.872406,238.099579 
	C119.681007,239.979858 119.115150,241.033447 120.734985,247.854294 
	C122.177788,247.542236 123.615868,247.168076 125.075844,246.925888 
	C133.113708,245.592606 137.132187,248.507355 138.091049,256.558655 
	C138.444016,259.522400 138.367188,262.537354 138.488068,266.518860 
M367.523193,195.024902 
	C368.588654,194.183426 370.566956,193.354980 370.579193,192.498444 
	C370.709991,183.341492 370.917236,174.154388 370.312286,165.028030 
	C369.826721,157.703110 364.790558,153.442017 357.450684,154.105148 
	C353.235382,154.486008 349.175354,156.585373 344.566132,158.064972 
	C344.566132,152.027710 344.566132,145.508636 344.566132,139.161911 
	C341.860779,139.161911 339.813660,139.161911 337.833862,139.161911 
	C337.833862,157.926407 337.833862,176.231949 337.833862,194.745026 
	C340.105988,194.745026 342.175110,194.745026 344.681488,194.745026 
	C344.681488,192.831039 344.678528,191.193497 344.682007,189.555954 
	C344.695435,183.223755 344.299896,176.852966 344.889374,170.574738 
	C345.211090,167.148438 346.363495,162.980911 348.690887,160.805466 
	C350.784912,158.848160 355.312958,158.022034 358.167694,158.826111 
	C360.377716,159.448608 362.908630,163.253601 363.127930,165.828583 
	C363.847046,174.270599 363.607941,182.796707 363.664062,191.291000 
	C363.678162,193.425964 363.559113,195.451538 367.523193,195.024902 
M226.213196,275.499481 
	C226.213196,281.923889 226.213196,288.348328 226.213196,294.761536 
	C230.666122,294.761536 234.427277,294.761536 238.452728,294.761536 
	C238.452728,277.258423 238.462631,260.008057 238.426773,242.757828 
	C238.424744,241.780670 238.309692,240.615585 237.777649,239.875656 
	C237.122986,238.965271 236.026825,237.899872 235.030121,237.798340 
	C232.267151,237.516861 229.456772,237.700775 226.213287,237.700775 
	C226.213287,250.305573 226.213287,262.402679 226.213196,275.499481 
M173.312897,172.573486 
	C177.361389,166.927948 181.409882,161.282410 185.458374,155.636856 
	C176.755554,156.075211 176.020233,165.329269 169.967087,169.055161 
	C167.420685,165.602463 164.663635,162.442215 162.577225,158.888275 
	C159.987793,154.477585 156.555542,154.026031 151.712708,155.510040 
	C156.627945,162.227081 161.313721,168.630524 166.089798,175.157394 
	C161.209000,181.722305 156.509171,188.043793 151.809357,194.365280 
	C152.214874,194.733536 152.620407,195.101791 153.025940,195.470047 
	C161.017151,193.013199 162.484024,183.643829 168.962143,179.055374 
	C171.722336,182.765045 174.799149,186.301056 177.178970,190.256439 
	C179.906967,194.790573 183.449585,195.991913 188.716324,194.491837 
	C183.470963,187.296448 178.397720,180.337189 173.312897,172.573486 
M91.102058,271.209076 
	C89.048691,261.720398 81.852379,254.931946 71.606773,253.006683 
	C71.372253,258.713348 70.313560,264.031708 76.746498,268.049042 
	C81.664978,271.120636 81.047882,280.446289 75.838074,283.046173 
	C69.961784,285.978638 71.563850,290.196228 71.676559,294.586334 
	C83.646797,293.996185 91.440697,284.855804 91.102058,271.209076 
M65.108879,248.545609 
	C58.941177,243.143478 57.829258,236.549393 63.493046,232.625443 
	C68.999260,228.810654 67.176971,224.334869 67.111183,219.660812 
	C57.244297,219.835281 48.796600,228.528976 48.261536,238.353882 
	C47.713531,248.416290 55.619072,257.865845 68.166039,260.899811 
	C67.290192,256.595917 66.514526,252.784241 65.108879,248.545609 
M164.874863,285.464874 
	C168.388077,293.108459 174.632278,296.428528 183.324722,294.492157 
	C182.503372,291.889435 182.443069,287.966156 180.754456,287.052612 
	C175.839890,284.393768 174.845490,280.518951 175.494949,275.815521 
	C176.176346,270.880646 179.617477,268.491119 184.328323,267.726807 
	C186.258972,267.413574 188.196320,267.141663 190.143127,266.849091 
	C190.143127,264.522675 190.143127,262.422333 190.143127,260.353882 
	C171.532486,258.435608 161.440063,268.184265 164.874863,285.464874 
M329.785919,190.107712 
	C328.804993,189.319809 327.824097,188.531891 327.734619,188.460007 
	C324.740662,189.691376 322.630432,191.078278 320.446228,191.206696 
	C319.550232,191.259354 317.681732,188.617981 317.643097,187.165237 
	C317.388275,177.580399 317.511475,167.985504 317.511475,158.007523 
	C320.442383,158.007523 322.922943,158.091507 325.390167,157.947357 
	C325.992645,157.912140 326.551453,157.128922 327.130310,156.689606 
	C326.546967,156.068832 326.005035,154.966919 325.372955,154.912506 
	C322.934174,154.702591 320.466583,154.827301 317.346436,154.827301 
	C317.346436,150.376740 317.346436,146.486282 317.346436,142.220322 
	C314.601654,142.363617 312.560425,142.470169 310.051758,142.601120 
	C310.051758,146.969910 310.051758,150.717590 310.051758,153.947632 
	C307.801605,155.958862 303.919922,152.849319 303.292572,157.628372 
	C305.650299,157.881256 307.854767,158.117706 310.321106,158.382233 
	C310.321106,162.473373 310.291809,166.284836 310.328400,170.095673 
	C310.376404,175.091492 310.185425,180.113235 310.636414,185.074844 
	C311.082642,189.984192 313.916290,193.512756 318.854675,194.626953 
	C323.273224,195.623901 327.401367,194.978409 329.785919,190.107712 
M281.884613,275.076324 
	C283.901245,267.527802 290.479523,267.822784 296.448730,266.864624 
	C296.448730,264.638062 296.448730,262.553619 296.448730,260.049988 
	C286.882416,259.752136 277.994568,260.696503 272.462189,269.375977 
	C268.454895,275.662811 268.951447,282.589691 272.845367,288.791931 
	C276.381439,294.424164 282.148926,295.695251 288.694092,295.192383 
	C288.694092,292.423645 288.694092,289.978027 288.694092,287.364410 
	C282.576385,285.847198 281.114594,281.485352 281.884613,275.076324 
M373.507568,101.796684 
	C372.585327,97.578735 369.765717,97.933350 366.535156,98.810471 
	C366.535156,105.839432 366.535156,112.715637 366.535156,119.878113 
	C374.587860,119.795006 368.860229,113.024689 371.950806,110.284592 
	C372.958832,112.834587 373.799103,115.290291 374.914276,117.614044 
	C375.343781,118.508972 376.392334,119.667870 377.170135,119.676437 
	C377.944702,119.684975 379.009277,118.542496 379.461151,117.656960 
	C380.546234,115.530533 381.346741,113.258881 382.262054,111.045837 
	C382.544373,111.120247 382.826721,111.194656 383.109039,111.269066 
	C383.281891,114.004318 383.454712,116.739578 383.734802,121.172546 
	C385.814728,119.486885 388.023560,118.555855 388.078796,117.510933 
	C388.408783,111.270393 388.242157,105.003586 388.242157,98.696342 
	C377.933807,96.831238 381.472473,106.964874 376.756165,110.285233 
	C375.758881,107.657280 374.781250,105.081139 373.507568,101.796684 
M292.263397,168.514099 
	C292.263397,164.082230 292.263397,159.650375 292.263397,155.182983 
	C289.661041,155.182983 287.611115,155.182983 285.501038,155.182983 
	C285.501038,168.594589 285.501038,181.643845 285.501038,194.703369 
	C287.856903,194.703369 289.922394,194.703369 292.262970,194.703369 
	C292.262970,186.095856 292.262970,177.802383 292.263397,168.514099 
M62.526070,285.158051 
	C58.424873,284.090576 54.323681,283.023132 50.255615,281.964325 
	C46.768658,290.307037 47.320248,291.740387 55.642323,293.863220 
	C59.344898,294.807678 63.243790,294.982574 67.258530,295.534912 
	C67.258530,291.840271 67.258530,289.076324 67.258530,286.082214 
	C65.879074,285.805725 64.611916,285.551758 62.526070,285.158051 
M251.460083,249.155609 
	C253.694946,249.328812 255.929794,249.501999 258.258118,249.682449 
	C258.258118,245.441223 258.258118,241.535751 258.258118,237.667175 
	C244.973602,236.103439 241.144760,239.271805 243.354630,250.076111 
	C245.753998,249.774170 248.179199,249.468964 251.460083,249.155609 
M349.092255,98.287666 
	C348.183685,99.136444 347.275146,99.985222 346.366608,100.834007 
	C348.400360,101.808136 350.434113,102.782265 352.936249,103.980743 
	C352.936249,108.780830 352.936249,114.054329 352.936249,119.263268 
	C357.604340,120.030952 357.678802,120.032341 357.748932,116.281593 
	C357.831512,111.863747 357.768311,107.443176 357.768311,102.999550 
	C360.274139,102.783722 362.057068,102.630157 363.936340,102.468300 
	C364.828857,99.854401 364.795380,98.158958 361.412628,98.258324 
	C357.601074,98.370308 353.783722,98.283859 349.092255,98.287666 
M85.820557,227.355331 
	C86.555275,225.773972 87.289993,224.192612 88.482605,221.625717 
	C82.427742,220.489487 77.216125,219.511505 71.764511,218.488480 
	C71.764511,222.649979 71.764511,225.707947 71.764511,228.513214 
	C75.846817,229.356705 79.549484,230.121750 83.652733,230.969559 
	C84.134689,230.175690 84.805527,229.070724 85.820557,227.355331 
M292.336212,144.411789 
	C291.994965,142.492310 292.182983,140.154907 291.118378,138.806595 
	C290.456024,137.967773 287.091248,137.936508 286.377869,138.771637 
	C285.276428,140.061035 284.514679,142.857056 285.200226,144.204315 
	C286.646637,147.046906 289.361908,147.046509 292.336212,144.411789 
z"/>
<path fill="#FFDF60" opacity="1.000000" stroke="none" 
	d="
M361.158417,327.849609 
	C366.832245,326.075043 372.888550,325.047638 378.104187,322.377869 
	C390.869141,315.843842 394.349579,304.165894 388.171844,291.254639 
	C387.465576,289.778503 386.716461,288.322845 386.533966,285.961639 
	C387.594543,286.500580 388.977325,286.776062 389.666443,287.618774 
	C397.630157,297.357452 401.477356,311.181091 394.213531,322.661194 
	C391.264313,327.322235 386.298370,331.404907 381.329895,333.964935 
	C363.652863,343.073212 344.808350,346.668823 324.834442,344.260437 
	C318.438171,343.489197 311.754364,344.986084 305.388824,344.101654 
	C292.940125,342.371979 280.565765,339.965454 268.262939,337.356903 
	C242.589447,331.913330 217.074936,325.677307 191.314362,320.702881 
	C175.201904,317.591461 158.808624,315.604858 142.447449,314.235260 
	C132.736603,313.422333 122.691849,313.880432 113.083427,315.483032 
	C106.275070,316.618622 99.945755,320.625824 93.402321,323.350555 
	C91.585228,324.107178 89.767113,324.861359 87.553177,324.722839 
	C91.532875,319.940735 95.364983,315.021942 99.586914,310.464233 
	C100.773003,309.183868 103.092171,308.930756 104.912910,308.264618 
	C111.127480,305.990906 117.203217,302.992371 123.619255,301.724823 
	C128.677963,300.725433 134.298447,301.176392 139.427124,302.198669 
	C152.223846,304.749420 165.095474,307.297028 177.550247,311.109528 
	C200.181000,318.036987 222.965790,324.046692 246.607376,325.903473 
	C271.550323,327.862488 296.521820,329.582245 321.511108,330.770172 
	C332.608490,331.297729 343.782684,330.325134 354.915436,329.871948 
	C356.652344,329.801270 358.354034,328.865509 360.557587,328.436798 
	C361.278015,328.484772 361.512848,328.425720 361.747711,328.366638 
	C361.551270,328.194305 361.354858,328.021942 361.158417,327.849609 
z"/>
<path fill="#1D5F97" opacity="1.000000" stroke="none" 
	d="
M198.848816,153.353241 
	C197.123550,148.476929 195.533356,143.967804 193.878845,139.276352 
	C198.696472,137.911987 201.508347,138.455872 203.145554,143.657776 
	C206.843918,155.408737 211.228622,166.943954 215.350861,178.560989 
	C215.943405,180.230881 216.628616,181.867905 217.790970,184.857834 
	C218.907227,182.017258 219.598999,180.433151 220.158966,178.803741 
	C224.272919,166.832825 228.293243,154.828918 232.537033,142.904419 
	C233.101624,141.318024 234.758575,140.120392 235.909637,138.742722 
	C236.917770,140.075424 238.350113,141.262085 238.867126,142.763855 
	C243.096344,155.048798 247.149521,167.394272 251.272263,179.715973 
	C251.777313,181.225464 252.377121,182.703247 253.395935,185.438614 
	C258.821686,170.185059 263.731049,156.224365 268.810944,142.326004 
	C269.374329,140.784622 270.910400,139.598770 271.995392,138.248032 
	C272.461304,138.559723 272.927216,138.871414 273.393127,139.183090 
	C273.070984,140.389114 272.828522,141.623215 272.414703,142.796906 
	C266.709625,158.978073 261.037445,175.171478 255.164108,191.291534 
	C254.621414,192.781006 252.752075,194.763947 251.516144,194.751755 
	C250.257767,194.739334 248.405472,192.763229 247.872650,191.269165 
	C243.845032,179.975372 240.084122,168.586563 236.223038,157.233170 
	C235.707367,155.716827 235.096817,154.232742 234.163284,151.763000 
	C233.201996,153.893768 232.536316,155.120483 232.079529,156.420593 
	C227.993301,168.050827 224.022659,179.722855 219.786377,191.297791 
	C219.241409,192.786850 217.385803,194.738632 216.115997,194.754364 
	C214.851364,194.770035 212.923218,192.852356 212.380234,191.379074 
	C207.773026,178.878448 203.415970,166.285629 198.848816,153.353241 
z"/>
<path fill="#135892" opacity="1.000000" stroke="none" 
	d="
M342.900818,273.597992 
	C344.267792,276.510498 345.120819,279.356689 346.855408,281.484039 
	C351.598419,287.300964 357.389191,286.718964 363.288574,282.952515 
	C364.729065,292.887329 363.672424,294.260040 354.197113,295.278625 
	C344.185059,296.354858 336.484314,292.159149 332.423889,282.957031 
	C328.387909,273.810333 327.675812,264.211060 330.302185,254.593002 
	C333.348511,243.436844 342.625763,236.701401 353.583893,237.128555 
	C363.262177,237.505798 364.883942,239.545090 363.309082,249.357437 
	C351.553101,244.317795 344.352264,248.294266 342.469177,261.308350 
	C341.909363,265.177063 342.646271,269.233398 342.900818,273.597992 
z"/>
<path fill="#1B5E96" opacity="1.000000" stroke="none" 
	d="
M103.402580,233.002213 
	C103.402710,227.209045 103.402710,221.915390 103.402710,216.309967 
	C107.699913,216.309967 111.567024,216.309967 115.695747,216.309967 
	C115.695747,242.436325 115.695747,268.321381 115.695747,294.614075 
	C111.824890,294.614075 107.935387,294.614075 103.402451,294.614075 
	C103.402451,274.313324 103.402451,253.907516 103.402580,233.002213 
z"/>
<path fill="#145993" opacity="1.000000" stroke="none" 
	d="
M190.512085,237.363464 
	C201.553177,239.404099 205.277374,243.141296 206.238373,253.899490 
	C206.858231,260.838440 206.486465,267.862915 207.019180,274.813782 
	C207.353241,279.172516 208.910248,283.441589 209.195999,287.798309 
	C209.349411,290.137115 207.976257,292.576080 206.893845,296.362457 
	C203.025925,293.480927 200.108429,291.307465 197.233170,289.165466 
	C194.356079,290.871307 191.069672,292.819855 187.184952,295.123138 
	C186.383255,290.240204 185.867935,287.121124 190.467300,285.047668 
	C192.344238,284.201477 194.139709,281.035400 194.263947,278.828583 
	C194.693085,271.206421 194.538422,263.536377 194.289307,255.894897 
	C193.993286,246.815277 190.236176,244.023026 181.315491,246.278229 
	C178.312866,247.037323 175.531982,248.673508 172.128815,250.132111 
	C170.827194,248.166321 169.404495,246.017670 167.816940,243.620041 
	C174.609497,238.373276 182.128357,237.088898 190.512085,237.363464 
z"/>
<path fill="#135892" opacity="1.000000" stroke="none" 
	d="
M276.597351,247.587540 
	C275.705078,246.169205 275.017273,245.044540 274.355988,243.963272 
	C281.333496,237.175140 296.565216,235.101715 304.747833,239.688232 
	C309.153442,242.157700 311.736450,245.983810 312.064758,250.911484 
	C312.638672,259.525299 312.672211,268.174500 313.208984,276.791626 
	C313.421722,280.206635 314.757141,283.563995 314.860138,286.969391 
	C314.934998,289.445251 313.825470,291.956879 313.244019,294.452576 
	C311.451660,293.978790 309.518555,293.780609 307.904968,292.956665 
	C306.156158,292.063690 304.705109,290.587555 303.131012,289.371002 
	C300.564667,290.888092 297.285156,292.826752 293.550140,295.034668 
	C292.618469,290.177094 292.292389,287.016479 296.860718,284.988800 
	C298.657043,284.191528 300.473297,281.243774 300.567993,279.196136 
	C300.936279,271.234863 300.865387,263.229858 300.484894,255.263748 
	C300.090240,247.001755 297.555481,244.935547 289.405396,246.055817 
	C286.539154,246.449799 283.646332,247.673538 281.107269,249.118637 
	C278.855743,250.400070 277.803894,249.806854 276.597351,247.587540 
z"/>
<path fill="#0F5590" opacity="1.000000" stroke="none" 
	d="
M379.698364,216.420883 
	C380.073975,242.656860 380.073975,268.589844 380.073975,294.758606 
	C376.215851,294.758606 372.615021,294.758606 368.474609,294.758606 
	C368.474609,268.724152 368.474609,242.805389 368.474609,216.117874 
	C371.849640,216.117874 375.586212,216.117874 379.698364,216.420883 
z"/>
<path fill="#135892" opacity="1.000000" stroke="none" 
	d="
M138.487244,266.023895 
	C138.367188,262.537354 138.444016,259.522400 138.091049,256.558655 
	C137.132187,248.507355 133.113708,245.592606 125.075844,246.925888 
	C123.615868,247.168076 122.177788,247.542236 120.734985,247.854294 
	C119.115150,241.033447 119.681007,239.979858 125.872406,238.099579 
	C137.487671,234.572128 149.170105,241.137421 150.157578,253.296326 
	C151.257050,266.834564 150.409470,280.530945 150.409470,294.582642 
	C147.014923,294.582642 143.124100,294.582642 138.488068,294.582642 
	C138.488068,285.337921 138.488068,275.928406 138.487244,266.023895 
z"/>
<path fill="#1D5F97" opacity="1.000000" stroke="none" 
	d="
M367.087646,195.024658 
	C363.559113,195.451538 363.678162,193.425964 363.664062,191.291000 
	C363.607941,182.796707 363.847046,174.270599 363.127930,165.828583 
	C362.908630,163.253601 360.377716,159.448608 358.167694,158.826111 
	C355.312958,158.022034 350.784912,158.848160 348.690887,160.805466 
	C346.363495,162.980911 345.211090,167.148438 344.889374,170.574738 
	C344.299896,176.852966 344.695435,183.223755 344.682007,189.555954 
	C344.678528,191.193497 344.681488,192.831039 344.681488,194.745026 
	C342.175110,194.745026 340.105988,194.745026 337.833862,194.745026 
	C337.833862,176.231949 337.833862,157.926407 337.833862,139.161911 
	C339.813660,139.161911 341.860779,139.161911 344.566132,139.161911 
	C344.566132,145.508636 344.566132,152.027710 344.566132,158.064972 
	C349.175354,156.585373 353.235382,154.486008 357.450684,154.105148 
	C364.790558,153.442017 369.826721,157.703110 370.312286,165.028030 
	C370.917236,174.154388 370.709991,183.341492 370.579193,192.498444 
	C370.566956,193.354980 368.588654,194.183426 367.087646,195.024658 
z"/>
<path fill="#195D95" opacity="1.000000" stroke="none" 
	d="
M226.213242,274.999634 
	C226.213287,262.402679 226.213287,250.305573 226.213287,237.700775 
	C229.456772,237.700775 232.267151,237.516861 235.030121,237.798340 
	C236.026825,237.899872 237.122986,238.965271 237.777649,239.875656 
	C238.309692,240.615585 238.424744,241.780670 238.426773,242.757828 
	C238.462631,260.008057 238.452728,277.258423 238.452728,294.761536 
	C234.427277,294.761536 230.666122,294.761536 226.213196,294.761536 
	C226.213196,288.348328 226.213196,281.923889 226.213242,274.999634 
z"/>
<path fill="#195D95" opacity="1.000000" stroke="none" 
	d="
M132.926620,154.678452 
	C138.786118,155.999313 141.820541,160.009735 142.016220,165.664185 
	C142.348541,175.268448 142.107651,184.892532 142.107651,195.484818 
	C139.289185,194.783203 136.768875,194.155792 133.080933,193.237732 
	C127.500748,196.091522 120.406525,198.234390 113.464005,192.781128 
	C109.194763,189.427689 107.642784,184.741623 108.872940,179.415253 
	C110.380096,172.889587 114.726524,169.268692 121.608322,168.412933 
	C120.991493,170.636032 119.993500,172.540451 118.654510,174.621460 
	C114.361938,180.647202 114.694092,186.700165 119.168533,190.379028 
	C123.445198,193.895264 129.376175,193.210617 133.444794,188.731049 
	C138.323669,183.359314 136.462616,176.470474 128.923492,171.553680 
	C129.007919,170.595718 129.059113,169.956284 129.455307,169.317581 
	C131.654053,170.180115 133.507767,171.041901 135.476395,171.957108 
	C136.075745,164.208191 135.205780,161.414810 131.244385,157.452423 
	C131.212708,156.403152 131.153244,155.704483 131.056183,155.056213 
	C131.018585,155.106644 131.119934,155.181137 131.344025,155.162354 
	C131.568130,155.143570 131.927780,154.870819 132.188705,154.880966 
	C132.608627,154.820236 132.767624,154.749344 132.926620,154.678452 
z"/>
<path fill="#6090D7" opacity="1.000000" stroke="none" 
	d="
M103.108444,92.747322 
	C110.289200,95.553688 117.469955,98.360054 124.671707,101.740379 
	C123.106529,102.367851 121.508751,102.570412 119.936302,102.447861 
	C114.508881,102.024895 109.096153,101.313705 103.663780,101.131416 
	C102.465836,101.091217 101.210121,102.772636 99.806633,103.781952 
	C99.632256,103.902626 99.209061,103.923683 98.855545,103.829315 
	C95.654114,102.505463 92.806183,101.275986 89.591934,99.984711 
	C86.819519,99.275070 84.413429,98.627235 81.741989,97.700806 
	C79.651787,97.279480 77.826935,97.136742 75.940178,96.648224 
	C74.191025,94.330284 72.839523,94.236450 71.747314,96.995399 
	C71.329399,96.994652 71.162239,96.994530 70.642448,96.838501 
	C62.814274,94.577904 55.353634,93.343018 47.591751,97.039566 
	C43.471523,95.664886 39.737507,94.315720 35.813057,92.721649 
	C34.747978,91.981728 33.873333,91.486702 33.002213,90.978073 
	C33.005730,90.964478 33.016438,90.934731 33.417133,90.902893 
	C42.740402,89.389244 51.502499,87.220459 60.785061,88.875839 
	C72.309952,90.931099 83.972771,92.249565 95.606758,93.626549 
	C98.038567,93.914375 100.604385,93.069969 103.108444,92.747322 
z"/>
<path fill="#1D5F97" opacity="1.000000" stroke="none" 
	d="
M173.318695,172.975708 
	C178.397720,180.337189 183.470963,187.296448 188.716324,194.491837 
	C183.449585,195.991913 179.906967,194.790573 177.178970,190.256439 
	C174.799149,186.301056 171.722336,182.765045 168.962143,179.055374 
	C162.484024,183.643829 161.017151,193.013199 153.025940,195.470047 
	C152.620407,195.101791 152.214874,194.733536 151.809357,194.365280 
	C156.509171,188.043793 161.209000,181.722305 166.089798,175.157394 
	C161.313721,168.630524 156.627945,162.227081 151.712708,155.510040 
	C156.555542,154.026031 159.987793,154.477585 162.577225,158.888275 
	C164.663635,162.442215 167.420685,165.602463 169.967087,169.055161 
	C176.020233,165.329269 176.755554,156.075211 185.458374,155.636856 
	C181.409882,161.282410 177.361389,166.927948 173.318695,172.975708 
z"/>
<path fill="#135892" opacity="1.000000" stroke="none" 
	d="
M91.146072,271.605591 
	C91.440697,284.855804 83.646797,293.996185 71.676559,294.586334 
	C71.563850,290.196228 69.961784,285.978638 75.838074,283.046173 
	C81.047882,280.446289 81.664978,271.120636 76.746498,268.049042 
	C70.313560,264.031708 71.372253,258.713348 71.606773,253.006683 
	C81.852379,254.931946 89.048691,261.720398 91.146072,271.605591 
z"/>
<path fill="#135892" opacity="1.000000" stroke="none" 
	d="
M65.423866,248.759094 
	C66.514526,252.784241 67.290192,256.595917 68.166039,260.899811 
	C55.619072,257.865845 47.713531,248.416290 48.261536,238.353882 
	C48.796600,228.528976 57.244297,219.835281 67.111183,219.660812 
	C67.176971,224.334869 68.999260,228.810654 63.493046,232.625443 
	C57.829258,236.549393 58.941177,243.143478 65.423866,248.759094 
z"/>
<path fill="#135892" opacity="1.000000" stroke="none" 
	d="
M164.741638,285.102570 
	C161.440063,268.184265 171.532486,258.435608 190.143127,260.353882 
	C190.143127,262.422333 190.143127,264.522675 190.143127,266.849091 
	C188.196320,267.141663 186.258972,267.413574 184.328323,267.726807 
	C179.617477,268.491119 176.176346,270.880646 175.494949,275.815521 
	C174.845490,280.518951 175.839890,284.393768 180.754456,287.052612 
	C182.443069,287.966156 182.503372,291.889435 183.324722,294.492157 
	C174.632278,296.428528 168.388077,293.108459 164.741638,285.102570 
z"/>
<path fill="#1D5F97" opacity="1.000000" stroke="none" 
	d="
M329.938049,190.388336 
	C327.401367,194.978409 323.273224,195.623901 318.854675,194.626953 
	C313.916290,193.512756 311.082642,189.984192 310.636414,185.074844 
	C310.185425,180.113235 310.376404,175.091492 310.328400,170.095673 
	C310.291809,166.284836 310.321106,162.473373 310.321106,158.382233 
	C307.854767,158.117706 305.650299,157.881256 303.292572,157.628372 
	C303.919922,152.849319 307.801605,155.958862 310.051758,153.947632 
	C310.051758,150.717590 310.051758,146.969910 310.051758,142.601120 
	C312.560425,142.470169 314.601654,142.363617 317.346436,142.220322 
	C317.346436,146.486282 317.346436,150.376740 317.346436,154.827301 
	C320.466583,154.827301 322.934174,154.702591 325.372955,154.912506 
	C326.005035,154.966919 326.546967,156.068832 327.130310,156.689606 
	C326.551453,157.128922 325.992645,157.912140 325.390167,157.947357 
	C322.922943,158.091507 320.442383,158.007523 317.511475,158.007523 
	C317.511475,167.985504 317.388275,177.580399 317.643097,187.165237 
	C317.681732,188.617981 319.550232,191.259354 320.446228,191.206696 
	C322.630432,191.078278 324.740662,189.691376 327.734619,188.460007 
	C327.824097,188.531891 328.804993,189.319809 329.938049,190.388336 
z"/>
<path fill="#145993" opacity="1.000000" stroke="none" 
	d="
M281.806122,275.488525 
	C281.114594,281.485352 282.576385,285.847198 288.694092,287.364410 
	C288.694092,289.978027 288.694092,292.423645 288.694092,295.192383 
	C282.148926,295.695251 276.381439,294.424164 272.845367,288.791931 
	C268.951447,282.589691 268.454895,275.662811 272.462189,269.375977 
	C277.994568,260.696503 286.882416,259.752136 296.448730,260.049988 
	C296.448730,262.553619 296.448730,264.638062 296.448730,266.864624 
	C290.479523,267.822784 283.901245,267.527802 281.806122,275.488525 
z"/>
<path fill="#135892" opacity="1.000000" stroke="none" 
	d="
M103.591759,141.176865 
	C102.311783,141.811874 101.049881,142.948166 99.748703,142.995071 
	C94.123924,143.197845 88.487663,143.081879 82.280472,143.081879 
	C82.280472,160.370270 82.280472,177.376968 82.280472,194.689865 
	C79.636246,194.689865 77.563347,194.689865 74.662216,194.689865 
	C74.662216,177.839127 74.662216,160.975494 75.030701,143.484039 
	C77.335617,142.571091 79.266037,142.232788 81.209839,142.012726 
	C84.458382,141.644974 87.715485,141.352753 91.410286,141.029846 
	C93.904015,141.020294 95.956429,141.009628 98.308487,141.016068 
	C99.757301,140.982086 100.906479,140.930984 102.436539,140.970337 
	C103.075546,141.099487 103.333656,141.138184 103.591759,141.176865 
z"/>
<path fill="#27679C" opacity="1.000000" stroke="none" 
	d="
M373.655579,102.150841 
	C374.781250,105.081139 375.758881,107.657280 376.756165,110.285233 
	C381.472473,106.964874 377.933807,96.831238 388.242157,98.696342 
	C388.242157,105.003586 388.408783,111.270393 388.078796,117.510933 
	C388.023560,118.555855 385.814728,119.486885 383.734802,121.172546 
	C383.454712,116.739578 383.281891,114.004318 383.109039,111.269066 
	C382.826721,111.194656 382.544373,111.120247 382.262054,111.045837 
	C381.346741,113.258881 380.546234,115.530533 379.461151,117.656960 
	C379.009277,118.542496 377.944702,119.684975 377.170135,119.676437 
	C376.392334,119.667870 375.343781,118.508972 374.914276,117.614044 
	C373.799103,115.290291 372.958832,112.834587 371.950806,110.284592 
	C368.860229,113.024689 374.587860,119.795006 366.535156,119.878113 
	C366.535156,112.715637 366.535156,105.839432 366.535156,98.810471 
	C369.765717,97.933350 372.585327,97.578735 373.655579,102.150841 
z"/>
<path fill="#1B5E96" opacity="1.000000" stroke="none" 
	d="
M292.263184,169.011505 
	C292.262970,177.802383 292.262970,186.095856 292.262970,194.703369 
	C289.922394,194.703369 287.856903,194.703369 285.501038,194.703369 
	C285.501038,181.643845 285.501038,168.594589 285.501038,155.182983 
	C287.611115,155.182983 289.661041,155.182983 292.263397,155.182983 
	C292.263397,159.650375 292.263397,164.082230 292.263184,169.011505 
z"/>
<path fill="#427EC8" opacity="1.000000" stroke="none" 
	d="
M138.029816,106.916496 
	C145.442886,109.904182 152.855942,112.891869 160.415054,116.257996 
	C158.665115,117.107262 156.784576,117.656471 154.870178,118.033875 
	C149.596237,119.073601 144.308121,120.041397 138.939453,120.975945 
	C138.853317,120.914238 138.685440,120.784851 138.578217,120.484177 
	C132.924835,117.759804 127.378654,115.336105 121.730240,112.596817 
	C119.395599,111.256866 117.163208,110.232521 115.201508,108.875763 
	C119.517784,108.361130 123.568893,108.257324 127.607277,107.972847 
	C131.088989,107.727570 134.556198,107.276550 138.029816,106.916496 
z"/>
<path fill="#115D9F" opacity="1.000000" stroke="none" 
	d="
M68.993622,142.884903 
	C63.737404,142.537491 58.481182,142.190063 53.647785,141.423416 
	C55.355045,139.820663 57.606346,138.734879 57.737793,137.434784 
	C58.094009,133.911560 57.883896,130.240158 57.281967,126.733322 
	C56.474918,122.031487 54.523449,117.911346 48.804268,116.962540 
	C48.563206,116.955414 48.081478,116.979599 48.100258,116.673523 
	C48.674778,115.553734 49.230518,114.740021 50.151611,113.971886 
	C57.221252,118.667740 62.825344,123.971367 63.052441,132.986603 
	C63.163399,137.391479 64.950996,138.381485 69.175011,137.093216 
	C76.106384,134.979233 83.268227,133.435928 89.917610,130.657959 
	C93.405136,129.200958 96.010315,125.631943 99.355766,123.016388 
	C100.153030,123.045746 100.608490,123.075401 101.052124,123.492943 
	C99.690910,126.256531 98.341522,128.632233 96.639542,131.043030 
	C91.064972,133.272629 85.827568,135.431381 80.626083,137.673416 
	C76.724670,139.355057 72.869423,141.143829 68.993622,142.884903 
z"/>
<path fill="#6A97DB" opacity="1.000000" stroke="none" 
	d="
M102.862206,92.502350 
	C100.604385,93.069969 98.038567,93.914375 95.606758,93.626549 
	C83.972771,92.249565 72.309952,90.931099 60.785061,88.875839 
	C51.502499,87.220459 42.740402,89.389244 33.473209,90.560471 
	C41.962563,84.509804 51.262356,80.919998 62.448761,83.994644 
	C67.282333,84.504173 71.664948,85.102936 76.066002,85.494415 
	C79.690254,85.816818 83.336380,85.893494 86.972809,86.079056 
	C92.187195,88.138496 97.401581,90.197937 102.862206,92.502350 
z"/>
<path fill="#6D9BE2" opacity="1.000000" stroke="none" 
	d="
M62.005779,83.994202 
	C51.262356,80.919998 41.962563,84.509804 33.072514,90.592316 
	C33.016438,90.934731 33.005730,90.964478 32.628098,90.966057 
	C29.508404,89.965706 26.766340,88.963776 23.784664,87.702721 
	C19.531286,85.736961 15.517518,84.030327 11.503750,82.323700 
	C15.829629,81.491096 20.138098,80.550194 24.485462,79.851227 
	C31.025301,78.799744 37.592365,77.917587 44.650772,77.362640 
	C47.694134,78.512772 50.288296,79.120804 52.761505,80.050575 
	C55.894348,81.228340 58.928860,82.667679 62.005779,83.994202 
z"/>
<path fill="#3D80CF" opacity="1.000000" stroke="none" 
	d="
M138.065399,123.526535 
	C129.995987,124.661850 121.926582,125.797173 113.415756,126.865326 
	C112.974342,126.798157 112.875412,126.531250 112.868370,126.187256 
	C111.813423,124.808601 110.935120,123.442818 109.685188,122.802589 
	C106.209496,121.022339 102.579399,119.543549 99.099174,117.562683 
	C100.852921,116.787209 102.535904,116.004875 104.178986,116.081215 
	C107.916031,116.254829 109.407158,114.674294 109.369217,111.088203 
	C119.219337,114.824257 127.992134,120.678406 138.685440,120.784851 
	C138.685440,120.784851 138.853317,120.914238 138.902069,121.209778 
	C138.950821,121.505310 138.986206,121.977684 138.951752,122.209488 
	C138.633331,122.803040 138.349365,123.164795 138.065399,123.526535 
z"/>
<path fill="#135892" opacity="1.000000" stroke="none" 
	d="
M62.935410,285.227905 
	C64.611916,285.551758 65.879074,285.805725 67.258530,286.082214 
	C67.258530,289.076324 67.258530,291.840271 67.258530,295.534912 
	C63.243790,294.982574 59.344898,294.807678 55.642323,293.863220 
	C47.320248,291.740387 46.768658,290.307037 50.255615,281.964325 
	C54.323681,283.023132 58.424873,284.090576 62.935410,285.227905 
z"/>
<path fill="#7BA2E2" opacity="1.000000" stroke="none" 
	d="
M62.448761,83.994644 
	C58.928860,82.667679 55.894348,81.228340 52.761505,80.050575 
	C50.288296,79.120804 47.694134,78.512772 45.076263,77.389236 
	C52.445648,75.025162 59.709679,73.802795 67.189362,77.586990 
	C73.383957,80.721039 80.040665,82.941727 86.732719,85.823067 
	C83.336380,85.893494 79.690254,85.816818 76.066002,85.494415 
	C71.664948,85.102936 67.282333,84.504173 62.448761,83.994644 
z"/>
<path fill="#135892" opacity="1.000000" stroke="none" 
	d="
M251.032242,249.159683 
	C248.179199,249.468964 245.753998,249.774170 243.354630,250.076111 
	C241.144760,239.271805 244.973602,236.103439 258.258118,237.667175 
	C258.258118,241.535751 258.258118,245.441223 258.258118,249.682449 
	C255.929794,249.501999 253.694946,249.328812 251.032242,249.159683 
z"/>
<path fill="#3470A1" opacity="1.000000" stroke="none" 
	d="
M349.530579,98.285690 
	C353.783722,98.283859 357.601074,98.370308 361.412628,98.258324 
	C364.795380,98.158958 364.828857,99.854401 363.936340,102.468300 
	C362.057068,102.630157 360.274139,102.783722 357.768311,102.999550 
	C357.768311,107.443176 357.831512,111.863747 357.748932,116.281593 
	C357.678802,120.032341 357.604340,120.030952 352.936249,119.263268 
	C352.936249,114.054329 352.936249,108.780830 352.936249,103.980743 
	C350.434113,102.782265 348.400360,101.808136 346.366608,100.834000 
	C347.275146,99.985222 348.183685,99.136444 349.530579,98.285690 
z"/>
<path fill="#5489D2" opacity="1.000000" stroke="none" 
	d="
M137.795471,106.653183 
	C134.556198,107.276550 131.088989,107.727570 127.607277,107.972847 
	C123.568893,108.257324 119.517784,108.361130 114.845963,108.778259 
	C109.473488,107.229187 104.727242,105.445229 99.981003,103.661270 
	C101.210121,102.772636 102.465836,101.091217 103.663780,101.131416 
	C109.096153,101.313705 114.508881,102.024895 119.936302,102.447861 
	C121.508751,102.570412 123.106529,102.367851 124.931015,101.969810 
	C129.299927,103.213486 133.430542,104.801682 137.795471,106.653183 
z"/>
<path fill="#1B5E96" opacity="1.000000" stroke="none" 
	d="
M85.648453,227.660538 
	C84.805527,229.070724 84.134689,230.175690 83.652733,230.969559 
	C79.549484,230.121750 75.846817,229.356705 71.764511,228.513214 
	C71.764511,225.707947 71.764511,222.649979 71.764511,218.488480 
	C77.216125,219.511505 82.427742,220.489487 88.482605,221.625717 
	C87.289993,224.192612 86.555275,225.773972 85.648453,227.660538 
z"/>
<path fill="#1E6AB2" opacity="1.000000" stroke="none" 
	d="
M49.045330,116.969658 
	C54.523449,117.911346 56.474918,122.031487 57.281967,126.733322 
	C57.883896,130.240158 58.094009,133.911560 57.737793,137.434784 
	C57.606346,138.734879 55.355045,139.820663 53.687553,141.003906 
	C52.679131,140.459152 52.053753,139.914688 51.238213,138.734192 
	C53.281189,131.923019 54.128796,125.928055 49.364220,120.350945 
	C48.762741,119.646889 49.127983,118.116951 49.045330,116.969658 
z"/>
<path fill="#3D7BC6" opacity="1.000000" stroke="none" 
	d="
M48.804268,116.962540 
	C49.127983,118.116951 48.762741,119.646889 49.364220,120.350945 
	C54.128796,125.928055 53.281189,131.923019 51.046402,138.488525 
	C46.602367,136.477631 44.914692,132.375870 44.424477,127.068504 
	C45.828091,123.280647 46.954784,120.130127 48.081478,116.979599 
	C48.081478,116.979599 48.563206,116.955414 48.804268,116.962540 
z"/>
<path fill="#1D65A5" opacity="1.000000" stroke="none" 
	d="
M69.385986,142.974609 
	C72.869423,141.143829 76.724670,139.355057 80.626083,137.673416 
	C85.827568,135.431381 91.064972,133.272629 96.605896,131.391220 
	C94.939560,134.812469 92.954269,137.920593 90.968979,141.028732 
	C87.715485,141.352753 84.458382,141.644974 81.209839,142.012726 
	C79.266037,142.232788 77.335617,142.571091 74.985626,143.031311 
	C72.974159,143.159042 71.376259,143.111679 69.385986,142.974609 
z"/>
<path fill="#CAB66F" opacity="1.000000" stroke="none" 
	d="
M118.995506,174.444870 
	C119.993500,172.540451 120.991493,170.636032 121.987488,168.394867 
	C123.600838,164.634232 125.216179,161.210358 127.191261,157.218262 
	C127.812065,155.760269 128.073120,154.870499 128.334198,153.980713 
	C129.020874,153.346375 129.707550,152.712021 130.643616,152.451935 
	C130.909195,153.199936 130.925385,153.573685 130.973175,154.257721 
	C131.043152,154.772385 131.081543,154.976761 131.119934,155.181137 
	C131.119934,155.181137 131.018585,155.106644 130.744415,155.237762 
	C127.953362,163.000763 125.436462,170.632614 122.536079,178.203369 
	C121.100227,176.909790 120.047867,175.677322 118.995506,174.444870 
z"/>
<path fill="#1D5F97" opacity="1.000000" stroke="none" 
	d="
M127.865723,153.954636 
	C128.073120,154.870499 127.812065,155.760269 127.277397,156.877533 
	C121.318581,157.334671 120.985481,157.527298 114.857506,164.270264 
	C114.153748,163.747070 113.367546,163.251144 112.692162,162.633957 
	C112.092903,162.086349 111.616714,161.404083 110.998978,160.678818 
	C115.211250,155.051819 120.988625,153.732346 127.865723,153.954636 
z"/>
<path fill="#E4DEB7" opacity="1.000000" stroke="none" 
	d="
M130.941574,153.947418 
	C130.925385,153.573685 130.909195,153.199936 130.929779,152.549927 
	C132.883896,144.719559 134.801041,137.165421 136.718719,129.611389 
	C137.160278,127.872047 137.603638,126.133163 138.055786,123.960304 
	C138.349365,123.164795 138.633331,122.803040 139.242981,122.267090 
	C140.043701,122.408371 140.518753,122.723862 140.993805,123.039352 
	C138.322235,131.393951 135.556519,139.720535 133.054703,148.125671 
	C132.524002,149.908615 132.956406,151.978226 132.935852,154.297104 
	C132.767624,154.749344 132.608627,154.820236 132.081940,154.673950 
	C131.506470,154.211472 131.248917,154.041687 130.941574,153.947418 
z"/>
<path fill="#1E6AB2" opacity="1.000000" stroke="none" 
	d="
M36.003490,92.966553 
	C39.737507,94.315720 43.471523,95.664886 47.809174,97.289841 
	C50.333260,98.633461 52.253712,99.701302 53.888771,100.996605 
	C53.292713,101.870262 52.982044,102.516441 52.398842,103.043930 
	C51.424297,102.644554 50.722282,102.363861 50.020271,102.083160 
	C43.073982,99.265724 36.127693,96.448288 29.228477,93.279160 
	C31.518194,92.940498 33.760841,92.953522 36.003490,92.966553 
z"/>
<path fill="#62A4F7" opacity="1.000000" stroke="none" 
	d="
M141.417160,122.998871 
	C140.518753,122.723862 140.043701,122.408371 139.277435,122.035278 
	C138.986206,121.977684 138.950821,121.505310 138.988220,121.271484 
	C144.308121,120.041397 149.596237,119.073601 154.870178,118.033875 
	C156.784576,117.656471 158.665115,117.107262 160.795380,116.337791 
	C161.834534,116.711113 162.639374,117.383087 163.444229,118.055061 
	C162.627457,118.713310 161.885803,119.803192 160.981857,119.960472 
	C154.620117,121.067329 148.224976,121.982201 141.417160,122.998871 
z"/>
<path fill="#6A97DB" opacity="1.000000" stroke="none" 
	d="
M50.076004,102.464600 
	C50.722282,102.363861 51.424297,102.644554 52.550934,103.156647 
	C53.191410,103.537201 53.428242,103.587982 53.418877,103.677200 
	C52.973656,104.363953 52.795601,104.913910 52.310570,105.591675 
	C51.679493,106.477692 51.355404,107.235901 50.972458,108.327332 
	C50.924232,109.110527 50.934860,109.560493 50.855225,110.316078 
	C50.704231,111.042076 50.643505,111.462471 50.377853,112.081512 
	C50.044041,112.828880 49.915154,113.377602 49.786263,113.926315 
	C49.230518,114.740021 48.674778,115.553734 48.100258,116.673523 
	C46.954784,120.130127 45.828091,123.280647 44.456184,126.687637 
	C44.386261,123.978981 44.070797,120.878487 44.843227,118.078064 
	C46.269325,112.907837 48.333435,107.913597 50.076004,102.464600 
z"/>
<path fill="#1D5F97" opacity="1.000000" stroke="none" 
	d="
M292.111053,144.707642 
	C289.361908,147.046509 286.646637,147.046906 285.200226,144.204315 
	C284.514679,142.857056 285.276428,140.061035 286.377869,138.771637 
	C287.091248,137.936508 290.456024,137.967773 291.118378,138.806595 
	C292.182983,140.154907 291.994965,142.492310 292.111053,144.707642 
z"/>
<path fill="#3D7BC6" opacity="1.000000" stroke="none" 
	d="
M35.813057,92.721649 
	C33.760841,92.953522 31.518194,92.940498 28.949940,93.040649 
	C28.624332,93.153816 28.253017,93.173492 27.914629,92.812218 
	C27.189491,92.312119 26.802742,92.173294 26.415993,92.034470 
	C26.415991,92.034477 26.255758,92.200577 26.075787,91.973282 
	C25.613495,91.764580 25.331173,91.783165 25.048851,91.801758 
	C20.532162,90.035233 16.015471,88.268715 11.651445,86.256416 
	C13.745811,86.348488 15.684000,86.708389 17.630163,87.018219 
	C19.757689,87.356926 21.892590,87.649284 24.024277,87.961853 
	C26.766340,88.963776 29.508404,89.965706 32.624580,90.979660 
	C33.873333,91.486702 34.747978,91.981728 35.813057,92.721649 
z"/>
<path fill="#7BA2E2" opacity="1.000000" stroke="none" 
	d="
M112.996765,126.938705 
	C112.340218,130.480057 111.795021,133.916107 110.912888,137.263367 
	C110.584816,138.508255 109.467957,139.545273 108.359558,140.231140 
	C108.366249,135.404465 108.724167,131.023727 109.462219,126.693031 
	C110.853371,126.672455 111.864395,126.601860 112.875412,126.531250 
	C112.875412,126.531250 112.974342,126.798157 112.996765,126.938705 
z"/>
<path fill="#62A4F7" opacity="1.000000" stroke="none" 
	d="
M109.082092,126.643005 
	C108.724167,131.023727 108.366249,135.404465 108.004173,140.203644 
	C107.238632,140.742508 106.477234,140.862915 105.343369,140.515900 
	C105.268204,137.984467 105.655067,135.928391 105.838776,133.854324 
	C106.041679,131.563690 106.058380,129.256561 106.136063,126.693344 
	C106.121559,126.077271 106.127159,125.724472 106.407211,125.359314 
	C107.481812,125.778976 108.281952,126.210991 109.082092,126.643005 
z"/>
<path fill="#5489D2" opacity="1.000000" stroke="none" 
	d="
M106.156174,126.956619 
	C106.058380,129.256561 106.041679,131.563690 105.838776,133.854324 
	C105.655067,135.928391 105.268204,137.984467 104.958832,140.470184 
	C104.660355,141.029785 104.365669,141.146851 103.827225,141.209976 
	C103.333656,141.138184 103.075546,141.099487 102.425079,140.578720 
	C103.407211,135.716644 104.781693,131.336624 106.156174,126.956619 
z"/>
<path fill="#3D80CF" opacity="1.000000" stroke="none" 
	d="
M23.784666,87.702713 
	C21.892590,87.649284 19.757689,87.356926 17.630163,87.018219 
	C15.684000,86.708389 13.745811,86.348488 11.387690,86.019455 
	C10.971271,86.028267 10.995293,86.007500 10.930769,85.648781 
	C10.095243,84.728813 9.324241,84.167564 8.553239,83.606316 
	C9.302256,83.133049 10.051273,82.659782 11.152020,82.255112 
	C15.517518,84.030327 19.531286,85.736961 23.784666,87.702713 
z"/>
<path fill="#3D7BC6" opacity="1.000000" stroke="none" 
	d="
M8.560685,83.638321 
	C9.324241,84.167564 10.095243,84.728813 10.921011,85.658852 
	C10.417893,85.868988 9.860009,85.710327 9.077133,84.965279 
	C8.759883,84.164474 8.667626,83.950073 8.575369,83.735664 
	C8.575369,83.735664 8.568131,83.670334 8.560685,83.638321 
z"/>
<path fill="#1E6AB2" opacity="1.000000" stroke="none" 
	d="
M26.596024,92.297989 
	C26.802742,92.173294 27.189491,92.312119 27.779425,92.684601 
	C27.580425,92.799339 27.178240,92.680420 26.596024,92.297989 
z"/>
<path fill="#1E6AB2" opacity="1.000000" stroke="none" 
	d="
M25.286175,91.925751 
	C25.331173,91.783165 25.613495,91.764580 25.976948,91.913734 
	C25.879883,92.070892 25.701691,92.060318 25.286175,91.925751 
z"/>
<path fill="#3D80CF" opacity="1.000000" stroke="none" 
	d="
M8.374117,83.889114 
	C8.667626,83.950073 8.759883,84.164474 8.905629,84.724792 
	C8.697034,84.727989 8.434949,84.385277 8.374117,83.889114 
z"/>
<path fill="#FEFEFE" opacity="1.000000" stroke="none" 
	d="
M361.071838,327.935364 
	C361.354858,328.021942 361.551270,328.194305 361.747711,328.366638 
	C361.512848,328.425720 361.278015,328.484772 360.929810,328.370422 
	C360.816498,328.197021 360.985229,328.021118 361.071838,327.935364 
z"/>
<path fill="#F4F7F8" opacity="1.000000" stroke="none" 
	d="
M118.654510,174.621460 
	C120.047867,175.677322 121.100227,176.909790 122.812469,178.430176 
	C124.881966,177.820663 126.586426,177.170227 127.609535,175.948990 
	C128.454544,174.940338 128.493912,173.256744 128.890259,171.872223 
	C136.462616,176.470474 138.323669,183.359314 133.444794,188.731049 
	C129.376175,193.210617 123.445198,193.895264 119.168533,190.379028 
	C114.694092,186.700165 114.361938,180.647202 118.654510,174.621460 
z"/>
<path fill="#F6E488" opacity="1.000000" stroke="none" 
	d="
M128.923492,171.553680 
	C128.493912,173.256744 128.454544,174.940338 127.609535,175.948990 
	C126.586426,177.170227 124.881966,177.820663 123.195969,178.491302 
	C125.436462,170.632614 127.953362,163.000763 130.782013,155.187347 
	C131.153244,155.704483 131.212708,156.403152 131.120712,157.843933 
	C130.349579,162.162964 129.729935,165.739914 129.110291,169.316849 
	C129.059113,169.956284 129.007919,170.595718 128.923492,171.553680 
z"/>
<path fill="#F4F7F8" opacity="1.000000" stroke="none" 
	d="
M129.455307,169.317581 
	C129.729935,165.739914 130.349579,162.162964 131.092926,158.194519 
	C135.205780,161.414810 136.075745,164.208191 135.476395,171.957108 
	C133.507767,171.041901 131.654053,170.180115 129.455307,169.317581 
z"/>
<path fill="#F6E488" opacity="1.000000" stroke="none" 
	d="
M130.973175,154.257721 
	C131.248917,154.041687 131.506470,154.211472 131.821014,154.663788 
	C131.927780,154.870819 131.568130,155.143570 131.344025,155.162354 
	C131.081543,154.976761 131.043152,154.772385 130.973175,154.257721 
z"/>
<path fill="#3D7BC6" opacity="1.000000" stroke="none" 
	d="
M109.007004,111.066124 
	C109.407158,114.674294 107.916031,116.254829 104.178986,116.081215 
	C102.535904,116.004875 100.852921,116.787209 98.728134,117.540718 
	C92.174431,115.306183 86.080643,112.710609 80.135452,109.781616 
	C83.282875,105.989555 83.915909,102.175423 82.007347,97.979401 
	C84.413429,98.627235 86.819519,99.275070 89.597527,100.355728 
	C91.226677,101.879494 92.326233,103.288727 93.769684,104.003784 
	C98.784370,106.487930 103.918381,108.731216 109.007004,111.066124 
z"/>
<path fill="#4C83CC" opacity="1.000000" stroke="none" 
	d="
M81.741989,97.700806 
	C83.915909,102.175423 83.282875,105.989555 79.754990,109.741074 
	C73.806046,107.756371 68.386154,105.478806 63.192482,102.888733 
	C66.164986,101.015350 71.568466,103.061195 70.995071,96.994415 
	C71.162239,96.994530 71.329399,96.994652 72.147720,96.998062 
	C73.866615,96.998901 74.934349,96.996460 76.002083,96.994003 
	C77.826935,97.136742 79.651787,97.279480 81.741989,97.700806 
z"/>
<path fill="#5489D2" opacity="1.000000" stroke="none" 
	d="
M70.642448,96.838501 
	C71.568466,103.061195 66.164986,101.015350 62.792320,102.836288 
	C59.502014,102.320618 56.838089,101.544876 54.174164,100.769135 
	C52.253712,99.701302 50.333260,98.633461 48.195389,97.315346 
	C55.353634,93.343018 62.814274,94.577904 70.642448,96.838501 
z"/>
<path fill="#266A9F" opacity="1.000000" stroke="none" 
	d="
M109.369217,111.088203 
	C103.918381,108.731216 98.784370,106.487930 93.769684,104.003784 
	C92.326233,103.288727 91.226677,101.879494 89.963852,100.417526 
	C92.806183,101.275986 95.654114,102.505463 98.998238,104.140648 
	C106.940453,107.335037 114.386467,110.123726 121.832481,112.912407 
	C127.378654,115.336105 132.924835,117.759804 138.578217,120.484177 
	C127.992134,120.678406 119.219337,114.824257 109.369217,111.088203 
z"/>
<path fill="#CAB66F" opacity="1.000000" stroke="none" 
	d="
M121.730240,112.596817 
	C114.386467,110.123726 106.940453,107.335037 99.351746,104.235016 
	C99.209061,103.923683 99.632256,103.902626 99.806625,103.781952 
	C104.727242,105.445229 109.473488,107.229187 114.575272,109.110664 
	C117.163208,110.232521 119.395599,111.256866 121.730240,112.596817 
z"/>
<path fill="#5489D2" opacity="1.000000" stroke="none" 
	d="
M75.940178,96.648232 
	C74.934349,96.996460 73.866615,96.998901 72.398468,96.998688 
	C72.839523,94.236450 74.191025,94.330284 75.940178,96.648232 
z"/>
<path fill="#1E6AB2" opacity="1.000000" stroke="none" 
	d="
M91.410286,141.029846 
	C92.954269,137.920593 94.939560,134.812469 96.958496,131.356140 
	C98.341522,128.632233 99.690910,126.256531 101.371536,123.473633 
	C102.130638,123.055756 102.558510,123.045074 102.988586,123.019684 
	C102.990791,123.004967 102.972305,123.019455 103.139336,123.268768 
	C103.872284,123.687241 104.438202,123.856392 105.008987,124.259514 
	C105.013847,124.493484 105.028687,124.961296 104.749802,125.173050 
	C102.316887,130.589508 100.162872,135.794235 98.008850,140.998947 
	C95.956429,141.009628 93.904015,141.020294 91.410286,141.029846 
z"/>
<path fill="#3D80CF" opacity="1.000000" stroke="none" 
	d="
M98.308495,141.016068 
	C100.162872,135.794235 102.316887,130.589508 105.037354,125.244316 
	C105.780121,125.193115 105.956436,125.282394 106.132759,125.371674 
	C106.127159,125.724472 106.121559,126.077271 106.136063,126.693344 
	C104.781693,131.336624 103.407211,135.716644 102.044189,140.488251 
	C100.906479,140.930984 99.757301,140.982086 98.308495,141.016068 
z"/>
<path fill="#0F5590" opacity="1.000000" stroke="none" 
	d="
M50.151611,113.971886 
	C49.915154,113.377602 50.044041,112.828880 50.764885,112.132492 
	C56.461048,117.096291 61.917080,121.914398 66.524727,127.439949 
	C68.917442,130.309326 70.743660,131.567673 74.395462,130.396942 
	C82.551987,127.782028 90.802025,125.458778 99.013962,123.016708 
	C96.010315,125.631943 93.405136,129.200958 89.917610,130.657959 
	C83.268227,133.435928 76.106384,134.979233 69.175011,137.093216 
	C64.950996,138.381485 63.163399,137.391479 63.052441,132.986603 
	C62.825344,123.971367 57.221252,118.667740 50.151611,113.971886 
z"/>
<path fill="#084B86" opacity="1.000000" stroke="none" 
	d="
M99.355774,123.016396 
	C90.802025,125.458778 82.551987,127.782028 74.395462,130.396942 
	C70.743660,131.567673 68.917442,130.309326 66.524727,127.439949 
	C61.917080,121.914398 56.461048,117.096291 50.969810,111.933838 
	C50.643505,111.462471 50.704231,111.042076 51.226395,110.309097 
	C53.309624,111.015633 55.055706,111.882095 56.529964,113.082428 
	C61.004044,116.725143 65.265312,120.637993 69.845970,124.135918 
	C71.291374,125.239670 73.595261,126.083412 75.311691,125.812691 
	C81.480301,124.839745 87.579552,123.398468 93.667259,121.972946 
	C94.550156,121.766205 95.227135,120.680061 96.368011,120.001389 
	C98.819870,121.012741 100.903122,122.023567 102.986374,123.034393 
	C102.558510,123.045074 102.130638,123.055756 101.383362,123.085747 
	C100.608490,123.075401 100.153030,123.045746 99.355774,123.016396 
z"/>
<path fill="#075B9C" opacity="1.000000" stroke="none" 
	d="
M102.988586,123.019684 
	C100.903122,122.023567 98.819870,121.012741 96.010834,119.964493 
	C92.856247,118.952530 90.427429,117.977989 87.635452,116.952377 
	C76.076881,112.447678 64.881470,107.994041 53.686050,103.540405 
	C53.428242,103.587982 53.191410,103.537201 52.823471,103.275337 
	C52.982044,102.516441 53.292713,101.870262 53.888771,100.996605 
	C56.838089,101.544876 59.502014,102.320618 62.566101,103.148804 
	C68.386154,105.478806 73.806046,107.756371 79.606392,110.074478 
	C86.080643,112.710609 92.174431,115.306183 98.639252,117.923721 
	C102.579399,119.543549 106.209496,121.022339 109.685188,122.802589 
	C110.935120,123.442818 111.813423,124.808601 112.868370,126.187256 
	C111.864395,126.601860 110.853371,126.672455 109.462219,126.693031 
	C108.281952,126.210991 107.481812,125.778976 106.407211,125.359314 
	C105.956436,125.282394 105.780121,125.193115 105.316246,125.032562 
	C105.028687,124.961296 105.013847,124.493484 104.844437,124.004257 
	C104.107445,123.349846 103.539879,123.184647 102.972305,123.019455 
	C102.972305,123.019455 102.990791,123.004967 102.988586,123.019684 
z"/>
<path fill="#01386D" opacity="1.000000" stroke="none" 
	d="
M53.418877,103.677200 
	C64.881470,107.994041 76.076881,112.447678 87.575470,117.311096 
	C82.568100,122.137901 74.793297,122.789223 69.278290,119.121170 
	C63.814873,115.487434 58.446655,111.710564 53.007538,107.569641 
	C52.858112,106.583160 52.737831,106.023521 52.617550,105.463875 
	C52.795601,104.913910 52.973656,104.363953 53.418877,103.677200 
z"/>
<path fill="#034078" opacity="1.000000" stroke="none" 
	d="
M53.036686,107.996468 
	C58.446655,111.710564 63.814873,115.487434 69.278290,119.121170 
	C74.793297,122.789223 82.568100,122.137901 87.938622,117.362160 
	C90.427429,117.977989 92.856247,118.952530 95.642227,119.963966 
	C95.227135,120.680061 94.550156,121.766205 93.667259,121.972946 
	C87.579552,123.398468 81.480301,124.839745 75.311691,125.812691 
	C73.595261,126.083412 71.291374,125.239670 69.845970,124.135918 
	C65.265312,120.637993 61.004044,116.725143 56.529964,113.082428 
	C55.055706,111.882095 53.309624,111.015633 51.316662,110.003487 
	C50.934860,109.560493 50.924232,109.110527 51.306183,108.334442 
	C52.144737,108.004372 52.590714,108.000420 53.036686,107.996468 
z"/>
<path fill="#084B86" opacity="1.000000" stroke="none" 
	d="
M53.007538,107.569641 
	C52.590714,108.000420 52.144737,108.004372 51.365040,108.001221 
	C51.355404,107.235901 51.679493,106.477692 52.310570,105.591675 
	C52.737831,106.023521 52.858112,106.583160 53.007538,107.569641 
z"/>
<path fill="#084B86" opacity="1.000000" stroke="none" 
	d="
M103.139336,123.268768 
	C103.539879,123.184647 104.107445,123.349846 104.839569,123.770294 
	C104.438202,123.856392 103.872284,123.687241 103.139336,123.268768 
z"/>
</svg>