<svg version="1.2" xmlns="http://www.w3.org/2000/svg" viewBox="0 0 2760 1840" width="760" height="507"><style>.a{fill:#ffb27d}.b{fill:#331832}.c{fill:#daebe8}.d{fill:#6da49a}.e{fill:#ffbd8f}.f{fill:#f9a672}.g{fill:#f09268}.h{fill:#f59a6d}.i{fill:#366f90}.j{fill:#26617d}.k{fill:#68a1bf}.l{fill:#080435}.m{fill:#fff}.n{fill:#020202}.o{fill:#ef8062}.p{fill:#5f3563}.q{fill:#4f8a80}.r{fill:#7bb6ab}.s{fill:#5c305d}.t{fill:#764678}.u{fill:#f8a16a}.v{fill:#ff9e89}.w{fill:#25607d}</style><path class="a" d="m830.6 563.3c0 0 38.2 5.3 47.7 26.1 7.9 17.5-12 17.1-12 17.1l-33.3-1-20.9-15.2z"/><path class="b" d="m1500.3 641.9c0 0-8 22.2 42.2 32.5 50.2 10.2 27.2 32.1 36.2 45 0 0 4.5 5.7 23 9.3 18.4 3.6 23.7 49.1-35.8 37.8-59.5-11.3-86-51.6-86-51.6l-0.8-29.9z"/><path class="a" d="m1244.8 755l-22.1 1.4-24.5-14.4c0 0-14.7-8.8-0.9-17.9 16.3-10.7 46.4 2.9 46.4 2.9z"/><path class="c" d="m1437.7 789.8c6.7 3.1-48.8 9.6-104.3 1-51.7-8-95.3-26-95.3-26-12.2-19.3 4.9-45.2 4.9-45.2 0 0 52.7 6.1 96.2 4.3 53.8-2.2 133.3-26.4 174.3 10.4 13.3 11.9-75.8 55.5-75.8 55.5z"/><path class="c" d="m1565.7 915.1c-86-32.9-157.8-8.8-157.8-8.8-0.9-12-2.1-44.6-2.3-55.2 2.2-64.8 18.6-136.8 57.3-136.2 6.7 0.1 36.4 4.4 42.6 6.5 47.1 15.8 43.1 27.4 47.1 76.2 3.9 46.7 13.1 115.6 13.1 117.5z"/><path class="b" d="m1565.8 917c-1.5 10.3-37 23.6-81 16.1-44-7.5-78.5-16.5-76.9-26.8 1.6-10.3 38.2-13.7 82.7-10.5 47.5 3.4 76.8 10.9 75.2 21.2z"/><path class="d" d="m1458.1 760c-1.3 0.1-2.5-0.9-2.6-2.3 0-1.4 1-2.6 2.3-2.7 1.3-0.1 2.5 0.9 2.6 2.3 0.1 1.4-0.9 2.6-2.3 2.7z"/><path class="d" d="m1455.5 856c-1.3 0.1-2.4-1-2.5-2.4-0.1-1.4 0.9-2.6 2.2-2.7 1.3-0.1 2.5 1 2.6 2.4 0.1 1.4-0.9 2.6-2.3 2.7z"/><path class="d" d="m1451 804.9c-1.4 0.1-2.5-0.9-2.6-2.3-0.1-1.4 0.9-2.6 2.2-2.7 1.4-0.1 2.5 0.9 2.6 2.3 0.1 1.4-0.9 2.6-2.2 2.7z"/><path class="b" d="m1411.3 795.4q-0.1 0-0.1 0c-0.2 0-0.4-0.2-0.3-0.4 4.5-15.7-1.7-27-1.7-27.1-0.1-0.2-0.1-0.4 0.1-0.5 0.2-0.1 0.4 0 0.5 0.1 0.1 0.2 6.4 11.6 1.8 27.7 0 0.1-0.2 0.2-0.3 0.2z"/><path class="b" d="m1406.6 1190.5c6.2 0.1 13-3.3 13-3.3 0 0 7.2 31.8 0.7 37.4-5.9 5.2-17.3 1.9-28.8-0.9-7.8-1.9-25-4.3-31-9.4-10.5-8.7 11.4-11.6 22.7-9.5 10.2 1.9 10-17.5 10-17.5 0 0 4.4 3 13.4 3.2z"/><path class="d" d="m1517.9 908.1c27.5 7.8 35.7 57.7 35.7 57.7 1.3-3.8-122.7 40.7-137.8 65.1-8.4 13.7 23.3 121.5 18.4 156.3-3.4 23.7-44.2 16.3-53.4 4.7-9.2-11.6-65-129.3-49.2-186.2 16.3-58.2 81.5-95.7 81.5-95.7 29.7-9.6 72.9-11 104.8-1.9z"/><path class="b" d="m1592.9 1246.2c6.1 0.9 13.3-1.7 13.3-1.7 0 0 3.4 28.6-3.7 33.4-6.4 4.4-13.5 0.2-21.4-0.8-8-1-36.4-1.2-41.8-6.9-9.5-10 18.7-10.1 28.8-12.7 10-2.7 11.8-16.2 11.8-16.2 0 0 4.1 3.6 13 4.9z"/><path class="d" d="m1557 925.9c19.9 46.2 63.4 266.9 68.9 303.7 3.7 25.6-43 34.3-50.3 22-11.1-19.1-49-103.3-136.3-329.2-12.7-32.7 108.8-17.2 117.7 3.5z"/><path class="b" d="m1469.5 1000.7c-0.3 0-0.5-0.2-0.6-0.5-6.6-25.3-17.9-32.4-18-32.4-0.3-0.2-0.4-0.6-0.2-0.9 0.2-0.3 0.6-0.4 0.9-0.2 0.4 0.3 11.8 7.3 18.6 33.2 0 0.3-0.2 0.7-0.5 0.8q-0.1 0-0.2 0z"/><path class="a" d="m2117.5 988.3l-22.1 1.4-24.5-14.5c0 0-14.7-8.8-0.9-17.8 16.3-10.8 46.4 2.8 46.4 2.8z"/><path class="a" d="m1691.9 888l-22.2 1.4-24.5-14.4c0 0-14.7-8.8-0.9-17.9 16.3-10.7 46.4 2.9 46.4 2.9z"/><path class="e" d="m882.1 1104.6c0 0 72.5-56.8 101.5-56.3 28.9 0.4 124 11.3 181.5 32 57.5 20.7 79.3 80.6 79.3 80.6z"/><path class="f" d="m905.9 1457.3c0 0-51.3-35.8-97.9-90.6-24.4-28.8-127-34.9-136.5-46.8-23.3-29.3-200.5-76.9-221.7-96.2-28.7-26.3-118.5-72.4-118.5-72.4l217.4-216c0 0 144.7 91.5 206.1 130.3 22.5 14.2 47 36.1 88.8 36.6 58.3 0.7 118.6 43.7 177.4 78.3 27.5 16.3 77.5 50 94.2 64.9 17.6 15.6 96 48.1 84.7 75.8-19.8 48.9-81.3-2.5-119.5-12.8-38.3-10.4-174.5 148.9-174.5 148.9z"/><path class="g" d="m714.4 1142.1c1.4 0.5 2.2 2 1.9 3.5-0.1 0.1-4.7 17.9 0 41.3 2.8 13.8 8.2 26.7 16 38.5 9.9 14.8 23.7 27.7 41.1 38.5 1.3 0.8 1.7 2.5 1 3.8-0.7 1.3-2.2 1.7-3.5 0.9-18.1-11.2-32.5-24.7-42.8-40.1-8.3-12.4-14-26.1-16.9-40.6-4.9-24.7-0.2-43.2 0-44 0.3-0.9 0.9-1.5 1.6-1.8 0.5-0.2 1.1-0.2 1.6 0z"/><path class="h" d="m1187.2 1180.2q-0.2 0-0.3-0.1c-6.9-0.9-41.4-6.2-44.8-15.4-3.4-9.3 1.3-15.8 1.5-16.1 0.7-0.9 2-1.1 2.9-0.4 0.9 0.7 1.1 2 0.4 2.9-0.1 0.2-3.5 5-0.9 12.2 1.9 5 25.4 10.4 41.5 12.7 1.1 0.2 1.9 1.2 1.8 2.4-0.2 1-1.1 1.8-2.1 1.8z"/><path class="i" d="m725.3 998.1c-28.6 74.6-84.8 182.8-142.1 249.6-27.7 32.3-64 65.4-104.9 77l-387.3-155.2v-499c22.8 11.7 612 316.1 634.3 327.6z"/><path class="e" d="m1631.6 1312.5l-72.3 273.1c0 0-118.1-41.1-216.1-71.7q-9-2.8-17.8-5.5-10.8-3.3-21.1-6.3c-42-12.5-75.5-21.1-86.2-20.6q-0.4 0.1-0.8 0.1c-12.7 1.1-206-52.3-206-52.3 0 0 59.9-229.7 52.6-265.3-13.5-65.5-26.2-95.9 4.1-85.8 64.6 21.6 136.1 38.7 176.4 82.7 8.8 9.6 47.7 27.3 97.8 47.3 115.2 46 289.4 104.3 289.4 104.3z"/><path class="i" d="m2659.3 1552.6c-53.6 98.8-172.4 163.5-308.4 180.1-47.7 5.8-95.8 9.9-146.6 12.3-214.3 10.2-513.6-11.9-533.3-11.9l-328.8-114.6c-30.9-116.8-18.8-300.9 0-410.3 759.5 198.6 382.9 100.1 1317.1 344.4z"/><path class="e" d="m1203.9 1451.3c-20.1 20.2-141.8-13.3-197.5-2-112 22.9-99 41.8-100.5 8-1.3-28.5 11.1-25.8 11.1-25.8 0 0-66.6 28.2-109.4 27.8-13.5-0.1-29.9-11.8-35.1-20.5-21.4-36.2 88.1-67.4 88.1-67.4 0 0-85.9 34.6-135.3 36.6-19.5 0.7-31.9-27.8-32.1-41.3-0.4-35.7 127.3-77.9 127.3-77.9 0 0-120.8 67.1-157.5 51-6.8-3-29.1-25.4-22.1-35.9 34.1-51 198.9-113.9 253.1-110.7 65.3 3.9 86.2-51.2 86.2-51.2 0 0 284.4 248.7 223.7 309.3z"/><path class="f" d="m937.4 1474.7l-12.8-67.5c-7.6-17.7 2-37.7 21.3-44.6 19.2-6.9 41 1.9 48.5 19.6l19.6 46c12.7 31.4 15.4 57.5-15.7 68.6-43.9 15.7-53.6-5-60.9-22.1z"/><path fill-rule="evenodd" class="h" d="m954.8 1420.6c-5.4 0-9.1-1.7-10.5-4.8-4.5-10-3.5-29.1-3.5-30.4 0.1-1.7 1.1-3.4 2.9-4.9 6.3-5.1 22.3-8.1 30.1-6.6 10.7 2 16.7 18.8 15.9 29.1-0.5 7.8-17.2 15-28.5 16.9q-3.5 0.7-6.4 0.7zm14.3-42.6c-7.6 0-18.5 2.8-22.5 6-0.9 0.7-1.2 1.3-1.2 1.6q0 0 0 0c0 0.2-1.1 19.2 3 28.3 1 2.1 5.6 2.7 12 1.6 12.2-2.2 24.6-9.2 24.8-12.9 0.6-8.5-4.6-22.8-12.2-24.3-1.2-0.2-2.5-0.3-3.9-0.3zm-26 7.5h0.1z"/><path class="f" d="m863.4 1469.5l-0.6-57.6c-3.5-15.7 7.4-31.1 24.4-34.3 17.1-3.3 33.8 6.8 37.4 22.4l9.2 40.6c5.9 27.7 4.2 49.7-23.3 55-38.7 7.4-43.7-11-47.1-26.1z"/><path fill-rule="evenodd" class="h" d="m890.5 1427.5q-0.1 0-0.1 0c-9.4-0.1-12.1-3.3-12.8-6-2.2-8.9 1.4-24.7 1.7-25.8q0.5-2.3 3.3-3.9c6.1-3.5 19.9-3.9 26.2-1.7 8.8 3.2 11.3 18.1 9.1 26.7-1.7 6.5-17.3 10.7-27.4 10.7zm-9-31.3l2.2 0.6c0 0.1-3.7 15.7-1.7 23.6 0.3 1.3 3 2.5 8.4 2.5q0 0 0.1 0c10.9 0 22.3-4.5 23-7.2 1.7-6.8-0.4-19.2-6.2-21.3-5.5-1.9-17.6-1.3-22.3 1.3-1.1 0.6-1.3 1-1.3 1zm0 0h0.1z"/><path class="h" d="m928.6 1430.4c-1 0-1.8-0.6-2.2-1.5-0.5-1.4-12.1-33.2-4.6-45.8 0.6-1 2-1.4 3.1-0.8 1.1 0.7 1.4 2.1 0.8 3.2-5.3 8.8 1.8 33.2 5 41.8 0.4 1.2-0.2 2.5-1.4 2.9q-0.4 0.2-0.7 0.2z"/><path class="f" d="m1025.3 1493.5l-12.9-67.5c-7.5-17.7 2-37.7 21.3-44.6 19.3-6.9 41.1 1.9 48.6 19.6l19.5 46c12.8 31.4 15.4 57.6-15.6 68.7-43.9 15.6-53.6-5-60.9-22.2z"/><path fill-rule="evenodd" class="h" d="m1042.7 1439.4c-5.5 0-9.1-1.6-10.5-4.8-4.5-10-3.6-29.1-3.5-30.3 0.1-1.8 1-3.5 2.9-5 6.3-5.1 22.3-8 30.1-6.6 11 2.1 16.6 20 15.9 29.1-0.5 7.8-17.2 15-28.5 17q-3.5 0.6-6.4 0.6zm14.2-42.5c-7.5 0-18.4 2.7-22.5 6-0.8 0.7-1.1 1.2-1.2 1.5q0 0 0 0.1c0 0.2-1 19.2 3.1 28.2 0.9 2.1 5.6 2.7 12 1.6 12.2-2.1 24.5-9.2 24.8-12.8 0.6-8.6-4.6-22.9-12.3-24.3-1.1-0.2-2.4-0.3-3.9-0.3zm-25.9 7.4z"/><path class="h" d="m1016.4 1449.2c-0.9 0-1.8-0.6-2.1-1.5-0.5-1.3-12.1-33.2-4.6-45.7 0.6-1.1 2-1.5 3.1-0.8 1.1 0.6 1.4 2 0.8 3.1-5.3 8.8 1.8 33.2 5 41.8 0.4 1.2-0.2 2.5-1.4 3q-0.4 0.1-0.8 0.1z"/><path class="f" d="m1099.6 1487.7l-12.9-67.5c-7.5-17.8 2-37.7 21.3-44.6 19.3-6.9 41 1.8 48.5 19.6l19.6 45.9c12.8 31.5 15.4 57.6-15.7 68.7-43.8 15.7-53.6-5-60.8-22.1z"/><path fill-rule="evenodd" class="h" d="m1116.9 1433.5c-5.4 0-9.1-1.6-10.5-4.8-4.5-9.9-3.5-29.1-3.4-30.3 0-1.8 1-3.4 2.8-4.9 6.4-5.2 22.4-8.1 30.1-6.6 10.7 2 16.7 18.8 16 29-0.6 7.8-17.3 15-28.6 17q-3.5 0.6-6.4 0.6zm14.3-42.5c-7.6 0-18.5 2.7-22.5 6-0.9 0.7-1.2 1.3-1.2 1.5q0 0.1 0 0.1c0 0.2-1 19.2 3 28.3 1 2 5.7 2.7 12 1.6 12.3-2.2 24.6-9.2 24.8-12.9 0.7-8.5-4.6-22.8-12.2-24.3-1.2-0.2-2.5-0.3-3.9-0.3zm-26 7.5h0.1z"/><path class="h" d="m1090.7 1443.4c-1 0-1.8-0.6-2.2-1.5-0.5-1.4-12-33.3-4.6-45.8 0.7-1.1 2-1.4 3.1-0.8 1.1 0.7 1.5 2.1 0.8 3.1-5.3 8.9 1.8 33.3 5 41.9 0.4 1.2-0.2 2.5-1.3 2.9q-0.4 0.2-0.8 0.2z"/><path class="h" d="m864.6 1476.7c-1.2 0-2.1-0.8-2.3-2-0.2-2.4-6.5-58.5-2.9-72.8 3.7-14.9 13.4-20.6 13.8-20.8 1.1-0.6 2.5-0.2 3.1 0.9 0.6 1.1 0.2 2.4-0.9 3.1-0.1 0-8.4 5-11.6 17.9-3.4 13.5 3 70.6 3 71.2 0.2 1.3-0.7 2.4-2 2.5q-0.1 0-0.2 0z"/><path class="f" d="m719.7 1043.4c0 0 145.9 43 197.8 36.9 58.2-6.8 124.3-19.7 155.2 30.7 30.8 50.5 43.8 74.5 50.7 94.6 6.9 20.2-27.9 130.3-66.9 100.4-37.2-28.4-10.8-79.2-17.7-91.9-27.5-50.1-87.9-36-87.9-36l-143.2-42.4-58.3-42.6z"/><path fill-rule="evenodd" class="h" d="m1076.5 1286.5c-7.2 0-14.6-1.3-18.3-5-5.8-5.9-2.7-19.7 0.9-30.2 1.4-4.1 5.5-6.6 9.9-5.8q0 0 0 0l24.7 4.4c3 0.5 5.6 2.3 7.2 4.8 1.6 2.6 2 5.7 1.1 8.6-3.8 13.3-4.2 16.1-4.3 16.7-0.1 2.2-2.4 3.3-4.1 4-3.5 1.3-10.2 2.5-17.1 2.5zm-9-36.6c-1.9 0-3.5 1.1-4.1 2.9-4.4 12.8-5.1 22.3-2 25.5 2.3 2.3 7.9 3.6 15.2 3.6q0 0 0 0c8.6 0 15.1-1.7 16.7-2.7 0.3-2.4 1.8-8.2 4.4-17.2 0.5-1.6 0.2-3.4-0.7-4.9-0.9-1.5-2.4-2.5-4.1-2.8l-24.7-4.4q-0.4 0-0.7 0z"/><path class="j" d="m583.2 1247.7c-27.7 32.3-64 65.4-104.9 77l-387.3-155.2v-259.3c39.4 41.6 108.7 121.1 139.9 195.1 49.8 118.3 332.8 28.4 352.3 142.4z"/><path class="f" d="m718.9 1330.6c24.1-8.8 48.6-16.1 73.5-22.2 3.5-0.8 5 4.6 1.5 5.4-24.9 6.1-49.4 13.4-73.5 22.2-3.4 1.2-4.8-4.2-1.5-5.4z"/><path class="f" d="m817.2 1385.5c11.3-4.8 22.8-8.2 35-9.9 3.5-0.5 5 4.9 1.5 5.4-11.7 1.7-22.9 4.7-33.7 9.3-3.3 1.4-6.1-3.4-2.8-4.8z"/><path class="f" d="m1245.4 1161.8c6.4 24.3 7 48.7 2 73.2-0.7 3.6-6.1 2.1-5.4-1.4 4.8-23.7 4.1-47-2-70.3-0.9-3.5 4.5-5 5.4-1.5z"/><path class="k" d="m2310.4 1023.1c6.7 3-48.8 9.5-104.3 0.9-51.7-8-95.3-26-95.3-26-12.2-19.2 4.9-45.2 4.9-45.2 0 0 52.7 6.2 96.2 4.4 53.8-2.3 133.3-26.5 174.3 10.3 13.3 12-75.8 55.6-75.8 55.6z"/><path class="k" d="m2438.4 1148.4c-86-32.9-157.8-8.8-157.8-8.8-0.9-12.1-2.1-44.6-2.4-55.2 2.3-64.9 18.7-136.9 57.4-136.3 6.7 0.1 36.4 4.4 42.6 6.5 47.1 15.8 43.1 27.5 47.1 76.2 3.9 46.8 13.1 115.6 13.1 117.6z"/><path class="b" d="m2438.5 1150.3c-1.6 10.3-37 23.6-81 16.1-44-7.6-78.5-16.5-76.9-26.8 1.6-10.3 38.2-13.8 82.7-10.6 47.5 3.5 76.8 11 75.2 21.3z"/><path class="b" d="m2324.4 859.9c0 0-2.2-22.4 16.9-24.1 19.1-1.7 14.6 13.2 18 17.1 3.4 3.8-5.5 15-14.7 16.3-9.2 1.4-20.2-9.3-20.2-9.3z"/><path class="a" d="m2370.9 951.2c-6.8 9.4-14.8 12.8-25.5 13.6-16.2 1.2-9.8-16.7-9.8-16.7q6-0.5 6.1-6.8v-5.1-2.5l0.1-8 0.1-7.3 0.4-29.7 9.5 29.5 1.6 5 5.6 17.3c1.7 5.6 6.3 9.6 11.8 10.7q0 0 0.1 0z"/><path class="b" d="m2353.4 923.2c0 0-4.2 9.1-11.7 10.5l0.1-8c4.7-1.4 11.6-2.5 11.6-2.5z"/><path class="b" d="m2378.8 892.6c0 0-2.2 4.4-2 14.8 0.2 15.1-16.8 16.8-19.7 11.7-0.4-0.6 6.3-24.5 6.3-24.5l5.7-1.7z"/><path class="a" d="m2318.1 886c4.6-18.4 20-30.1 34.3-26.2 14.3 3.9 22.2 22 17.6 40.3-4.6 18.4-20 30.1-34.3 26.2-14.3-3.9-22.2-22-17.6-40.3z"/><path class="b" d="m2318.7 876.6c-1-9 9.4-30.4 41.6-20.3 22.3 7 30.9 50.5 1.4 38.1-29.4-12.5-21-28.4-21.5-29.7 0 0-20.4 20.9-21.5 11.9z"/><path class="b" d="m2373 894c0 0-0.9 11.6-1.8 14.6-1 3-10.2 9.2-10.2 9.2 7.8-12.8-1.2-29.8-1.2-29.8z"/><path class="a" d="m2365.3 904.2c-3.7 2.1-7.9 1.3-9.4-1.8-1.5-3.2 0.3-7.4 4-9.5 3.6-2.1 7.8-1.3 9.3 1.8 1.5 3.2-0.3 7.4-3.9 9.5z"/><path class="l" d="m2341.5 892.7q-0.3-0.2-0.3-0.5c-0.1-0.3 0.2-0.6 0.5-0.7 0.2 0 4.7-1 7.2 3.9 0.1 0.3 0 0.7-0.3 0.8-0.2 0.2-0.6 0.1-0.8-0.2-2.2-2.6-5.8-3.2-6-3.2q-0.2 0-0.3-0.1z"/><path class="l" d="m2344.4 900.7c-0.3 1.5-1.4 2.5-2.4 2.2-1-0.2-1.6-1.6-1.3-3.1 0.3-1.5 1.4-2.4 2.5-2.2 1 0.2 1.6 1.6 1.2 3.1z"/><path class="l" d="m2319.6 890.1q-0.3 0-0.4-0.3c-0.2-0.3-0.1-0.7 0.2-0.8 0.2-0.1 3.9-2.9 8 0.7 0.3 0.2 0.4 0.6 0.1 0.9-0.2 0.2-0.5 0.2-0.8 0.1-3-1.6-6.6-0.7-6.7-0.6q-0.2 0.1-0.4 0z"/><path class="l" d="m2325.3 896.4c0.2 1.5-0.4 2.8-1.5 3-1 0.2-2-0.9-2.3-2.4-0.2-1.5 0.4-2.8 1.5-3 1-0.2 2.1 0.9 2.3 2.4z"/><g style="opacity:.3"><path class="m" d="m2356.4 895.3c0.4 8.5-4 16.8-9.8 18.4-5.8 1.7-10.8-3.9-11.2-12.4-0.4-8.6 4-16.8 9.8-18.5 5.8-1.6 10.8 3.9 11.2 12.5z"/></g><g style="opacity:.3"><path class="m" d="m2329.3 893.1c-0.5 8.4-5.2 16.2-10.4 17.5-5.2 1.3-9-4.5-8.4-12.9 0.5-8.3 5.1-16.2 10.3-17.4 5.2-1.3 9 4.4 8.5 12.8z"/></g><path fill-rule="evenodd" class="k" d="m2357.1 895.3q0.1 1.7-0.2 3.3-0.2 1.4-0.5 2.7-0.2 0.7-0.4 1.3 0 0 0 0c-1.2 4-3.4 7.4-6.1 9.5q-0.1 0-0.1 0c-1.1 0.8-2.2 1.4-3.4 1.7q-1.8 0.5-3.5 0.3-0.5-0.1-0.9-0.2-1.5-0.5-2.9-1.5c-2.2-1.7-3.8-4.4-4.7-7.7q-0.5-2-0.6-4.4-0.1-2.4 0.2-4.7 0.1-1 0.4-2c1.3-5.7 4.5-10.5 8.6-12.5q0.7-0.3 1.5-0.5c2.6-0.8 5.1-0.3 7.3 1.4 2.7 2.1 4.6 5.7 5.1 10.1q0.2 1 0.2 2 0.1 0.6 0 1.2zm-19.7 13.7q1 1.6 2.3 2.6 1.1 0.8 2.3 1.2 0.1 0 0.2 0c1.2 0.4 2.6 0.4 3.9 0q1.8-0.5 3.4-1.7 0.1-0.1 0.2-0.2c2.7-2.2 4.8-5.8 5.8-10q0.2-1 0.4-2 0.1-0.9 0.2-1.9 0.1-1.4 0-2.9-0.1-1.3-0.3-2.5v-0.1q-0.1-0.7-0.3-1.3 0-0.1 0-0.1 0-0.1 0-0.1 0 0 0-0.1-0.1 0-0.1-0.1 0 0 0-0.1-0.3-1.2-0.8-2.3c-0.8-1.9-2-3.5-3.4-4.6q-1.6-1.1-3.4-1.4-1.4-0.3-3 0.2-0.6 0.1-1.2 0.4c-3.9 1.7-7 6.4-8.3 12q0 0 0 0-0.2 1-0.3 2-0.3 2.1-0.2 4.3c0.1 1.4 0.3 2.8 0.6 4.1 0.5 1.8 1.1 3.3 2 4.6q0 0 0 0z"/><path fill-rule="evenodd" class="k" d="m2329.8 892.1v1q0 1-0.1 2c-0.1 1.5-0.3 2.9-0.7 4.2-0.7 3-1.9 5.7-3.5 7.7v0.1c-1.5 2.1-3.3 3.6-5.4 4.1q-0.2 0.1-0.3 0.1-0.1 0-0.1 0-1.5 0.4-3 0-1.3-0.3-2.4-1.2c-2.9-2.3-4.7-6.9-4.9-12.5-0.2-8.9 4.2-17.5 9.7-19.1q0.2-0.1 0.4-0.1 0.7-0.2 1.4-0.2 1 0 1.9 0.3 1.1 0.3 2.2 1.1c2.9 2.3 4.7 6.9 4.8 12.5zm-1 3.2q0 0 0 0.1-0.1 0-0.1 0c-0.3 2.3-0.8 4.6-1.5 6.6q0.1-0.3 0.2-0.6 0 0 0-0.1 0.1-0.3 0.3-0.6 0-0.1 0-0.2 0.1-0.2 0.1-0.3 0.2-0.5 0.4-1 0.1-0.4 0.2-0.8 0 0 0-0.1 0 0 0 0 0-0.1 0.1-0.1 0 0 0 0 0-0.2 0.1-0.3 0-0.1 0-0.2 0.1-0.4 0.2-0.8 0-0.1 0-0.3 0-0.1 0.1-0.1 0.1-0.5 0.1-1.1 0.1-0.1 0.1-0.1-0.2 0-0.3 0z"/><path class="b" d="m2328 895.5c-0.3-0.1-0.5-0.3-0.6-0.6-0.2-0.5 0-1.1 0.5-1.3 0.1-0.1 3.8-1.7 8.4 0.9 0.5 0.2 0.7 0.8 0.4 1.3-0.2 0.5-0.8 0.7-1.2 0.4-3.9-2.1-6.8-0.8-6.9-0.8q-0.3 0.1-0.6 0.1z"/><path class="b" d="m2365.9 864.3c0 0 7.9-20.9 25.6-13.4 17.8 7.4 11.3 17.2 8.6 23.6-2 4.8-11.5 10.8-20.2 7.7-8.8-3.2-14-17.9-14-17.9z"/><path class="b" d="m2367.3 933.8c0-0.1-3.1-6.2-9.8-9.8-0.2-0.2-0.4-0.6-0.2-0.9 0.2-0.3 0.5-0.4 0.8-0.2 6.9 3.8 10.1 10.1 10.3 10.3 0.1 0.3 0 0.7-0.3 0.8q-0.1 0.1-0.3 0.1c-0.2 0-0.4-0.1-0.5-0.3z"/><path class="m" d="m2335.6 948.1c0 0-5.6 17.5 9.8 16.7 0 0-7.5 9-13.4 6.1-5.8-3-0.6-6.4-3.2-8.4-2.6-2.1-5.3-3.5-3.1-6.4 2.2-2.8 0.4-7.9 0.4-7.9 0 0 3.6-4.1 9.5-0.1z"/><path class="m" d="m2330.8 993.3c-1.3 0.1-2.5-1-2.6-2.4-0.1-1.3 1-2.6 2.3-2.7 1.3-0.1 2.5 1 2.6 2.4 0.1 1.4-0.9 2.6-2.3 2.7z"/><path class="m" d="m2326.1 1074.7c-1.3 0.1-2.5-0.9-2.5-2.3-0.1-1.4 0.9-2.6 2.2-2.7 1.3-0.1 2.5 1 2.6 2.4 0.1 1.3-0.9 2.5-2.3 2.6z"/><path class="m" d="m2323.7 1038.2c-1.4 0.1-2.5-1-2.6-2.4-0.1-1.4 0.9-2.6 2.2-2.7 1.4-0.1 2.5 1 2.6 2.4 0.1 1.4-0.9 2.6-2.2 2.7z"/><path class="n" d="m2332.8 916.2c-2.2 0-4.7-0.8-7.2-3.6-0.1-0.1-0.1-0.3 0-0.4 0.1-0.1 0.3-0.1 0.4 0 5.8 6.4 11.9 1.9 12.2 1.7 0.1-0.1 0.3-0.1 0.4 0 0.1 0.1 0.1 0.3 0 0.4-0.1 0-2.5 1.9-5.8 1.9z"/><path class="m" d="m2370.9 951.2l11.1 1.4c0 0 2.3 5.8-2.9 8.1-5.3 2.2-6.3 2.3-7.8 6.8-1.4 4.4-8.1 5.1-10.5 3.8-2.5-1.4-6.2 4.6-10 4.9-3.8 0.2-6.5-6.6-5.4-11.4 0 0 14.2-3.6 25.5-13.6z"/><path class="b" d="m2283.9 1028.7q0 0-0.1 0c-0.1-0.1-0.3-0.3-0.2-0.5 4.5-15.7-1.7-26.9-1.7-27-0.1-0.2-0.1-0.4 0.1-0.5 0.2-0.1 0.4-0.1 0.5 0.1 0.1 0.1 6.4 11.6 1.8 27.6 0 0.2-0.2 0.3-0.4 0.3z"/><path class="b" d="m2279.3 1423.7c6.2 0.2 13-3.3 13-3.3 0 0 7.2 31.8 0.7 37.5-5.9 5.1-17.3 1.8-28.8-1-7.8-1.8-25-4.3-31-9.3-10.5-8.8 11.4-11.6 22.7-9.5 10.2 1.9 10-17.6 10-17.6 0 0 4.4 3.1 13.4 3.2z"/><path class="o" d="m2390.6 1141.3c27.5 7.8 35.7 57.7 35.7 57.7 1.3-3.8-122.7 40.8-137.8 65.1-8.4 13.7 23.3 121.5 18.4 156.3-3.4 23.7-44.2 16.3-53.4 4.7-9.2-11.6-65.1-129.2-49.2-186.1 16.3-58.2 81.5-95.7 81.5-95.7 29.7-9.7 72.9-11 104.8-2z"/><path class="b" d="m2465.6 1479.4c6.1 0.9 13.3-1.6 13.3-1.6 0 0 3.4 28.6-3.7 33.4-6.4 4.3-13.5 0.1-21.4-0.9-8-0.9-36.4-1.1-41.8-6.9-9.5-9.9 18.7-10 28.7-12.7 10.1-2.6 11.9-16.2 11.9-16.2 0 0 4.1 3.6 13 4.9z"/><path class="o" d="m2429.7 1159.2c19.9 46.2 63.4 266.9 68.9 303.7 3.7 25.5-43 34.2-50.3 21.9-11.1-19.1-49-103.3-136.3-329.1-12.7-32.8 108.8-17.2 117.7 3.5z"/><path class="b" d="m2342.2 1233.9c-0.3 0-0.5-0.2-0.6-0.5-6.6-25.2-17.9-32.3-18-32.4-0.3-0.2-0.4-0.6-0.2-0.9 0.2-0.3 0.6-0.4 0.9-0.2 0.4 0.3 11.8 7.4 18.6 33.2 0 0.4-0.2 0.7-0.5 0.8q-0.1 0-0.2 0z"/><path class="b" d="m2020.4 982.1c4.4 16.2-41.1 21.8-92 28.9-51 7.1-91.1 5.5-92-1.6-1-7.2 39.1-21.9 90.1-29 50.9-7.1 92-5.2 93.9 1.7z"/><path class="o" d="m2020.2 981.5c-5.3-6.6-68.2-5.6-122.9 5.1-53.5 10.6-60.9 22.8-60.9 22.8-14.8-140.8-39.1-230.7 56.1-247.8 66-11.9 81.2 23.5 81.2 23.5 30.3 52.9 46.5 196.4 46.5 196.4z"/><path class="o" d="m2003.4 779.5l-45.1 28.8c0 0-92.8 26.5-118.5 26.8-25.8 0.3-35.9-17.7-35.9-17.7 0 0 21.7-33.8 65.8-50q6.2-2.3 12.9-4c7.6-2 15.4-3.3 23-3.8 58.6-3.9 97.8 19.9 97.8 19.9z"/><path class="a" d="m1914.2 759.2c-5.3 10.1-17.8 11.1-28.2 8.5-8.3-2.2-7.1-2.3-6.3-3.8 2.1-3.7 4.1-4.9 3.6-8.6l-0.6-4.9-0.1-0.6-0.8-6.3-1.4-11-3.8-28.9 13.4 27.2 2.3 4.7 7.8 15.9c2.6 5.1 14 7.8 14.1 7.8z"/><path class="b" d="m1894.1 739.6c0 0-2.9 7.9-11.4 10.8l-0.1-0.6-0.8-6.3c4.6-1.4 12.3-3.9 12.3-3.9z"/><path class="o" d="m1873.7 847.5c7.3 0.4-32.2 28.1-82.7 44.6-35.3 11.6-102.1 0.5-102.1 0.5-7.1-8.4-5.6-35.4-5.6-35.4 0 0 39.9-7.8 79.6-26.5 39.5-18.5 75.5-79.3 149.4-60.9 17 4.3-38.6 77.7-38.6 77.7z"/><path class="b" d="m1850.7 1308.3c6.2 0.1 13.1-3.5 13.1-3.5 0 0 7.2 33.6 0.7 39.6-5.9 5.4-17.3 1.9-28.8-1-7.8-2-25-4.6-31-9.9-10.5-9.2 11.4-12.3 22.7-10 10.2 2 9.9-18.6 9.9-18.6 0 0 4.5 3.2 13.4 3.4z"/><path class="i" d="m1961.1 991.9c31-1.5 23.2 37 23.2 37 1.4-4-109.3 84.8-124.3 110.6-8.4 14.4 23.3 128.5 18.3 165.3-3.3 25.1-44.1 17.2-53.3 4.9-9.2-12.2-65.1-136.7-49.2-196.8 16.3-61.6 71.8-105.1 71.8-105.1 29.8-10.1 67.4-13.7 113.5-15.9z"/><path class="b" d="m2037 1367.2c6.2 1 13.4-1.8 13.4-1.8 0 0 3.4 30.3-3.7 35.4-6.4 4.6-13.5 0.1-21.5-0.9-7.9-1-36.4-1.2-41.8-7.3-9.4-10.6 18.8-10.6 28.8-13.4 10-2.9 11.9-17.2 11.9-17.2 0 0 4.1 3.8 12.9 5.2z"/><path class="i" d="m2014.1 995.2c11.9 51.6 50.5 315.6 55.9 354.5 3.8 27-43 36.2-50.2 23.2-11.2-20.2-54.2-132-141.5-370.9 0 0 132.6-20.8 135.8-6.8z"/><path class="b" d="m1910.3 1090.2c-0.2 0-0.5-0.2-0.6-0.5-6.3-17.8-16.3-29.1-16.4-29.2-0.2-0.3-0.2-0.7 0.1-0.9 0.3-0.3 0.7-0.2 0.9 0 0.1 0.1 10.3 11.6 16.7 29.7 0.1 0.3-0.1 0.7-0.4 0.8q-0.1 0.1-0.3 0.1z"/><path class="b" d="m1822.2 879.8c-0.8-12.4-3.7-22.6-8.2-29.6l1-0.6c4.6 7.2 7.5 17.6 8.4 30.1z"/><path class="p" d="m1865.7 696.7c0 0-8.5 21.9-10.3 13-1.8-8.9-0.1-15.9-0.1-15.9z"/><path class="a" d="m1854.4 712.3c2-17.2 14.7-29.7 28.3-27.9 13.6 1.7 23 17.1 21 34.3-2.1 17.2-14.8 29.7-28.4 27.9-13.6-1.8-22.9-17.1-20.9-34.3z"/><path class="p" d="m1904.2 709.7l-12-1.2c-2.6-0.3-5.1-1.7-6.5-4.1-2.5-4-5.5-6-16.7-5.5-14.2 0.6-23.6-8.2-25.2-15.9-1.6-8 5.6-13.4 12.8-9.7 7.1 3.8 4-5.5 10.9-6.5 12.8-2 15.2 8.4 25.7 8 13.8-0.6 38.5 10.2 26.9 35.6z"/><path class="l" d="m1874.5 714.7q-0.3 0-0.4-0.3c-0.2-0.2-0.1-0.5 0.1-0.7 0.2-0.1 3.1-2.6 6.7 0.1 0.2 0.1 0.3 0.5 0.1 0.7-0.1 0.2-0.4 0.2-0.7 0.1-2.6-1-5.4-0.1-5.5 0q-0.2 0.1-0.3 0.1z"/><path class="l" d="m1877.9 719.8c-0.3 1.2-1.2 2-2.1 1.8-0.8-0.2-1.2-1.4-0.9-2.6 0.3-1.2 1.2-2 2.1-1.8 0.8 0.2 1.2 1.4 0.9 2.6z"/><path class="l" d="m1859 710.8q-0.2-0.1-0.2-0.3c0-0.3 0.2-0.6 0.4-0.7 0.1 0 3.3-1.3 4.7 2.3 0.1 0.2 0 0.5-0.2 0.7-0.2 0.1-0.4 0.1-0.6-0.1-1.3-1.8-3.7-1.9-3.9-1.9q-0.1 0.1-0.2 0z"/><path class="l" d="m1862.1 716.5c0 1.2-0.7 2.2-1.6 2.3-0.8 0-1.6-1.1-1.6-2.3 0-1.3 0.7-2.3 1.6-2.3 0.9 0 1.6 1 1.6 2.3z"/><path class="p" d="m1920.1 710.4c0 0-8.1 18.9-19.9 20.3 0 0 9.4-14.3-10.7-22.9 0 0 18.4-3.2 30.6 2.6z"/><path class="a" d="m1903.6 720.9c-2.5 1.7-5.7 1.2-7.1-1.2-1.5-2.3-0.6-5.6 1.9-7.3 2.5-1.7 5.7-1.2 7.1 1.2 1.5 2.3 0.6 5.6-1.9 7.3z"/><path class="m" d="m1865 694.7c-0.7-0.2-15.6-4.7-16.3-13-0.2-2.5 0.3-4.2 1.3-5.1 1.7-1.4 4.4-0.7 6.9-0.1q0.5 0.1 1.1 0.2l-0.1 0.4q-0.5-0.2-1.1-0.3c-2.4-0.5-5-1.2-6.5 0.1-1 0.8-1.4 2.4-1.2 4.7 0.7 8.2 15.8 12.8 16 12.8z"/><path class="m" d="m1894.4 678c-11.7 0-17.5-6.9-17.5-7l0.2-0.2c0.1 0.1 7.3 8.7 22 6.5v0.3q-2.5 0.4-4.7 0.4z"/><path class="b" d="m1875.8 730.1q-0.1 0-0.3-0.1c-5.5-2.8-12.4-0.4-12.5-0.4-0.4 0.2-0.7 0-0.8-0.3-0.2-0.4 0-0.7 0.4-0.9 0.3-0.1 7.5-2.7 13.5 0.4 0.4 0.2 0.5 0.6 0.3 0.9-0.1 0.2-0.3 0.4-0.6 0.4z"/><path class="b" d="m502.4 853.6c6.2 0.6 13.3-2.4 13.3-2.4 0 0 5 32.3-1.9 37.4-6.2 4.7-17.4 0.6-28.6-3-7.7-2.5-24.7-6.2-30.3-11.7-9.9-9.5 12.1-10.7 23.2-7.8 10.1 2.7 11.2-16.7 11.2-16.7 0 0 4.2 3.3 13.1 4.2z"/><path class="o" d="m683.7 655.3c1.7-3.7-129.5 15.7-148.2 37.1-18 20.5 0.4 117.7-6.9 152-4.9 23.4-39.8 20.9-48.2 8.6-8.4-12.2-61.5-133.1-41.8-188.7 20.1-56.9 162.3-93.5 162.3-93.5 30.9-5.1 82.8 84.5 82.8 84.5z"/><path class="b" d="m697.7 952.1c0 0-4.9 12.7 2.6 20.2 7.4 7.6 31.8 22.4 18.9 26.1-7.5 2.1-32.2-12.6-39.6-15.9-7.3-3.3-15.4-3.3-19-10.5-3.8-7.8 12.8-30.9 12.8-30.9 0 0 5 6 10.7 8.5 8.3 3.5 13.6 2.5 13.6 2.5z"/><path class="o" d="m706.6 588.7c8.4 49.9 10.6 320.3 7.3 357.3-2.3 25.8-49.7 22.2-53.8 8.4-6.4-21.4-28.6-108.4-55.2-354.1-3.8-35.1 97.9-34 101.7-11.6z"/><path class="d" d="m609.5 399.4c75.9 4.6 110 76.6 144.6 102.6 35.3 26.5 78.9 57.7 78.9 57.7 0 0 1 27.2-19.8 34.7 0 0-56.7-12.1-99.9-42.9-43.8-31.2-77.1-68.6-70-66.8 0 0-51.3-86.4-33.8-85.3z"/><path class="d" d="m510.5 463.3c0 0-1.2-36.9 60.2-55.9 47.3-14.7 86.9 6.3 101.5 48.6 20.2 58.5 29.6 109.6 29.3 141.4 0 0-74.9 48.9-168.6-3.5 0 0 14.7-31.2-9.5-110.2-2.4-8-13.4-13.7-12.9-20.4z"/><path class="a" d="m579 396.5l6.9-15.7 2-4.6 11.7-26.8-2.3 28-1.3 16.7-0.5 5.4c-0.3 3.6 1.7 4.6 3.9 8.1 0.9 1.4 6.6 9.9-1.3 12.4-9.9 3-26.7-5.9-32.3-15.4 0.1 0 11-3.1 13.2-8.1z"/><path class="o" d="m585.1 409.7c0 0 10.6-7.3 14.5-5.4 3.9 2 5.3 16 0.3 18.9-5.1 2.8-19.3-8.7-14.8-13.5z"/><path class="i" d="m603.1 507.9c0.8 1.5 0.3 3.4-1.1 4.2-1.4 0.8-3.2 0.3-3.9-1.2-0.8-1.4-0.8-3.3 0.6-4.1 2-1.2 3.6-0.3 4.4 1.1z"/><path class="i" d="m605.7 550.4c0.8 1.4 0.3 3.3-1.1 4.1-1.4 0.9-3.2 0.4-4-1.1-0.8-1.5-0.7-3.3 0.7-4.1 2-1.2 3.6-0.4 4.4 1.1z"/><path class="i" d="m609 589.3c0.5 1.6-0.3 3.3-1.8 3.9-1.5 0.6-3.2-0.3-3.7-1.8-0.5-1.6-0.2-3.4 1.3-4 2.2-0.8 3.6 0.3 4.2 1.9z"/><path class="o" d="m595.4 419.2c4.2-1.4 7.6-5.2 7.8-0.6 6.6 106.3-62.6 164.8-90.1 177.2-8 3.5-17 3.7-25.2 0.7l-23.8-8.9c-4-1.5-5.4-6.7-2.8-10.2l14.6-19.5c3.7-4.9 8.5-8.7 14-11.2 84.9-39.5 99-105.4 101.3-122.2 0.3-2.5 2-4.5 4.2-5.3z"/><path class="b" d="m596.8 423.1c-2.5-0.2-4.7-1.5-4.8-1.6-0.1 0-0.2-0.2-0.1-0.4 0.1-0.1 0.3-0.2 0.4-0.1 0 0 3.8 2.3 7 1.2 3.1-1 3.6-7.4 3.6-7.5 0.1-0.1 0.2-0.2 0.4-0.2 0.1 0 0.2 0.1 0.2 0.3 0 0.3-0.5 6.9-4 8-0.9 0.3-1.8 0.4-2.7 0.3z"/><path class="q" d="m695.3 541.1c-0.3 0-0.6-0.3-0.7-0.6 0-0.3-3.8-28.5-18.3-57.1-0.2-0.3-0.1-0.7 0.2-0.8 0.3-0.2 0.7-0.1 0.9 0.3 14.7 28.7 18.5 57.2 18.5 57.5 0.1 0.3-0.2 0.6-0.5 0.7q-0.1 0-0.1 0z"/><path class="r" d="m589.7 424.7c-1.8 2.5-26.5-9.6-26-20.3 0.1-3.7 14.6-17.9 17.3-12.4 2.8 5.4 15 11 15 11 3.6 3.7-4.4 19.1-6.3 21.7z"/><path class="r" d="m594.7 403.9c0 0 0.7-2.5 1-7.2l0.4-4.6c2.3-0.1 15.4 7.8 16.7 10.3 1.4 2.6 2.8 15.2-1 16.5-3.9 1.4-14.6-11.1-15.9-12.4-1.2-1.2-1.2-2.6-1.2-2.6z"/><path class="s" d="m626.8 347.9c0 0 0 7-3.7 14.8-3.7 7.8-6.7-14.7-6.7-14.7z"/><path class="a" d="m596 392.1c-13.2-1.8-22.3-16.7-20.3-33.3 2-16.6 14.4-28.5 27.5-26.7 13.2 1.8 22.3 16.7 20.3 33.3-2 16.5-14.3 28.5-27.5 26.7z"/><path class="b" d="m562.1 346.9c-5-26.7 20.7-30.4 33.5-26.4 9.7 3 14.4-6 26-0.9 6.2 2.7 1.1 10.6 8.7 8.9 7.6-1.7 13.1 5.2 9.8 12.2-3.3 6.9-14.1 12.7-27.3 8.4-10.4-3.3-13.7-2.1-16.9 1-1.9 1.8-4.5 2.5-7.1 2.1l-11.5-1.9z"/><path class="l" d="m602.7 363c-0.1-0.1-2.4-2-5.1-1.9-0.3 0.1-0.5 0-0.6-0.3-0.1-0.3 0.1-0.6 0.3-0.6 4.1-1.3 6 2 6.1 2.2 0.2 0.2 0.1 0.5-0.1 0.7q-0.2 0.1-0.4 0.1-0.1-0.1-0.2-0.2z"/><path class="l" d="m599 364.7c0.9 0 1.5 1 1.6 2.2 0 1.2-0.7 2.2-1.5 2.2-0.9 0-1.6-0.9-1.6-2.2 0-1.2 0.7-2.2 1.5-2.2z"/><path class="l" d="m617.9 364.3c-0.1 0-2.3-0.6-4.1 0.7-0.2 0.1-0.4 0.1-0.5-0.1-0.2-0.2-0.2-0.5 0-0.7 2.2-2.9 4.8-0.8 4.9-0.7 0.2 0.1 0.3 0.4 0.2 0.6q0 0.3-0.2 0.3-0.1 0-0.3-0.1z"/><path class="l" d="m615.6 367c0.8 0.4 1.1 1.5 0.6 2.7-0.4 1.1-1.4 1.7-2.2 1.4-0.8-0.3-1-1.5-0.6-2.6 0.4-1.2 1.4-1.8 2.2-1.5z"/><path class="s" d="m591.5 352.2c-20.8 2.9-15.3 18.7-15.3 18.7-10.7-4.4-14.1-24-14.1-24 12.9-2.3 29.4 5.3 29.4 5.3z"/><path class="a" d="m575.1 353.6c1.9-1.9 5.1-1.5 7 0.7 2 2.2 2.1 5.5 0.2 7.3-1.9 1.8-5.1 1.5-7-0.7-2-2.2-2.1-5.5-0.2-7.3z"/><path class="s" d="m591.5 352.2c0 0-5.2 14.3-3 17.8 2.2 3.6 20.8 10.1 30.5 9-2.2 9.5-10.7 16-20 15.1-3.1-0.3-6.1-1.2-9-2.6-5.9-2.8-11.3-7.2-12.3-13.9-0.3-2 4.7-12.6 4.7-12.6 0 0 2.5-6.3-0.3-10.7 0 0 5.3-2.8 9.4-2.1z"/><path class="b" d="m628.6 326.7c-2.9-1.1-2.5-4-2.4-4l0.6 0.1c0 0.1-0.4 2.8 2.7 3.5l-0.1 0.7q-0.5-0.1-0.8-0.3z"/><path class="m" d="m617.5 346.3v-0.3c0.2 0 15.4-0.4 17.9-7.9 0.7-2.1 0.8-3.6 0.1-4.6-1.1-1.7-3.8-1.8-6.2-1.8q-0.6-0.1-1.1-0.1v-0.3q0.5 0 1.1 0c2.5 0.1 5.3 0.2 6.5 2 0.7 1.1 0.7 2.7-0.1 4.9-1 3.2-4.5 5.6-10.1 7-4.1 1-8 1.1-8.1 1.1z"/><path class="m" d="m590.2 322q-0.4-0.2-0.8-0.3l0.1-0.4c13.3 5.9 22-0.4 22.1-0.4l0.2 0.2c-0.1 0.1-8.6 6.2-21.6 0.9z"/><path class="a" d="m602.4 383.6c-3.2-1.3-5-3.4-5.2-3.5-0.2-0.3-0.1-0.6 0.1-0.8 0.2-0.3 0.6-0.2 0.8 0 0 0 4.5 5.2 11.7 4 0.3 0 0.6 0.2 0.7 0.5 0 0.3-0.2 0.6-0.5 0.6-3 0.5-5.6 0-7.6-0.8z"/><path class="b" d="m606.2 668.3c-0.7 0-1.2-0.5-1.3-1.2-1.5-12.4-10.4-22.7-10.5-22.8-0.4-0.6-0.4-1.4 0.2-1.8 0.5-0.5 1.3-0.5 1.8 0.1 0.4 0.4 9.5 11 11.1 24.2 0 0.7-0.5 1.4-1.2 1.5q0 0-0.1 0z"/><path class="t" d="m225.5 654.2c67.6 22.7 139 18.8 200.4-19.2 35-21.6 61.2-57.2 99.1-74.4 67.2-30.6 157.9-8.3 226.1 8.2 186.9 45 354.1 145.4 537.7 200.6 188.3 56.7 382.1 93.7 573.4 138.9 185.1 43.7 360.2 117.7 544.2 163.8 3.5 0.9 2 6.3-1.5 5.4-187.7-47-366.2-122-555.1-166.3-187.7-44.1-377.7-80.8-562.5-136.4-187.3-56.4-357.7-160-549.2-203.4-50.1-11.3-103.3-21.5-155-18.3-69.4 4.3-100.7 53.6-154.4 86.7-62.7 38.7-135.9 42.9-204.7 19.8-3.4-1.1-1.9-6.5 1.5-5.4z"/><path class="u" d="m1654.6 887.9c-1-0.5-2-2.3-3.4-2.4-3.9-0.1-8.8-5.1-8.8-5.1-5.6-1.7-8.7-5-7.1-10.8 1.7-6.1 2.5-20.9 9.2-23.1 6.7-2.1-0.1 24.7-0.1 24.7 0 0 6.2-21.6 12.1-23.3 5.8-1.7 0.3 26.2 0.3 26.2 0 0 6.7-23.9 13-23.6 6.2 0.3-2 28-2 28 0 0 3.4-10.8 7.3-17.3 4.5-7.3 7.2 15.1 0.4 26.7-5.4 9.1-15.5 2-15.5 2 0 0-3.6-1-5.4-2z"/><path class="u" d="m2080.3 988.1c-1-0.5-2-2.3-3.5-2.3-3.8-0.2-8.7-5.2-8.7-5.2-5.6-1.7-8.7-5-7.1-10.8 1.7-6.1 2.5-20.9 9.2-23.1 6.7-2.1-0.1 24.7-0.1 24.7 0 0 6.2-21.6 12-23.3 5.9-1.7 0.4 26.2 0.4 26.2 0 0 6.7-23.9 13-23.6 6.2 0.4-2 28-2 28 0 0 3.4-10.8 7.3-17.3 4.5-7.3 7.2 15.1 0.4 26.7-5.4 9.2-15.5 2-15.5 2 0 0-3.6-1-5.4-2z"/><path class="a" d="m1987.5 934.3c2.2 12-7.6 16.5-7.6 16.5 0 0-7.5 5.2-20.2 9.8q-1 0.6-2.4 1c-1 0.3-2.5 0.7-4.1 1.2q0 0 0 0c-7.8 2.3-20.3 5.7-23.1 2.6-5.1-5.6 16.2-10.7 16.2-10.7 0 0-25.5 6.8-27.9 0.7-1.8-4.7 18.2-9.3 24.7-11.2q0-0.1-0.1-0.2c-6.5 1.3-30.4 6.2-32.5 1.4-2.8-6.6 26.3-11.6 30.3-12.4q0 0 0-0.1c-46.4 5.8-18.2-8.7 4.8-12.8-3.1-2.7-8.9-9-7.6-11.2 1.6-2.5 10.5 1 13.1 2.2 6 2.9 18.9 6 24.8 8.9 2.6 1.3 10.2 6.6 11.6 14.3z"/><path class="o" d="m1970.8 917.9c2.5-7.2 64.6-26.1 64.6-33.4 0-6.3-51.3-23.2-51.3-23.2l-18-92.4c0 0 49.8 7.5 99.2 44.3 42.7 31.8 51 59 39.7 85.7-14 32.7-98.8 66.1-114.1 59.6-22.9-9.9-22.5-33.3-20.1-40.6z"/><path class="i" d="m1894 776.4c7.7 15.1 40.9 86.4 134.1 95.9 6 0.6 11.8 2.6 16.8 6l20.2 13.6c3.7 2.5 4 7.9 0.7 10.6l-19.6 16.2c-6.7 5.6-15.3 8.3-23.9 7.5-30.1-2.6-122.6-44.3-143.5-147.8-0.9-4.5 2.6-2.8 7-2.8l3.9-0.3c2.4 0 3.2-1.2 4.3 1.1z"/><path class="i" d="m1884.7 785.3c-5.5-0.7-8.8-14-5.9-17.2 2.9-3.2 14.9-0.5 14.9-0.5 5.6 2.7-3.5 18.4-9 17.7z"/><path class="v" d="m1886.6 765c0 0 14.9-7 17.4-13 2.6-5.9 19.4 5.7 19.5 9.6 0 4-26.9 28.3-29 25.7-2.1-2.5-11.4-18.2-7.9-22.3z"/><path class="v" d="m1885.8 768c-1 1.5-9.8 16.7-14 16.1-4.2-0.6-5-13.9-4.1-16.8 0.9-3 12.9-13.4 15.2-13.8 2.3-0.4 1.8 2.5 1.8 2.5-0.9 3.3 1.9 9 1.9 9 0 0 0.3 1.5-0.8 3z"/><path class="b" d="m1885.6 785.6c-3.3 0-6.5-5.9-6.6-6.1l0.5-0.3c0 0 3.6 6.5 6.6 5.8 3.1-0.8 4.2-3.1 4.2-3.1l0.6 0.2c-0.1 0.1-1.3 2.6-4.7 3.4q-0.3 0.1-0.6 0.1z"/><path class="b" d="m2426.5 1038.4q-0.1 0-0.2 0l-22.7-10.8c-0.3-0.1-0.4-0.4-0.3-0.7 0.1-0.3 0.4-0.4 0.7-0.3l22.8 10.8c0.3 0.1 0.4 0.4 0.2 0.7 0 0.2-0.2 0.3-0.5 0.3z"/><path class="u" d="m1207.6 754.9c-1-0.5-2-2.3-3.5-2.4-3.8-0.2-8.7-5.2-8.7-5.2-5.6-1.7-8.7-4.9-7.1-10.7 1.7-6.1 2.5-21 9.2-23.1 6.7-2.2-0.1 24.7-0.1 24.7 0 0 6.2-21.6 12.1-23.3 5.8-1.7 0.3 26.2 0.3 26.2 0 0 6.7-23.9 13-23.6 6.2 0.3-2 27.9-2 27.9 0 0 3.4-10.8 7.3-17.2 4.5-7.4 7.2 15 0.4 26.7-5.4 9.1-15.5 2-15.5 2 0 0-3.6-1-5.4-2z"/><path class="a" d="m1530 865.5c-12.8 2.2-23.3-3.8-25-8.4-1.6-4.6-15.1 1.2-18.5-3.1-3.5-4.3 16.9-6 16.9-6 0 0-16.7 0.8-19.6-3-2.9-3.8 19.1-4.7 19.1-4.7 0 0-16-0.5-17.6-5.1-1.7-4.6 16.7-3.8 16.7-3.8 0 0-8.6-0.8-14.6-3.2-6.1-2.4 8-8.4 18.2-6.8 10.1 1.6 29.8 21.9 29.8 21.9z"/><path class="c" d="m1531.1 839.9c1.1-6.8 43.6-15.9 42.1-21.2-2.8-9.7-59.8-32.3-59.8-32.3l-24.8-69.8c0 0 48.3 4.3 89.5 32.3 49.3 33.6 59 69.8 46.8 97.2-12.8 29.2-73.4 38.4-87.8 35.1-21.7-5-7.1-34.5-6-41.3z"/><path class="b" d="m1552.4 881.1c-6.8 0-15.5-0.4-20.1-2.4-8.3-3.6-7.6-12.7-7.6-12.8 0.1-0.3 0.3-0.5 0.6-0.5q0 0 0 0c0.3 0 0.6 0.3 0.5 0.6 0 0.3-0.6 8.3 6.9 11.6 7.8 3.4 28.8 2.1 29 2.1q0.1 0 0.1 0c0.3 0 0.5 0.3 0.5 0.6 0.1 0.3-0.2 0.5-0.5 0.6-0.4 0-4.3 0.2-9.4 0.2z"/><path class="b" d="m1531.1 840.5c-0.2 0-0.4-0.2-0.5-0.4-0.1-0.3 0-0.6 0.3-0.7 0.2-0.1 0.7-0.7 1.2-1.2 2.4-2.9 7.9-9.4 23.6-11 0.3 0 0.6 0.2 0.6 0.5 0.1 0.3-0.1 0.6-0.5 0.6-15.3 1.5-20.4 7.6-22.8 10.6-0.8 0.8-1.2 1.4-1.7 1.5q-0.1 0.1-0.2 0.1z"/><path class="b" d="m1553.8 805.2q-0.1 0-0.2-0.1l-22.7-10.7c-0.3-0.2-0.4-0.5-0.3-0.8 0.1-0.2 0.4-0.4 0.7-0.2l22.8 10.7c0.3 0.2 0.4 0.5 0.2 0.8 0 0.2-0.2 0.3-0.5 0.3z"/><path class="w" d="m2059.2 1747.7c-65-0.3-136.3-2.4-217.4-5.9-37.2-1.7-76.5-3.6-118.1-5.8q-25.7-1.4-52.7-2.9l-328.8-114.6c-9-33.9-14.2-71.6-16.8-110.1-2.2-19.7-2.2-51.1-2.2-51.1q0 0 0.1 0.7c1 4.2 6.8 28.7 19.9 55.9 16.8 35 45.5 74.6 91.3 81.9 84.9 13.4 203.6-7.4 320.1 64.4 87.4 53.7 202.5 59.6 304.6 87.5z"/><path class="a" d="m1498.2 718c-6.8 9.3-14.8 12.8-25.5 13.6-16.2 1.2-9.8-16.7-9.8-16.7q6-0.6 6.1-6.8v-5.1-2.5l0.1-8.1 0.1-7.2 0.4-29.8 9.5 29.6 1.6 5 5.6 17.3c1.7 5.5 6.3 9.6 11.8 10.7q0 0 0.1 0z"/><path class="b" d="m1480.7 690c0 0-4.2 9.1-11.7 10.5l0.1-8.1c4.7-1.3 11.6-2.4 11.6-2.4z"/><path class="b" d="m1506.1 659.4c0 0-2.2 4.4-2 14.7 0.2 15.2-16.8 16.9-19.7 11.7-0.4-0.6 6.3-24.4 6.3-24.4l5.7-1.7z"/><path class="a" d="m1445.4 652.7c4.6-18.3 20-30 34.3-26.1 14.3 3.9 22.2 21.9 17.6 40.3-4.6 18.4-20 30.1-34.3 26.2-14.3-3.9-22.2-22-17.6-40.4z"/><path class="b" d="m1446 643.4c-1-9.1 9.4-30.5 41.6-20.3 22.3 7 30.9 50.4 1.4 38-29.4-12.4-21-28.4-21.5-29.6 0 0-20.4 20.9-21.5 11.9z"/><path class="b" d="m1500.3 660.7c0 0-0.9 11.6-1.8 14.6-1 3-10.2 9.3-10.2 9.3 7.8-12.8-1.2-29.9-1.2-29.9z"/><path class="a" d="m1492.6 671c-3.7 2.1-7.9 1.3-9.4-1.9-1.5-3.1 0.3-7.3 4-9.5 3.6-2.1 7.8-1.2 9.3 1.9 1.5 3.1-0.3 7.4-3.9 9.5z"/><path class="l" d="m1468.8 659.5q-0.3-0.2-0.3-0.5c-0.1-0.4 0.2-0.7 0.5-0.7 0.2 0 4.7-1.1 7.2 3.8 0.1 0.3 0 0.7-0.3 0.9-0.2 0.2-0.6 0-0.8-0.3-2.2-2.6-5.8-3.2-6-3.2q-0.2 0.1-0.3 0z"/><path class="l" d="m1471.7 667.5c-0.3 1.4-1.4 2.4-2.4 2.2-1-0.3-1.6-1.6-1.3-3.1 0.3-1.5 1.4-2.5 2.5-2.2 1 0.2 1.6 1.6 1.2 3.1z"/><path class="l" d="m1446.9 656.9q-0.3 0-0.4-0.3c-0.2-0.3-0.1-0.7 0.2-0.9 0.2-0.1 3.9-2.8 8 0.7 0.3 0.3 0.4 0.7 0.1 0.9-0.2 0.3-0.5 0.3-0.8 0.1-3-1.5-6.6-0.7-6.7-0.6q-0.2 0.1-0.4 0.1z"/><path class="l" d="m1452.6 663.1c0.2 1.5-0.4 2.9-1.4 3.1-1.1 0.1-2.1-0.9-2.4-2.4-0.2-1.5 0.4-2.9 1.5-3 1-0.2 2.1 0.8 2.3 2.3z"/><g style="opacity:.3"><path class="m" d="m1483.7 662c0.4 8.6-4 16.8-9.8 18.5-5.8 1.6-10.8-3.9-11.2-12.5-0.4-8.5 4-16.8 9.8-18.4 5.8-1.7 10.8 3.9 11.2 12.4z"/></g><g style="opacity:.3"><path class="m" d="m1456.6 659.9c-0.5 8.3-5.2 16.1-10.4 17.4-5.2 1.3-9-4.4-8.4-12.8 0.5-8.4 5.1-16.2 10.3-17.5 5.2-1.3 9 4.5 8.5 12.9z"/></g><path fill-rule="evenodd" class="k" d="m1484.4 662q0 1.7-0.2 3.4-0.2 1.4-0.5 2.7-0.2 0.6-0.4 1.2c-1.2 4.1-3.4 7.5-6.1 9.5q-0.1 0.1-0.1 0.1c-1.1 0.8-2.2 1.4-3.4 1.7q-1.8 0.5-3.5 0.2-0.5-0.1-0.9-0.2c-1-0.3-2-0.7-2.9-1.4-2.2-1.7-3.8-4.4-4.7-7.7q-0.5-2.1-0.6-4.4-0.1-2.4 0.2-4.8 0.1-1 0.4-1.9c1.3-5.7 4.5-10.6 8.6-12.5q0.7-0.4 1.5-0.6c2.6-0.7 5.1-0.2 7.3 1.4 2.7 2.1 4.6 5.8 5.1 10.2q0.2 1 0.2 1.9 0 0.6 0 1.2zm-19.7 13.7q0 0.1 0 0.1 1 1.5 2.3 2.5 1.1 0.9 2.3 1.2 0.1 0.1 0.2 0.1 1.9 0.5 3.9 0 1.8-0.5 3.4-1.8 0.1 0 0.2-0.1c2.7-2.2 4.8-5.9 5.8-10.1q0.2-0.9 0.4-1.9 0.1-1 0.2-1.9v-0.1q0.1-1.4 0-2.8-0.1-1.3-0.3-2.6-0.1-0.7-0.3-1.4 0 0 0 0 0 0 0-0.1 0 0 0 0 0-0.1 0-0.1-0.4-1.3-0.9-2.5c-0.8-1.9-2-3.5-3.4-4.6q-1.6-1.2-3.4-1.5-1.4-0.2-3 0.2-0.6 0.2-1.2 0.5c-3.9 1.7-7 6.4-8.3 11.9q-0.2 1-0.3 2-0.3 2.1-0.2 4.3 0.1 2.2 0.6 4.2c0.5 1.7 1.1 3.2 2 4.5q0 0.1 0 0z"/><path fill-rule="evenodd" class="k" d="m1457.1 658.8q0 0.5 0 1.1 0 1-0.1 2c-0.1 1.4-0.3 2.8-0.7 4.2-0.7 2.9-1.9 5.6-3.5 7.7-1.5 2.1-3.3 3.6-5.4 4.2q-0.2 0-0.3 0.1-0.1 0-0.1 0-1.5 0.4-3-0.1-1.3-0.3-2.4-1.2c-2.9-2.2-4.7-6.9-4.9-12.4-0.2-9 4.2-17.6 9.7-19.2 0.1 0 0.3-0.1 0.4-0.1q0.7-0.1 1.4-0.2 1 0 1.9 0.3c0.8 0.3 1.5 0.7 2.2 1.2 2.9 2.2 4.7 6.9 4.8 12.4zm-1 1.2v-1.2c0-2.6-0.5-4.9-1.2-6.9-0.8-2-1.8-3.5-3.1-4.5q-0.1-0.1-0.1-0.2-1-0.7-2.1-1-0.9-0.3-1.9-0.2-0.5 0.1-1 0.2c-5.1 1.5-9.1 9.6-9 18.2q0.1 0 0.1 0.1 0 0 0 0 0 0 0 0 0 0.1-0.1 0.1h0.1c0.1 5.1 1.8 9.3 4.4 11.4 1.3 1 2.8 1.4 4.4 1.1q0.3 0 0.6-0.1 0.2-0.1 0.4-0.2 0.1 0 0.1 0 0 0 0.1 0 0 0 0-0.1c1.2-0.4 2.3-1.3 3.4-2.4 1.2-1.4 2.2-3.1 3.1-5.1q0-0.2 0.1-0.3 0 0 0 0v-0.1q0 0 0 0 0 0 0.1-0.1 0.1-0.2 0.2-0.5 0-0.1 0-0.2 0.1-0.1 0.2-0.4 0.1-0.2 0.1-0.4 0.2-0.3 0.3-0.6 0 0 0 0 0.1-0.3 0.2-0.7 0.1-0.3 0.2-0.6 0.1-0.4 0.2-0.7 0.1-0.6 0.2-1.3 0.2-0.6 0.3-1.3-0.1 0-0.2 0.1-0.1 0-0.2 0c-0.2 2.4-0.8 4.7-1.6 6.7v0.1q0-0.1 0-0.1 0 0 0 0 0 0 0.1-0.1 0.1-0.2 0.2-0.5 0-0.1 0-0.2 0.1-0.1 0.2-0.4 0.1-0.2 0.1-0.4 0.2-0.3 0.3-0.6 0 0 0 0 0.1-0.3 0.2-0.7 0.1-0.3 0.2-0.6 0.1-0.4 0.2-0.7 0.1-0.6 0.2-1.3 0.2-0.6 0.3-1.3-0.1 0-0.2 0.1-0.1 0-0.2 0 0.1-1 0.1-2.1z"/><path class="b" d="m1455.3 662.2c-0.3-0.1-0.5-0.3-0.6-0.6-0.2-0.5 0-1 0.5-1.2 0.1-0.1 3.8-1.7 8.4 0.8 0.5 0.3 0.7 0.9 0.4 1.4-0.2 0.4-0.8 0.6-1.2 0.4-3.9-2.1-6.8-0.9-6.9-0.8q-0.3 0.1-0.6 0z"/><path class="b" d="m1494.6 700.5c0 0-3.1-6.1-9.8-9.8-0.2-0.1-0.3-0.5-0.2-0.8 0.2-0.3 0.5-0.4 0.8-0.3 6.9 3.9 10.1 10.1 10.3 10.4 0.1 0.3 0 0.6-0.3 0.8q-0.1 0.1-0.3 0.1c-0.2-0.1-0.4-0.2-0.5-0.4z"/><path class="n" d="m1452.7 681.9q-0.1 0-0.2-0.1c-0.1-0.1-0.1-0.3 0-0.4 4.5-5.7 10.6-2.2 10.7-2.2 0.1 0.1 0.1 0.3 0.1 0.4-0.1 0.2-0.3 0.2-0.4 0.1-0.3-0.1-5.7-3.3-10 2q-0.1 0.2-0.2 0.2z"/><path class="t" d="m2460.2 1092.7c43.6 8.4 49.6 36.6 59.3 75.1 9.9 38.9 41.9 49.9 63 79.7 10.4 14.6 14.9 29.3 17.9 46.7 0.6 3.5-4.8 5-5.4 1.4-5.4-31.2-20.3-50.4-43.8-70.6-8.4-7.3-16.6-13.5-23-22.5-26.6-37.4-10.2-93-69.5-104.3-3.5-0.7-2-6.1 1.5-5.5z"/><path class="a" d="m2402.7 1097.5c-12.8 2.2-23.4-3.8-25-8.4-1.7-4.6-15.1 1.2-18.5-3.1-3.5-4.3 16.9-6 16.9-6 0 0-16.7 0.8-19.6-3-2.9-3.8 19.1-4.7 19.1-4.7 0 0-16-0.5-17.6-5.1-1.7-4.6 16.7-3.8 16.7-3.8 0 0-8.6-0.8-14.6-3.2-6.1-2.4 8-8.4 18.2-6.8 10.1 1.6 29.8 21.9 29.8 21.9z"/><path class="k" d="m2403.8 1071.9c1.1-6.8 43.6-15.9 42.1-21.2-2.8-9.8-59.8-32.3-59.8-32.3l-2.8-63.4c0 0 26.3-2.1 67.5 25.9 49.3 33.5 59 69.8 46.8 97.2-12.8 29.2-73.4 38.4-87.8 35.1-21.7-5-7.1-34.5-6-41.3z"/><path class="b" d="m2425.1 1113.1c-6.8 0-15.5-0.4-20.1-2.4-8.3-3.7-7.6-12.7-7.6-12.8 0.1-0.3 0.3-0.5 0.6-0.5q0 0 0 0c0.3 0 0.6 0.3 0.5 0.6 0 0.3-0.6 8.3 6.9 11.6 7.8 3.5 28.8 2.1 29 2.1q0.1 0 0.1 0c0.3 0 0.5 0.3 0.5 0.6 0.1 0.3-0.2 0.5-0.5 0.6-0.4 0-4.3 0.2-9.4 0.2z"/><path class="b" d="m2403.8 1072.5c-0.2 0-0.4-0.2-0.5-0.4-0.1-0.3 0-0.6 0.3-0.7 0.2-0.1 0.7-0.7 1.2-1.3 2.3-2.8 7.8-9.3 23.6-10.9 0.3 0 0.6 0.2 0.6 0.5 0.1 0.3-0.1 0.6-0.5 0.6-15.3 1.5-20.4 7.6-22.8 10.6-0.8 0.8-1.2 1.3-1.7 1.5q-0.1 0.1-0.2 0.1z"/><path class="u" d="m857 615.7c-1.1-0.4-2.5-2.3-4.1-2.1-4.2 0.4-10.3-4.3-10.3-4.3-6.4-0.9-10.3-4-9.5-10.6 0.9-6.9-0.6-23.3 6.3-26.7 7-3.4 3.9 27 3.9 27 0 0 3.4-24.6 9.4-27.4 6.1-2.7 4.6 28.6 4.6 28.6 0 0 3.5-27.1 10.4-27.8 6.9-0.6 2.3 30.8 2.3 30.8 0 0 2-12.3 5.2-20 3.8-8.7 10.3 15.3 4.6 29.1-4.4 10.9-16.5 4.7-16.5 4.7 0 0-4.1-0.6-6.3-1.3z"/><path class="a" d="m571.7 538c5.3-2.6 16.9-5.4 22.3-7.9 2.3-1.1 10.3-4.3 11.7-2 1.2 1.9-4 7.6-6.8 10 20.6 3.7 46 16.7 4.3 11.5q0 0 0 0.1c3.6 0.7 29.7 5.2 27.2 11.1-1.9 4.3-23.3-0.1-29.2-1.3q0 0.1 0 0.2c5.8 1.7 23.7 5.8 22.1 10-2.1 5.6-25-0.6-25-0.6 0 0 19.1 4.6 14.6 9.6-2.6 2.8-13.8-0.3-20.8-2.3q0 0 0 0c-1.5-0.5-2.7-0.8-3.7-1.1q-1.2-0.3-2.1-0.9c-11.4-4.1-18.1-8.8-18.1-8.8 0 0-8.8-4-6.9-14.8 1.3-6.9 8.1-11.6 10.4-12.8z"/><path class="d" d="m556.9 577.5c-13.6 5.8-86.2-12.6-98.7-41.9-10.2-23.9 3.8-53.5 33.9-94.2 30.2-40.7 86.9-44.9 86.9-44.9l-14.6 75.2c0 0-38.2 26.9-42.4 36-4.1 9 53.5 19.1 55.7 25.6 2.2 6.5-0.3 35.3-20.8 44.2z"/><path class="q" d="m544.2 578.7c-4.6 0-7.7-0.7-7.8-0.7-0.3-0.1-0.5-0.4-0.4-0.8 0-0.3 0.4-0.6 0.7-0.5 0.3 0.1 20.7 4.7 32.7-10.4 0.2-0.3 0.6-0.3 0.9-0.1 0.3 0.2 0.3 0.6 0.1 0.9-7.8 9.8-18.9 11.6-26.2 11.6z"/><path class="q" d="m578.2 536.2q-0.2 0-0.4-0.1c-0.2-0.2-0.3-0.6-0.1-0.9 0-0.1 0.2-0.5 0-1.1-0.3-0.8-1.6-2.4-6.4-4.1-8.5-3.1-39.4-13.3-39.7-13.4-0.3-0.1-0.5-0.5-0.4-0.8 0.1-0.4 0.5-0.6 0.8-0.4 0.3 0.1 31.2 10.3 39.8 13.3 4.1 1.5 6.5 3.2 7.1 5.1 0.4 1.2-0.1 2-0.2 2.1-0.1 0.2-0.3 0.3-0.5 0.3z"/><path class="q" d="m528.1 501q-0.3 0-0.5-0.2c-0.2-0.3-0.2-0.7 0.1-0.9l16.1-13.7c0.3-0.3 0.7-0.2 0.9 0.1 0.3 0.2 0.2 0.7 0 0.9l-16.2 13.6q-0.1 0.2-0.4 0.2z"/><path class="b" d="m1970.8 918.3q0 0 0 0c-0.2 0-0.4-0.2-0.3-0.4 0.9-4.1 6.1-7.9 6.3-8.1 0.2-0.1 0.4-0.1 0.5 0.1 0.1 0.2 0.1 0.4-0.1 0.5 0 0-5.2 3.8-6 7.6 0 0.2-0.2 0.3-0.4 0.3z"/><path class="b" d="m1996.4 959.7c-8.9 0-16.4-8.3-16.8-8.7-0.1-0.1-0.1-0.4 0.1-0.5 0.1-0.1 0.4-0.1 0.5 0 0.1 0.1 8.7 9.8 18.1 8.4 9.6-1.5 18.3-3.7 18.4-3.8 0.2 0 0.4 0.1 0.5 0.3 0 0.2-0.1 0.4-0.3 0.5-0.1 0-8.9 2.2-18.5 3.7q-1 0.1-2 0.1z"/><path class="b" d="m2027.7 872.7c-16.4-14.3-59.4-28.4-61.7-28.9l0.2-1.1c2.4 0.5 45.4 14.4 62.3 29.1z"/><g style="opacity:.6"><path class="m" d="m1339.4 511.3c11.5 11.5 12.1 28.7-13.1 26.3-25.2-2.5-30.5 2.4-73 6.4-42.6 3.9-57.3-17.9-87.6-5.6-30.3 12.3-56.5 2.5-55.7-11.4 0.8-14 22.9-5 27.8-21.3 5-16.4 27.9-18.9 44.2-16.4 16.4 2.5 12.3-23.7 46.7-27 34.4-3.3 48 22.8 48 22.8 4.9 15.9 51.3 14.8 62.7 26.2z"/></g><g style="opacity:.6"><path class="m" d="m2399.5 587c20.1 20.1 21.1 50.3-23.1 46-44.1-4.3-53.4 4.3-128 11.2-74.7 7-100.5-31.3-153.6-9.8-53.2 21.6-99.1 4.3-97.7-20.1 1.5-24.4 40.2-8.6 48.8-37.3 8.7-28.7 48.9-33 77.6-28.7 28.7 4.3 21.5-41.6 81.8-47.4 60.3-5.7 84.1 40.1 84.1 40.1 8.6 27.8 90 25.9 110.1 46z"/></g><g style="opacity:.3"><path class="m" d="m1771.5 370.9c23.2 23.3 24.5 58.2-26.6 53.3-51.1-5-61.8 4.9-148.1 13-86.3 8-116.2-36.3-177.6-11.4-61.4 24.9-114.5 5-112.9-23.2 1.7-28.2 46.5-10 56.5-43.2 9.9-33.2 56.4-38.1 89.6-33.2 33.2 5 24.9-48.1 94.6-54.7 69.7-6.7 97.3 46.3 97.3 46.3 9.9 32.1 104 29.9 127.2 53.1z"/></g></svg>