<svg version="1.2" xmlns="http://www.w3.org/2000/svg" viewBox="0 0 1000 1000" width="1000" height="1000"><style>.a{fill:#ebebeb}.b{fill:#fff}.c{fill:#fafafa}.d{fill:#e0e0e0}.e{fill:#ff0}.f{fill:#263238}.g{fill:#0f61b8}.h{fill:#455a64}.i{fill:#fcff5d}.j{fill:none;stroke:#000;stroke-width:.4}.k{fill:#ffbf9d}.l{fill:#ff9a6c}</style><path class="a" d="m717.9 517.4h144.6v111.4h-144.6z"/><path class="b" d="m728.3 599.4h17.4v19.7h-17.4z"/><path class="c" d="m818.4 517.6v23.8h-16.4v-23.8z"/><path class="c" d="m818.4 604.7v23.8h-16.4v-23.8z"/><path class="d" d="m754 629.6c-0.2 0-0.4-24.5-0.4-54.8 0-30.2 0.2-54.7 0.4-54.7 0.3 0 0.5 24.5 0.5 54.7 0 30.3-0.2 54.8-0.5 54.8z"/><path class="a" d="m659 628.5h249.4v192.3h-249.4z"/><path class="b" d="m676.8 770h30.1v34h-30.1z"/><path class="c" d="m832.3 629v41h-28.3v-41z"/><path class="c" d="m832.3 779.2v41h-28.3v-41z"/><path class="d" d="m721.2 822.1c-0.4 0-0.8-42.3-0.8-94.5 0-52.1 0.4-94.4 0.8-94.4 0.5 0 0.8 42.3 0.8 94.4 0 52.2-0.3 94.5-0.8 94.5z"/><path class="a" d="m900.4 228.4l13.4 27.1 29.9 4.3-21.6 21.1 5.1 29.7-26.8-14-26.7 14 5.1-29.7-21.6-21.1 29.9-4.3z"/><path class="a" d="m105 577.9l8.4 17.1 18.9 2.7-13.7 13.3 3.3 18.8-16.9-8.9-16.8 8.9 3.2-18.8-13.6-13.3 18.8-2.7z"/><path class="a" d="m115.5 429.3l18.7 37.9 41.8 6.1-30.3 29.5 7.2 41.6-37.4-19.7-37.4 19.7 7.1-41.6-30.2-29.5 41.8-6.1z"/><path class="a" d="m888.5 350.6l8.1 16.4 18 2.6-13 12.7 3.1 17.9-16.2-8.4-16.1 8.4 3.1-17.9-13-12.7 18-2.6z"/><path class="a" d="m624.1 86.1l8.1 16.4 18 2.6-13.1 12.7 3.1 17.9-16.1-8.4-16.1 8.4 3.1-17.9-13.1-12.7 18-2.6z"/><path class="a" d="m808.4 260.8l5.3 10.7 11.8 1.7-8.5 8.3 2 11.8-10.6-5.6-10.5 5.6 2-11.8-8.5-8.3 11.8-1.7z"/><path class="a" d="m321.8 800.2l10.3 20.8 23 3.4-16.6 16.2 3.9 22.8-20.6-10.8-20.5 10.8 3.9-22.8-16.6-16.2 23-3.4z"/><path class="a" d="m349 779.5l4.2 8.6 9.5 1.4-6.9 6.7 1.7 9.5-8.5-4.5-8.5 4.5 1.6-9.5-6.9-6.7 9.5-1.4z"/><path class="e" d="m728.3 699.8l9 18.3 20.2 3-14.6 14.2 3.4 20.1-18-9.5-18.1 9.5 3.5-20.1-14.7-14.2 20.2-3z"/><path class="e" d="m771.4 683.6l4.2 8.6 9.5 1.4-6.9 6.7 1.7 9.5-8.5-4.5-8.6 4.5 1.7-9.5-6.9-6.7 9.5-1.4z"/><path class="c" d="m715.9 207.3l7-22.1c-5.5-11-8.1-23.7-6.9-36.8 3.5-37.9 37-65.8 74.9-62.4 37.9 3.5 65.8 36.9 62.4 74.8-3.4 37.9-36.9 65.8-74.8 62.3-15.9-1.4-28.9-7.1-39.7-17.2z"/><path class="f" d="m714.9 207.3c0 0 0.5 0 1.5-0.1q1.5-0.1 4.4-0.3c3.9-0.3 9.6-0.7 17-1.2h0.1l0.1 0.1c6.5 6 16.4 12.7 29.9 15.5 3.3 0.7 6.8 1.3 10.5 1.5q2.7 0.1 5.6 0.2c1.9 0 3.8-0.2 5.8-0.3 7.8-0.7 15.9-2.8 23.8-6.6 7.8-3.9 15.3-9.4 21.6-16.5 6.2-7.2 11.3-15.9 14.1-25.7 2.8-9.8 3.5-20.5 1.7-31-0.3-2.7-1.1-5.2-1.8-7.9-0.3-1.3-0.9-2.5-1.3-3.8-0.5-1.3-1-2.6-1.5-3.8-2.3-5-4.9-9.9-8.4-14.3-1.6-2.2-3.6-4.2-5.5-6.2-0.8-1.1-2-1.9-3-2.9-1-0.9-2-1.9-3-2.7l-3.3-2.4-1.7-1.2-1.7-1.1-3.5-2c-1.2-0.7-2.4-1.2-3.6-1.8-9.7-4.5-20.2-6.7-30.3-6.5-10.2 0.2-19.9 2.7-28.5 6.8-8.5 4.1-15.8 9.8-21.6 16.3-5.8 6.6-10 13.9-12.7 21.2q-0.5 1.4-1 2.7c-0.4 0.9-0.7 1.8-0.9 2.8q-0.7 2.7-1.3 5.4c-0.5 3.6-1.2 7.1-1.3 10.5-0.5 13.8 3.1 25.1 7 33.1l0.1 0.1v0.1c-2.4 7.1-4.2 12.6-5.4 16.3q-0.9 2.8-1.4 4.3c-0.3 0.9-0.5 1.4-0.5 1.4q0 0 0.4-1.4 0.4-1.4 1.3-4.2c1.2-3.8 2.9-9.3 5.1-16.6v0.2c-4-8-7.7-19.4-7.2-33.3 0-3.4 0.7-7 1.1-10.6q0.7-2.7 1.4-5.5c0.2-1 0.5-1.9 0.8-2.8q0.5-1.4 1-2.8c2.8-7.4 7-14.8 12.8-21.4 5.9-6.7 13.3-12.5 21.9-16.7 8.7-4.2 18.6-6.7 28.9-6.9 10.3-0.3 20.9 2 30.7 6.6 1.3 0.6 2.5 1.1 3.7 1.8l3.5 2.1 1.8 1 1.7 1.2 3.3 2.5c1.1 0.9 2.1 1.8 3.1 2.7 1.1 1 2.2 1.9 3.1 2.9 1.9 2.1 3.9 4.1 5.5 6.4 3.5 4.4 6.2 9.4 8.6 14.4 0.5 1.3 0.9 2.6 1.4 3.9 0.5 1.3 1.1 2.6 1.4 3.9 0.7 2.7 1.5 5.3 1.8 8 1.9 10.7 1.1 21.6-1.7 31.5-2.9 9.9-8.1 18.8-14.4 26-6.4 7.2-14 12.8-21.9 16.6-8 3.9-16.3 6-24.2 6.7-1.9 0.1-3.9 0.3-5.8 0.3q-2.9-0.1-5.7-0.3c-3.7-0.2-7.2-0.8-10.6-1.5-13.6-3-23.6-9.8-30-15.9l0.1 0.1c-7.5 0.4-13.2 0.7-17.1 0.9q-2.9 0.1-4.4 0.2-1.4 0-1.4 0z"/><path class="g" d="m744.6 152l11.4-9.8 19.1 19.6 42.8-35.7 9.1 11.3-54.9 44.7z"/><path class="d" d="m596.2 699l-383.5 85.5c-9.3 2-18.5-3.8-20.6-13.1l-124.5-558.5c-2.1-9.3 3.8-18.6 13.1-20.6l383.5-85.5c9.4-2.1 18.6 3.8 20.7 13.1l124.4 558.5c2.1 9.3-3.8 18.5-13.1 20.6z"/><path class="f" d="m596.2 699q0 0 1.3-0.4c0.8-0.2 2.1-0.7 3.6-1.6 1.5-0.8 3.2-2.2 4.8-4.2 1.6-2 3-4.7 3.5-8.1 0.3-1.6 0.3-3.4 0-5.3-0.3-1.9-0.8-3.8-1.3-5.9q-1.3-6.1-3-13.4c-2.1-9.7-4.6-20.8-7.5-33.4-11.2-50.4-27.5-123.2-47.6-213.2-10.1-45-21.1-94.3-32.9-147.3-5.9-26.4-12-53.8-18.3-82q-4.7-21.1-9.5-42.9-2.5-10.8-5-21.9c-0.8-3.5-3-6.8-5.9-9.1-2.9-2.2-6.6-3.6-10.3-3.5-1.9-0.1-3.7 0.3-5.6 0.8q-2.8 0.6-5.6 1.2-5.6 1.3-11.3 2.5-11.3 2.5-22.7 5.1-22.8 5.1-46.2 10.3c-31.2 6.9-63 14-95.4 21.3-64.7 14.4-131.8 29.3-200.4 44.6-4.2 1-8 3.5-10.4 7.1-2.4 3.6-3.4 8-2.6 12.3 1.8 8.5 3.8 17 5.6 25.5q5.7 25.4 11.3 50.5c7.4 33.5 14.8 66.4 22 98.8 14.4 64.8 28.3 127.3 41.6 186.8 13.3 59.5 25.8 116.1 37.6 169q2.2 10 4.4 19.7c0.8 3.2 1.4 6.5 2.2 9.7 0.8 3.1 2.6 6 5 8.1 2.3 2.2 5.3 3.6 8.4 4.2q2.4 0.4 4.8 0.1c1.5-0.2 3.1-0.5 4.7-0.9q9.4-2.1 18.6-4.1c24.6-5.5 48.1-10.7 70.7-15.8 90-20 162.8-36.2 213.2-47.3 25.2-5.6 44.7-10 58-12.9 6.6-1.4 11.7-2.6 15.1-3.3 3.4-0.8 5.1-1.1 5.1-1.1 0 0-1.7 0.4-5.1 1.2-3.4 0.7-8.5 1.9-15.1 3.4-13.2 2.9-32.8 7.3-57.9 13-50.4 11.2-123.2 27.5-213.2 47.6-22.5 5-46.1 10.3-70.7 15.8q-9.2 2-18.6 4.1c-1.5 0.4-3.1 0.8-4.7 1q-2.5 0.2-5-0.2c-3.2-0.5-6.3-2-8.8-4.3-2.4-2.2-4.3-5.2-5.1-8.4-0.8-3.3-1.5-6.5-2.2-9.7q-2.2-9.8-4.4-19.7c-11.8-53-24.5-109.5-37.7-169-13.3-59.6-27.2-122-41.7-186.8-7.2-32.4-14.6-65.4-22-98.8q-5.6-25.1-11.3-50.6c-1.9-8.4-3.8-16.9-5.6-25.5-0.8-4.4 0.2-9.1 2.7-12.8 2.5-3.8 6.5-6.5 10.9-7.5 68.7-15.3 135.7-30.2 200.5-44.6 32.4-7.3 64.2-14.3 95.3-21.3q23.4-5.2 46.2-10.3 11.5-2.5 22.8-5 5.6-1.3 11.2-2.5 2.8-0.7 5.6-1.3c1.9-0.4 3.8-0.8 5.8-0.8 3.9 0 7.7 1.4 10.8 3.7 3 2.4 5.3 5.8 6.2 9.6q2.4 11 4.9 21.9 4.8 21.7 9.5 42.9c6.3 28.2 12.4 55.5 18.3 82 11.8 52.9 22.7 102.2 32.8 147.3 20 90 36.2 162.9 47.4 213.2 2.7 12.6 5.2 23.8 7.4 33.5q1.6 7.3 2.9 13.4c0.5 2.1 1 4 1.3 5.9 0.3 1.8 0.3 3.7 0 5.4-0.5 3.3-2 6.1-3.6 8.1-1.6 2-3.4 3.3-4.9 4.2-1.5 0.9-2.7 1.3-3.6 1.6q-1.3 0.3-1.3 0.3z"/><g style="opacity:.3"><path  d="m216.4 709.2l334.3-131.3 19.8 38.4 11.1 68.5-349.5 79.9z"/></g><g style="opacity:.3"><path  d="m378 127.3l13.3 21.8 2.5 11.6-8.9 2z"/></g><path class="b" d="m467.5 131.4l99.6 446.7 21.7 97.3-380 84.7-121.3-544z"/><path class="f" d="m87.5 216.1c2.7-0.6 149-33.3 380-85l0.3-0.1 0.1 0.3c33.7 151.2 75.8 339.9 121.3 544l0.1 0.4-0.4 0.1c-135.9 30.3-264.9 59-380.1 84.7l-0.3 0.1-0.1-0.4c-71.4-321.3-120.1-540.8-120.9-544.1 0.8 3.3 49.8 222.8 121.6 543.9l-0.4-0.3c115.1-25.6 244.1-54.4 380-84.7l-0.3 0.5c-45.5-204.2-87.5-392.8-121.2-544l0.4 0.2c-231 51.3-377.4 83.8-380.1 84.4z"/><path class="f" d="m386.9 167.1l-192.3 42.8-9.7-43.4c-1.5-6.8 2.8-13.6 9.6-15.1l167.6-37.3c6.8-1.6 13.6 2.7 15.1 9.6z"/><path class="f" d="m301.1 149.7l-36.8 8.2-15.1-40.7 48.9-10.9z"/><path class="h" d="m362.1 114.1c0.1 0.2-37.4 8.7-83.7 19-46.3 10.3-83.8 18.5-83.9 18.3 0-0.2 37.5-8.8 83.8-19.1 46.2-10.3 83.8-18.5 83.8-18.2z"/><path class="h" d="m196.9 200c-0.2 0-2.1-7.8-4.3-17.6-2.2-9.7-3.8-17.6-3.5-17.7 0.2 0 2.1 7.8 4.3 17.6 2.2 9.7 3.7 17.6 3.5 17.7z"/><path class="h" d="m377.7 155.3c-0.2 0-2-7.1-3.9-15.9-2-8.9-3.4-16.1-3.2-16.1 0.2-0.1 2 7.1 4 15.9 2 8.8 3.4 16 3.1 16.1z"/><path class="h" d="m370.1 164.8c0.1 0.2-38.4 9-85.9 19.5-47.5 10.6-86 19-86.1 18.8 0-0.2 38.4-9 85.9-19.6 47.5-10.5 86.1-18.9 86.1-18.7z"/><path class="f" d="m268.9 323c0.1 0.3-25.9 6.2-57.9 13.4-32.1 7.1-58.1 12.7-58.2 12.5 0-0.2 25.9-6.2 58-13.3 32-7.2 58-12.8 58.1-12.6z"/><path class="f" d="m462.3 301.2c0.1 0.3-67.7 15.6-151.4 34.2-83.7 18.7-151.5 33.6-151.6 33.4 0-0.3 67.7-15.6 151.4-34.2 83.7-18.6 151.6-33.6 151.6-33.4z"/><path class="f" d="m466.5 319.9c0 0.3-67.8 15.6-151.4 34.2-83.7 18.7-151.6 33.6-151.6 33.4-0.1-0.3 67.7-15.6 151.4-34.2 83.7-18.7 151.5-33.6 151.6-33.4z"/><path class="f" d="m470.7 338.6c0 0.3-67.8 15.6-151.4 34.2-83.7 18.7-151.6 33.6-151.7 33.4 0-0.3 67.8-15.6 151.5-34.2 83.6-18.7 151.5-33.6 151.6-33.4z"/><path class="f" d="m474.8 357.3c0.1 0.3-67.7 15.6-151.4 34.2-83.7 18.7-151.5 33.6-151.6 33.4 0-0.3 67.7-15.6 151.4-34.2 83.7-18.7 151.6-33.6 151.6-33.4z"/><path class="f" d="m479 376c0 0.3-67.8 15.6-151.4 34.2-83.7 18.6-151.6 33.6-151.6 33.4-0.1-0.3 67.7-15.6 151.4-34.2 83.7-18.7 151.5-33.6 151.6-33.4z"/><path class="f" d="m234.7 507.6q0 0-0.1-0.6-0.2-0.7-0.5-1.8-0.6-2.4-1.6-6.7c-1.3-5.8-3.2-13.9-5.4-23.6l0.4 0.3c-9.5 2.1-20.8 4.6-32.8 7.3-0.1 0.1 0.6-0.9 0.3-0.5v0.1h0.1v0.1 0.1l0.1 0.3 0.1 0.6 0.2 1.1q0.3 1.1 0.5 2.2 0.5 2.2 1 4.4 1 4.3 1.9 8.5c1.2 5.5 2.3 10.7 3.4 15.5l-0.4-0.3c9.7-2.1 17.9-3.9 23.7-5.1q4.2-0.9 6.7-1.4 1.1-0.2 1.8-0.4 0.6-0.1 0.6-0.1 0.1 0-0.5 0.2-0.7 0.2-1.7 0.4-2.4 0.6-6.6 1.6c-5.9 1.3-14.1 3.2-23.9 5.5l-0.3 0.1-0.1-0.4c-1.1-4.8-2.3-9.9-3.5-15.4q-0.9-4.2-1.9-8.5-0.5-2.2-1-4.4-0.2-1.1-0.5-2.2l-0.2-1.2-0.2-0.5v-0.3l-0.1-0.1v-0.1-0.1c-0.3 0.5 0.4-0.6 0.3-0.5 12-2.6 23.3-5.1 32.9-7.2l0.3-0.1 0.1 0.3c2.1 9.9 3.9 18.1 5.1 24q0.9 4.2 1.4 6.6 0.2 1.1 0.4 1.8 0.1 0.5 0 0.5z"/><path class="d" d="m482.8 445.8l-228.8 51-4.3-19.1 228.9-51z"/><path class="f" d="m247.4 564.5q0 0-0.2-0.6-0.1-0.7-0.4-1.8-0.6-2.4-1.6-6.7c-1.3-5.8-3.2-13.9-5.4-23.6l0.4 0.3c-9.6 2.1-20.8 4.6-32.8 7.3-0.1 0.2 0.6-0.9 0.3-0.4v0.1l0.1 0.1v0.3l0.2 0.6 0.2 1.1q0.3 1.1 0.5 2.2 0.5 2.2 1 4.4 0.9 4.3 1.9 8.5c1.2 5.5 2.3 10.7 3.4 15.5l-0.5-0.3c9.8-2.1 17.9-3.9 23.8-5.1q4.2-0.9 6.7-1.4 1.1-0.2 1.8-0.4 0.6-0.1 0.6-0.1 0 0-0.5 0.2-0.7 0.2-1.7 0.4-2.5 0.6-6.6 1.6c-5.9 1.3-14.1 3.2-23.9 5.5l-0.4 0.1v-0.4c-1.1-4.8-2.3-9.9-3.5-15.4q-1-4.2-1.9-8.5-0.5-2.2-1-4.4-0.3-1.1-0.5-2.2l-0.3-1.2-0.1-0.5v-0.3l-0.1-0.1v-0.1-0.1c-0.3 0.5 0.4-0.6 0.3-0.5 12-2.6 23.3-5.1 32.8-7.2l0.4-0.1 0.1 0.3c2.1 9.9 3.9 18.1 5.1 24q0.9 4.2 1.4 6.6 0.2 1.1 0.3 1.8 0.1 0.5 0.1 0.5z"/><path class="d" d="m495.5 502.7l-228.8 51-4.3-19.1 228.8-51z"/><path class="f" d="m260.1 621.4q0 0-0.2-0.6-0.1-0.7-0.4-1.8-0.6-2.4-1.6-6.7c-1.3-5.7-3.2-13.9-5.5-23.6l0.5 0.3c-9.6 2.1-20.8 4.7-32.8 7.3-0.1 0.2 0.6-0.9 0.3-0.4v0.1l0.1 0.1v0.3l0.1 0.6 0.3 1.1q0.2 1.1 0.5 2.2 0.5 2.2 1 4.4 0.9 4.3 1.8 8.5c1.3 5.5 2.4 10.7 3.5 15.5l-0.5-0.3c9.8-2.1 17.9-3.9 23.7-5.1q4.3-0.9 6.8-1.4 1.1-0.2 1.8-0.4 0.6-0.1 0.6-0.1 0 0.1-0.5 0.2-0.7 0.2-1.8 0.4-2.4 0.6-6.6 1.6c-5.8 1.3-14 3.2-23.8 5.5l-0.4 0.1-0.1-0.4c-1-4.7-2.2-9.9-3.4-15.4q-1-4.2-1.9-8.5-0.5-2.2-1-4.4-0.3-1.1-0.5-2.2l-0.3-1.1-0.1-0.6-0.1-0.3v-0.1-0.1-0.1c-0.3 0.5 0.4-0.6 0.3-0.5 12-2.6 23.3-5.1 32.8-7.2l0.4-0.1v0.4c2.2 9.8 3.9 18 5.2 23.9q0.9 4.2 1.4 6.6 0.2 1.1 0.3 1.8 0.1 0.5 0.1 0.5z"/><path class="d" d="m508.2 559.6l-228.8 51-4.3-19.1 228.8-51z"/><path class="g" d="m203.2 495.9l3.5-5.4 10.2 5.6 13.1-19.8 5.1 3.5-16.9 25z"/><path class="g" d="m215.5 550.9l3.4-5.4 10.2 5.6 13.2-19.8 5.1 3.5-17 25z"/><path class="g" d="m228.1 607.3l3.4-5.4 10.2 5.6 13.2-19.8 5 3.5-16.9 25z"/><path class="f" d="m332.8 678c0 0.3-19.3 4.8-43.2 10.1-23.8 5.3-43.2 9.4-43.3 9.2 0-0.2 19.3-4.7 43.2-10 23.8-5.4 43.2-9.5 43.3-9.3z"/><path class="f" d="m375.9 667.7c0 0.3-7.1 2-15.9 4-8.8 2-16 3.4-16 3.1-0.1-0.2 7-2 15.8-3.9 8.8-2 16-3.4 16.1-3.2z"/><path class="f" d="m518.6 622.8c0 0.2-17.4 4.3-38.9 9.1-21.5 4.8-38.9 8.5-39 8.3 0-0.3 17.4-4.3 38.9-9.1 21.4-4.8 38.9-8.5 39-8.3z"/><path class="f" d="m500 675.5c-0.1-0.1 0.2-0.6 0.4-1.6 0.2-1.1 0.2-2.7-0.3-4.6-0.5-2-1.5-4.3-2.7-6.9-1.2-2.7-2.8-5.8-2.8-9.6 0.1-3.7 1.7-7.8 5.1-10.7 3.3-3 8.5-4 13.3-2.5 2.3 0.8 4.6 2.1 6.3 4.1 0.8 1.1 1.5 2.3 1.5 3.8 0.1 1.5-1 2.9-2.3 3.4-1.4 0.5-2.7 0.6-4 0.9q-1.9 0.4-3.9 0.9c-2.7 0.5-5.4 1-8.2 1.3-5.6 0.8-11.2 0.9-16.4 0.1-2.5-0.2-5.2-0.3-7.2 1.2-1.9 1.5-2.9 3.9-4.3 5.9-0.7 1-1.6 1.9-2.8 2.4-1.2 0.6-2.5 0.6-3.7 0.2-2.3-0.8-4-2.3-5.8-3.4-0.9-0.5-1.8-0.9-2.8-1-1-0.1-1.9 0.1-2.7 0.6-1.5 1.1-2.4 3-3.4 4.5-2 3.2-5.5 4.8-8.4 4.9-3 0.1-5.5-1.2-7-2.5-1.6-1.4-2.4-2.9-2.8-3.9-0.4-1-0.5-1.5-0.5-1.5 0.1-0.1 0.2 0.5 0.7 1.5 0.4 0.9 1.2 2.3 2.8 3.6 1.5 1.3 3.9 2.5 6.7 2.3 2.9-0.2 6.1-1.6 8-4.7 1-1.5 1.8-3.4 3.5-4.7 0.9-0.6 2-0.9 3.2-0.8 1.1 0.1 2.1 0.6 3 1.1 1.9 1.1 3.7 2.6 5.8 3.3 1 0.3 2.1 0.3 3.1-0.1 1-0.5 1.8-1.3 2.5-2.3 1.3-1.9 2.3-4.3 4.4-6 1.1-0.9 2.5-1.3 3.8-1.4 1.3-0.2 2.7-0.1 4 0 5.2 0.8 10.6 0.6 16.2-0.1 2.7-0.3 5.4-0.8 8.1-1.4q2-0.4 4-0.8c1.3-0.3 2.6-0.5 3.8-0.9 1.1-0.4 1.9-1.4 1.8-2.6 0-1.2-0.6-2.3-1.3-3.3-1.6-1.8-3.7-3.1-6-3.9-4.5-1.4-9.4-0.5-12.6 2.3-3.2 2.7-4.8 6.7-4.9 10.2 0 3.6 1.4 6.7 2.6 9.4 1.2 2.6 2.2 5 2.6 7 0.5 2 0.4 3.7 0.1 4.7-0.2 1.1-0.5 1.6-0.5 1.6z"/><path class="f" d="m541.3 649.9q0 0-1 0.3-1.2 0.3-3 0.7c-2.8 0.6-6.6 1.5-11.2 2.6-9.4 2.2-22.4 5.3-36.7 8.9-14.3 3.6-27.2 7.1-36.5 9.7-4.6 1.2-8.3 2.3-11 3q-1.9 0.5-3.1 0.8-1 0.3-1 0.2 0 0 1-0.4 1.1-0.3 3-0.9c2.5-0.8 6.3-2 10.9-3.3 9.3-2.7 22.2-6.3 36.5-9.9 14.3-3.7 27.3-6.7 36.8-8.7 4.7-1 8.5-1.8 11.2-2.3q1.9-0.4 3.1-0.6 1-0.2 1-0.1z"/><path class="d" d="m383.8 240.2l-155.3 34.6-6.5-29.2 155.3-34.6z"/><path class="i" d="m614.9 657.9l92.3 258.1-86.9-51-45.9 84.7-50.2-265.1z"/><g style="opacity:.3"><path  d="m534.9 741l32.1-38.5 67.2 8.4 14.4 40.2c-9.8 6.1-22.2 7.9-33.4 5-5.7-1.5-11.1-4.1-16.8-5.7-5.7-1.6-12-2-17.2 0.9-5.8 3.1-8.8 9.6-13.4 14.3-6.6 6.8-17.4 10.1-26.7 8.2z"/></g><path class="f" d="m617 854.5c-0.3 0-7.7-27.5-16.7-61.5-8.9-34.1-15.9-61.7-15.7-61.8 0.3-0.1 7.8 27.5 16.7 61.5 9 34 16 61.7 15.7 61.8z"/><path class="i" d="m531.6 698.4l-50.2 265.1-45.9-84.7-86.9 51 92.3-258.2z"/><g style="opacity:.3"><path  d="m418.7 733.6l9.3-17.5 24.9-2.5 34.9-7.1 33.5 46-5.7 30.6c0 0-25-21.4-34.2-27.9-9.2-6.6-19.8-5.4-36.8 0-17 5.4-31.3-6.3-31.3-6.3z"/></g><path class="g" d="m825.8 459.1c0 19-24.3 35.4-27.9 53.4-3.6 18.5 12.5 42.9 5.4 59.9-7.2 17.4-35.9 23.2-46.2 38.6-10.4 15.6-4.9 44.3-18 57.5-13.2 13.2-42 7.6-57.5 18-15.4 10.3-21.3 39.1-38.6 46.3-17 7-41.5-9.1-60-5.4-18 3.5-34.3 27.8-53.4 27.8-19 0-35.4-24.3-53.4-27.8-18.5-3.7-42.9 12.4-59.9 5.4-17.4-7.2-23.2-36-38.6-46.3-15.6-10.4-44.3-4.8-57.5-18-13.2-13.2-7.6-41.9-18-57.5-10.3-15.4-39.1-21.2-46.3-38.6-7-17 9.1-41.4 5.4-59.9-3.5-18-27.8-34.4-27.8-53.4 0-19 24.3-35.4 27.8-53.4 3.7-18.5-12.4-43-5.4-60 7.2-17.3 36-23.2 46.3-38.6 10.4-15.5 4.8-44.3 18-57.5 13.2-13.1 41.9-7.6 57.5-18 15.4-10.3 21.2-39 38.6-46.2 17-7.1 41.4 9 59.9 5.4 18-3.6 34.4-27.9 53.4-27.9 19.1 0 35.4 24.3 53.4 27.9 18.5 3.6 43-12.5 60-5.4 17.3 7.2 23.2 35.9 38.6 46.2 15.5 10.4 44.3 4.9 57.5 18 13.1 13.2 7.6 42 18 57.5 10.3 15.4 39 21.3 46.2 38.6 7.1 17-9 41.5-5.4 60 3.6 18 27.9 34.4 27.9 53.4z"/><path class="f" d="m460.3 293.1q0 0-0.5-0.9-0.6-0.9-1.4-2.4c-1.1-2.1-2.8-5.2-4.7-9.1-3.8-7.8-8.8-18.7-13.7-31-4.8-12.4-8.5-23.8-10.9-32.1-1.2-4.2-2.1-7.6-2.7-9.9q-0.4-1.6-0.6-2.7-0.3-1-0.2-1 0 0 0.4 0.9 0.3 1.1 0.8 2.7c0.8 2.4 1.8 5.8 3 9.8 2.6 8.2 6.4 19.6 11.2 31.9 4.8 12.3 9.7 23.2 13.4 31.1 1.8 3.8 3.3 6.9 4.4 9.2q0.7 1.5 1.2 2.5 0.4 0.9 0.3 1z"/><path class="f" d="m486.7 283c-0.1 0.1-0.3-0.7-0.8-2.2-0.4-1.4-1-3.5-1.6-6.1-1.3-5.2-3-12.4-4.5-20.5-1.4-8-2.5-15.3-3.1-20.7-0.3-2.6-0.5-4.8-0.6-6.3-0.1-1.5-0.2-2.3-0.1-2.3 0.1 0 0.2 0.8 0.5 2.3q0.4 2.5 0.9 6.2c0.8 5.3 2 12.6 3.5 20.7 1.4 8 3 15.2 4.1 20.4q0.8 3.7 1.3 6.2c0.3 1.5 0.5 2.3 0.4 2.3z"/><path class="f" d="m533.2 278.4c-0.3 0-1-22.4-1.7-50.1-0.6-27.7-0.9-50.1-0.6-50.1 0.3 0 1.1 22.4 1.7 50.1 0.6 27.7 0.9 50.1 0.6 50.1z"/><path class="f" d="m580 232.3c0.3 0.1-3 11.3-7.2 25.1-4.3 13.7-8 24.8-8.2 24.7-0.3-0.1 2.9-11.3 7.2-25 4.2-13.8 7.9-24.9 8.2-24.8z"/><path class="f" d="m599.1 290.3q-0.1 0 0.2-1 0.4-1 0.9-2.6c0.8-2.3 2.1-5.6 3.6-9.6 3.2-8.1 7.7-19.2 12.8-31.4 5.1-12.2 9.9-23.2 13.4-31.1 1.7-3.8 3.1-7 4.2-9.3q0.7-1.5 1.2-2.6 0.4-0.8 0.5-0.8 0 0-0.3 0.9-0.5 1.1-1.1 2.6c-0.9 2.4-2.3 5.6-3.9 9.5-3.4 8.1-8 19.1-13.1 31.2-5 12.2-9.6 23.1-13 31.3-1.6 3.9-2.9 7.1-3.9 9.5q-0.6 1.5-1.1 2.5-0.4 0.9-0.4 0.9z"/><path class="f" d="m624.1 303.3c-0.1 0 0.3-0.7 1.1-2 0.8-1.3 2-3.1 3.5-5.3 3-4.4 7.3-10.5 12.3-16.9 5.1-6.5 9.9-12.1 13.4-16.1 1.8-2 3.3-3.6 4.3-4.7 1.1-1.1 1.7-1.6 1.7-1.6 0.1 0.1-0.4 0.7-1.4 1.9q-1.6 2-4 4.9c-3.4 4.1-8.1 9.8-13.1 16.2-5.1 6.5-9.4 12.4-12.6 16.7q-2.2 3-3.7 5.1c-0.9 1.2-1.5 1.9-1.5 1.8z"/><path class="f" d="m660.4 333.1c-0.2-0.2 15.7-15.2 35.4-33.5 19.7-18.4 35.8-33.1 36-32.9 0.2 0.2-15.6 15.3-35.3 33.6-19.7 18.4-35.9 33.1-36.1 32.8z"/><path class="f" d="m724 339.4c0 0.1-2.3 1.3-6.1 3.2-3.7 2-8.8 4.8-14.5 8-5.6 3.2-10.8 5.9-14.7 7.7-1.9 0.9-3.4 1.6-4.6 2-1.1 0.5-1.7 0.7-1.7 0.6-0.1-0.1 2.3-1.3 6-3.3 3.8-1.9 8.9-4.7 14.5-7.9 5.7-3.2 10.9-5.9 14.7-7.7 1.9-0.9 3.5-1.6 4.6-2.1 1.1-0.4 1.7-0.6 1.8-0.5z"/><path class="f" d="m782.8 363.7c0.1 0.3-18.8 7.2-42.1 15.4-23.3 8.2-42.3 14.7-42.4 14.4-0.1-0.3 18.7-7.2 42.1-15.4 23.3-8.2 42.3-14.6 42.4-14.4z"/><path class="f" d="m801.5 470.7c0 0.3-20.5-1.4-45.7-3.8-25.3-2.5-45.7-4.6-45.6-4.9 0-0.3 20.4 1.4 45.7 3.8 25.2 2.4 45.6 4.6 45.6 4.9z"/><path class="f" d="m786.4 566.6c-0.1 0.3-19.2-8.5-42.7-19.6-23.5-11.1-42.4-20.3-42.3-20.6 0.1-0.2 19.3 8.5 42.7 19.6 23.5 11.1 42.5 20.3 42.3 20.6z"/><path class="f" d="m723.5 657.9c-0.2 0.1-14-15.9-30.8-35.8-16.9-19.9-30.3-36.3-30.1-36.4 0.2-0.2 14 15.8 30.8 35.7 16.9 20 30.3 36.3 30.1 36.5z"/><path class="f" d="m670.9 669.9c0 0-0.6-0.8-1.6-2.2-1.1-1.5-2.5-3.7-4.2-6.4-3.5-5.4-8.2-13-13.1-21.5-4.9-8.5-9.1-16.3-12.1-22.1-1.4-2.8-2.6-5.1-3.4-6.8-0.7-1.6-1.1-2.5-1.1-2.5 0.1-0.1 0.6 0.8 1.5 2.3q1.5 2.7 3.7 6.7c3.1 5.6 7.4 13.4 12.3 21.9 4.9 8.5 9.5 16.1 12.8 21.6q2.4 4 3.9 6.5c0.9 1.6 1.4 2.5 1.3 2.5z"/><path class="f" d="m638.3 715.8q-0.1 0-0.5-0.8-0.6-1-1.3-2.5c-1.2-2.1-2.7-5.2-4.6-9.1-3.6-7.8-8.4-18.7-12.9-31.1-4.5-12.3-7.9-23.7-10.1-32-1.1-4.2-1.9-7.6-2.4-9.9q-0.3-1.7-0.6-2.8-0.1-0.9-0.1-0.9 0.1 0 0.3 0.9 0.4 1.1 0.8 2.7c0.7 2.4 1.6 5.7 2.7 9.8 2.4 8.2 5.9 19.6 10.4 31.9 4.5 12.3 9.1 23.2 12.6 31.1 1.7 3.8 3.2 6.9 4.2 9.3q0.7 1.5 1.2 2.5 0.3 0.9 0.3 0.9z"/><path class="f" d="m572.2 683.6c-0.2 0-0.4-2.6-0.9-6.9-0.5-4.3-1.2-10.3-2.3-16.8-1.1-6.5-2.3-12.3-3.3-16.5-0.9-4.3-1.6-6.9-1.4-6.9 0 0 0.3 0.6 0.7 1.7 0.4 1.2 0.9 2.9 1.4 5 1.2 4.2 2.5 10 3.6 16.6 1.1 6.5 1.8 12.5 2 16.8 0.2 2.2 0.2 3.9 0.2 5.1 0.1 1.2 0 1.9 0 1.9z"/><path class="f" d="m528.9 741.2q-0.1 0-0.1-1 0-1.2 0-3c-0.1-2.5 0-6.2 0-10.8 0.2-9.1 0.6-21.7 1.3-35.6 0.8-13.9 1.7-26.5 2.4-35.6 0.4-4.6 0.7-8.3 1-10.8q0.2-1.7 0.3-2.9 0.1-1 0.2-1 0 0 0 1-0.1 1.2-0.1 2.9c-0.2 2.7-0.4 6.4-0.7 10.8-0.5 9.3-1.2 21.8-2 35.6-0.7 13.9-1.3 26.5-1.6 35.6-0.2 4.5-0.3 8.1-0.4 10.8q-0.1 1.8-0.2 3 0 1-0.1 1z"/><path class="f" d="m493.7 640.5c0.2 0 0 1.9-0.6 5.1-0.5 3.1-1.3 7.4-2.4 12.1-1.1 4.7-2.3 8.9-3.2 12-0.9 3-1.6 4.9-1.7 4.8-0.2 0 0.2-1.9 1-5 0.8-3.5 1.8-7.5 2.9-12 1-4.5 1.9-8.6 2.7-12.1 0.7-3.1 1.2-5 1.3-4.9z"/><path class="f" d="m430.2 609.9c0.2 0.2-3.7 5.7-8.8 12.4-5 6.7-9.3 12-9.6 11.8-0.2-0.2 3.7-5.7 8.8-12.4 5-6.7 9.3-12 9.6-11.8z"/><path class="f" d="m396.8 587.5c0.2 0.2-12.2 14.8-27.7 32.6-15.5 17.8-28.3 32-28.5 31.8-0.2-0.2 12.2-14.7 27.7-32.5 15.5-17.8 28.3-32.1 28.5-31.9z"/><path class="f" d="m380.1 562.7c0.2 0.2-6.7 6.2-15.4 13.4-8.7 7.2-15.9 12.8-16.1 12.6-0.2-0.2 6.7-6.2 15.4-13.4 8.7-7.2 15.9-12.8 16.1-12.6z"/><path class="f" d="m360.6 525.3c0.1 0.2-17.2 8.8-38.6 19.2-21.5 10.3-38.9 18.5-39.1 18.2-0.1-0.2 17.2-8.8 38.6-19.2 21.5-10.3 39-18.5 39.1-18.2z"/><path class="f" d="m352.8 506.6c0 0.1-0.7 0.3-1.8 0.5-1.2 0.3-2.9 0.7-5 1.1-4.3 0.8-10.1 1.6-16.6 2.3-6.6 0.6-12.5 0.9-16.8 1-2.1 0-3.9 0-5.1 0-1.2 0-1.8-0.1-1.8-0.2 0-0.1 2.6-0.3 6.9-0.5 4.3-0.3 10.2-0.7 16.7-1.3 6.4-0.7 12.3-1.5 16.6-2.1 4.2-0.6 6.8-0.9 6.9-0.8z"/><path class="f" d="m346.4 463.5c0 0.1-1.2 0.1-3.5-0.1-2.4-0.1-5.6-0.2-9.5-0.4-8-0.4-19.1-0.8-31.4-0.7-12.3 0-23.4 0.5-31.4 1-3.9 0.2-7.1 0.4-9.5 0.6-2.2 0.1-3.5 0.2-3.5 0.1 0-0.1 1.2-0.3 3.5-0.5 2.2-0.3 5.5-0.6 9.5-0.9 8-0.7 19.1-1.3 31.4-1.4 12.3 0 23.4 0.4 31.5 1 4 0.3 7.2 0.6 9.5 0.8 2.2 0.3 3.4 0.5 3.4 0.5z"/><path class="f" d="m350.3 425.7c0 0.3-13-3.1-28.9-7.6-15.9-4.4-28.7-8.2-28.6-8.5 0.1-0.3 13 3.1 28.9 7.5 15.9 4.5 28.7 8.3 28.6 8.6z"/><path class="f" d="m358.7 393.9q0 0.1-0.9-0.2-1.1-0.3-2.7-0.8c-2.3-0.7-5.6-1.8-9.6-3.3-8.1-2.9-19.1-7.4-30.8-13.2-11.8-5.8-22-11.7-29.3-16.4-3.6-2.3-6.5-4.2-8.5-5.6q-1.3-0.9-2.2-1.6-0.8-0.5-0.7-0.6 0 0 0.8 0.5 1 0.5 2.4 1.4c2 1.3 4.9 3.1 8.6 5.3 7.3 4.5 17.6 10.3 29.3 16.1 11.8 5.8 22.7 10.3 30.7 13.5 4 1.5 7.2 2.7 9.5 3.6q1.5 0.5 2.5 0.9 0.9 0.4 0.9 0.4z"/><path class="f" d="m377.5 362.1c-0.1 0.2-10.2-6.7-22.6-15.3-12.3-8.7-22.1-15.9-22-16.2 0.2-0.2 10.3 6.6 22.6 15.3 12.4 8.7 22.2 15.9 22 16.2z"/><path class="f" d="m337.8 264.8q0 0 0.7 0.6 0.8 0.7 2 1.7c1.9 1.7 4.4 3.9 7.4 6.6 6.3 5.6 14.8 13.2 24.2 21.6 9.5 8.3 18 15.9 24.4 21.5 3 2.7 5.5 4.9 7.3 6.5q1.2 1.1 2 1.8 0.7 0.7 0.6 0.7 0 0.1-0.8-0.5-0.8-0.7-2-1.7c-1.9-1.4-4.4-3.6-7.6-6.3-6.4-5.3-15.1-12.8-24.6-21.2-9.4-8.5-17.9-16.2-24-21.9-3-2.8-5.5-5.1-7.1-6.8q-1.2-1.1-1.9-1.9-0.7-0.6-0.6-0.7z"/><path class="f" d="m400.1 266.7c0.1-0.1 0.6 0.4 1.4 1.3 0.8 1 2 2.4 3.4 4.1 2.8 3.5 6.5 8.4 10.3 14 3.8 5.6 7.1 10.8 9.3 14.7 1.1 1.9 2 3.5 2.5 4.6 0.6 1.1 0.9 1.7 0.8 1.7-0.1 0.1-1.6-2.2-3.9-5.9-2.4-3.8-5.7-8.9-9.6-14.5-3.8-5.6-7.4-10.6-10-14.2-2.6-3.5-4.3-5.8-4.2-5.8z"/><g style="opacity:.2"><path  d="m364.4 236.9c10.1-2.9 14-5.7 14-5.7l50.4 77.3-21.6 17.3-87-76.2c5.8-9.2 34.5-9.9 44.2-12.7z"/></g><g style="opacity:.2"><path  d="m462.6 190.6c10.4 1.3 15 0.2 15 0.2l9.1 92.2-27.2 8.5-42.4-106.3c11.1-5.4 35.4 4.1 45.5 5.4z"/></g><g style="opacity:.3"><path  d="m569.4 184.8c7.9 5 14.5 6.2 15 6.2l-25.8 88.6-25.4-1.2-2.9-115.5c12.4-0.9 30.3 16.3 39.1 21.9z"/></g><g style="opacity:.2"><path  d="m669.1 217.5c5.1 8.2 10.6 12.8 11.1 13l-58.1 71.7-23-11 42.2-106.4c12.9 3.5 22.3 23.8 27.8 32.7z"/></g><g style="opacity:.2"><path  d="m751.1 290.5c1.9 9.9 5.1 15 5.1 15l-76.9 51.3-17.5-23.7 78.7-81.9c8.5 11.2 8.8 29.4 10.6 39.3z"/></g><g style="opacity:.2"><path  d="m798.2 391.1c-1.2 10.4-0.6 13.2-0.6 13.2l-92.2 10-8.8-27 105.9-43.6c7.4 14.9-3.1 37.4-4.3 47.4z"/></g><g style="opacity:.2"><path  d="m801.1 503.8c-2.6 5.1-3.4 10.1-3.5 10.5l-88-25.7 0.9-25.5 115.5-4c0 15.2-18.4 32.5-24.9 44.7z"/></g><g style="opacity:.2"><path  d="m772.5 597.7c-8.1 5.2-12.3 9.1-12.5 9.6l-72.3-57.4 10.7-23.1 106.3 41.4c-2.4 14.8-23.4 23.9-32.2 29.5z"/></g><g style="opacity:.2"><path  d="m735.4 671.4c-14.3 9.4-39.6 5.6-53.8 15.1-0.3 0.2-0.6 0.5-0.9 0.7-21.6-36.8-56.7-96.4-58.7-98.5l26.4-22.1z"/><path  d="m649.4 728.7c-1.9 1.7-4.1 3.1-6.4 4.1-17 7-41.5-9.1-60-5.4q-1.8 0.4-3.7 1l-18.6-106.6 39.3-13.4z"/><path  d="m476.2 727.4q-0.4-0.1-0.9-0.2l25.3-119.9 33.9 8.6-6.2 139.3c-18.5-1.1-34.5-24.4-52.1-27.8z"/><path  d="m481.4 614.9l-62.7 118.7q-1.2-0.3-2.4-0.8c-17.4-7.2-23.2-36-38.6-46.3q-1.5-1-3.2-1.8c23.5-32.4 68.4-92.5 68.4-92.5z"/><path  d="m421 562.7c-2.2 2.4-62.9 70.8-96.7 108.9-1.5-0.9-2.9-1.9-4.1-3.1-13.2-13.2-7.6-41.9-18-57.5-0.3-0.5-0.7-0.9-1.1-1.4l95.7-65.8z"/><path  d="m383.2 514.3c-3.5 0.3-86.2 41.3-125.8 61q-0.8-1.4-1.5-2.9c-6.7-16.2 7.6-39.1 5.8-57.3l113.2-18.3z"/><path  d="m364.4 462.9h-130.6q-0.3-1.9-0.3-3.8c0-19 24.3-35.4 27.8-53.4q0.3-1.4 0.4-2.8l107 30.9z"/><path  d="m302.2 307.1c0.4-0.6 0.8-1.4 1.2-2.1l90.4 68.1-19.3 36.5c0 0-78.2-43.3-118.1-64.7 7.7-16.7 35.6-22.6 45.8-37.8z"/></g><path class="f" d="m825.8 459.1q0 0-0.1-1.3c-0.1-0.8-0.1-2.1-0.5-3.7-0.7-3.3-2.5-8-6-13.4-3.5-5.5-8.7-11.7-14.1-19.5-2.7-4-5.4-8.4-6.9-13.7-1.4-5.4-1.2-11.4 0-17.5 1.1-6.1 2.9-12.3 4.5-19 1.5-6.6 3.1-13.9 1.6-21.2-0.8-3.7-2.5-7.1-5-10.2-2.5-3-5.6-5.5-8.9-7.8-6.6-4.8-14.3-8.5-21.6-13.4-3.6-2.5-7.2-5.3-10.2-8.8-3-3.5-4.9-7.8-6.2-12.3-2.6-9.1-3.2-18.9-5.1-28.6-1-4.8-2.3-9.7-4.9-14.1-2.6-4.4-6.6-7.8-11.4-9.9-4.8-2.1-10-3.2-15.3-4-5.3-0.9-10.8-1.5-16.2-2.5-5.4-1-11-2.3-16-5.1-5.1-2.7-9.1-7.2-12.4-11.9-3.3-4.8-6.1-9.9-9.2-14.9-3-5.1-6.2-10.1-10.4-14.4-4.1-4.3-9.7-7.4-15.7-7.8-6.1-0.4-12.3 0.7-18.3 2.2-6.1 1.4-12.2 3.2-18.5 4.4-6.3 1.2-13 1.6-19.3-0.4-6.3-2.1-11.8-5.9-17.1-9.8-5.3-4-10.5-8.1-16.2-11.6-5.7-3.3-12.2-6.1-18.9-5.4l-1.3 0.1q-0.6 0.1-1.2 0.3c-0.8 0.2-1.6 0.3-2.4 0.6-1.6 0.5-3.3 1-4.8 1.8-3.1 1.4-6 3.3-8.8 5.1-5.7 3.9-11.1 8.4-16.9 12.4-2.9 2-6 3.8-9.2 5.3-3.3 1.4-6.8 2.3-10.5 2.6-7.2 0.4-14.3-1.3-21.3-3-7-1.8-14-3.8-21.2-4.5-3.6-0.3-7.2-0.1-10.7 0.7-3.5 0.9-6.7 2.9-9.4 5.2-5.6 4.8-9.4 11.3-13.2 17.7-3.9 6.4-7.5 13-12.6 18.8-2.5 2.8-5.5 5.4-9 7.1-3.4 1.7-7.1 2.9-10.9 3.8-7.5 1.6-15.2 2.3-22.8 3.7-7.4 1.3-15.2 3.5-20.8 8.9-2.6 2.7-4.5 6.1-5.9 9.7-1.4 3.6-2.2 7.5-2.9 11.3-1.4 7.8-2.1 15.7-3.9 23.5-0.9 3.9-2.3 7.7-4.3 11.2-2 3.6-4.8 6.6-8 9.1-6.3 5.1-13.5 8.8-20.4 13-3.4 2.2-6.8 4.4-9.9 6.9-3.1 2.6-5.8 5.6-7.7 9.1-2 3.4-2.9 7.5-2.8 11.5 0 4 0.6 8.1 1.4 12.1 1.7 7.9 4.2 15.8 5.6 24 0.7 4.1 0.9 8.4 0.4 12.6-0.6 4.2-2.2 8.1-4.2 11.8-4.2 7.3-9.6 13.7-14.4 20.5-2.5 3.4-4.7 7-6.5 10.7-1.7 3.8-3 7.8-3 11.9 0 4.2 1.2 8.2 3 12 1.7 3.7 4 7.2 6.4 10.6 4.8 6.8 10.3 13.3 14.5 20.6 2 3.6 3.6 7.6 4.2 11.8 0.5 4.2 0.3 8.4-0.4 12.5-1.4 8.3-3.9 16.1-5.6 24.1-0.8 4-1.4 8.1-1.4 12.1-0.1 4 0.8 8.1 2.7 11.5 1.9 3.5 4.7 6.5 7.8 9.1 3.1 2.5 6.5 4.8 9.9 6.9 6.9 4.2 14 7.9 20.4 13 3.1 2.5 6 5.6 8 9.1 2 3.5 3.4 7.4 4.3 11.2 1.8 7.8 2.5 15.8 3.9 23.5 0.7 3.8 1.5 7.7 2.9 11.3 1.4 3.6 3.2 7 5.9 9.8 5.5 5.4 13.3 7.5 20.8 8.9 7.6 1.3 15.3 2 22.8 3.7 3.7 0.9 7.4 2 10.9 3.7 3.5 1.8 6.5 4.3 9 7.1 5.1 5.8 8.7 12.5 12.6 18.9 3.8 6.3 7.6 12.8 13.2 17.6 2.7 2.4 5.9 4.4 9.4 5.2 3.5 0.9 7.1 1 10.7 0.7 7.2-0.7 14.2-2.7 21.2-4.4 7-1.8 14.1-3.4 21.4-3.1 3.6 0.3 7.1 1.2 10.4 2.7 3.2 1.5 6.3 3.3 9.2 5.3 5.8 4 11.2 8.4 16.9 12.3 2.8 1.9 5.7 3.8 8.8 5.2 1.6 0.7 3.2 1.2 4.8 1.8 0.8 0.2 1.6 0.4 2.4 0.6 0.4 0.1 0.8 0.2 1.3 0.2l1.2 0.1c6.7 0.8 13.2-2 18.9-5.4 5.7-3.4 10.9-7.6 16.2-11.5 5.3-3.9 10.8-7.7 17.1-9.9 6.3-2 13.1-1.6 19.3-0.3 6.3 1.2 12.4 2.9 18.5 4.4 6 1.4 12.2 2.6 18.3 2.1 6.1-0.4 11.6-3.4 15.7-7.7 4.2-4.3 7.4-9.4 10.4-14.4 3.1-5.1 5.9-10.2 9.2-15 3.4-4.7 7.3-9.1 12.4-11.9 5-2.8 10.6-4.1 16-5 5.5-1 10.9-1.6 16.2-2.5 5.3-0.9 10.5-2 15.3-4.1 4.8-2.1 8.9-5.5 11.4-9.9 2.6-4.3 3.9-9.2 4.9-14.1 2-9.7 2.5-19.4 5.1-28.5 1.3-4.5 3.2-8.9 6.3-12.4 2.9-3.5 6.5-6.3 10.2-8.7 7.3-4.9 14.9-8.7 21.5-13.4 3.3-2.4 6.4-4.9 8.9-7.9 2.5-3 4.2-6.5 5-10.1 0.8-3.7 0.6-7.4 0.3-10.9-0.4-3.6-1.2-7-1.9-10.4-1.6-6.6-3.4-12.9-4.5-19-1.2-6.1-1.4-12.1 0-17.4 1.5-5.3 4.3-9.8 6.9-13.7 5.4-7.8 10.6-14 14.1-19.5 3.5-5.5 5.3-10.2 6-13.4 0.4-1.7 0.4-2.9 0.5-3.8q0.1-1.2 0.1-1.2 0 0-0.1 1.2c-0.1 0.9 0 2.2-0.4 3.8-0.6 3.3-2.4 8-6 13.5-3.4 5.5-8.6 11.7-13.9 19.6-2.7 3.9-5.4 8.3-6.8 13.6-1.5 5.2-1.2 11.2 0 17.2 1.1 6.1 2.9 12.4 4.5 19 0.8 3.4 1.6 6.8 2 10.4 0.3 3.6 0.5 7.3-0.3 11.1-0.8 3.7-2.6 7.2-5.1 10.3-2.5 3.1-5.6 5.6-9 8-6.6 4.8-14.3 8.6-21.5 13.5-3.6 2.4-7.2 5.1-10.1 8.6-2.9 3.4-4.8 7.7-6.1 12.1-2.5 9-3.1 18.8-5.1 28.5-0.9 4.9-2.3 9.9-4.9 14.4-2.6 4.5-6.9 8-11.7 10.1-4.9 2.2-10.2 3.3-15.5 4.2-5.3 0.9-10.7 1.5-16.2 2.5-5.4 1-10.9 2.2-15.8 5-4.9 2.6-8.7 7-12 11.7-3.3 4.7-6.2 9.8-9.2 14.9-3 5-6.3 10.1-10.5 14.5-4.2 4.4-10 7.6-16.3 8-6.2 0.5-12.4-0.7-18.5-2.1-6.1-1.5-12.2-3.2-18.4-4.4-6.2-1.2-12.8-1.6-18.9 0.3-6.1 2.1-11.6 5.9-16.9 9.8-5.3 3.9-10.5 8.1-16.2 11.6-1.5 0.8-3 1.7-4.5 2.4-0.8 0.4-1.6 0.7-2.3 1.1l-2.5 0.8c-3.2 1-6.7 1.7-10.2 1.2l-1.3-0.1c-0.4 0-0.8-0.2-1.3-0.2-0.8-0.2-1.7-0.4-2.5-0.6-1.6-0.6-3.3-1.1-4.8-1.9-3.2-1.4-6.1-3.3-9-5.2-5.8-3.9-11.2-8.4-16.9-12.3-2.9-2-6-3.8-9.1-5.3-3.2-1.4-6.6-2.3-10.1-2.5-7-0.4-14.1 1.2-21 3-7 1.7-14.1 3.8-21.4 4.5-3.7 0.3-7.4 0.1-11.1-0.8-3.7-0.8-6.9-2.9-9.8-5.3-5.7-5-9.5-11.5-13.4-17.9-3.8-6.4-7.4-13.1-12.4-18.7-2.5-2.8-5.4-5.2-8.7-6.9-3.4-1.7-7-2.8-10.7-3.6-7.5-1.7-15.1-2.4-22.8-3.8-3.8-0.7-7.6-1.5-11.3-2.9-3.6-1.4-7.1-3.4-10-6.2-2.8-2.9-4.7-6.5-6.1-10.2-1.5-3.7-2.3-7.6-3-11.4-1.4-7.8-2.1-15.7-3.9-23.4-0.9-3.9-2.2-7.6-4.2-11-1.9-3.4-4.7-6.3-7.8-8.8-6.2-5-13.3-8.7-20.2-12.9-3.5-2.2-6.9-4.4-10.1-7-3.1-2.6-6-5.7-8-9.4-2-3.6-2.9-7.8-2.9-12 0-4.1 0.6-8.2 1.5-12.3 1.7-8 4.2-15.9 5.5-24 0.7-4.1 1-8.2 0.4-12.2-0.5-4.1-2.1-7.9-4.1-11.5-4.1-7.2-9.5-13.6-14.3-20.5-2.5-3.4-4.8-7-6.6-10.8-1.8-3.8-3-8-3.1-12.4 0.1-4.3 1.4-8.5 3.2-12.3 1.8-3.9 4.1-7.5 6.5-10.9 4.9-6.8 10.3-13.2 14.4-20.4 2-3.6 3.5-7.4 4-11.5 0.6-4 0.3-8.2-0.4-12.2-1.3-8.1-3.8-16-5.5-24-0.9-4.1-1.5-8.2-1.5-12.3 0-4.2 0.9-8.4 2.9-12 2-3.7 4.9-6.7 8.1-9.4 3.1-2.6 6.5-4.8 10-6.9 6.9-4.3 14.1-8 20.3-13 3.1-2.5 5.8-5.4 7.7-8.8 2-3.4 3.3-7.1 4.2-11 1.8-7.7 2.5-15.6 3.9-23.3 0.7-3.9 1.5-7.8 3-11.5 1.4-3.7 3.3-7.3 6.1-10.2 2.9-2.8 6.4-4.7 10.1-6.1 3.6-1.5 7.5-2.3 11.3-3 7.6-1.4 15.3-2.1 22.7-3.7 3.7-0.9 7.3-2 10.7-3.6 3.3-1.7 6.2-4.2 8.7-7 5-5.6 8.6-12.2 12.4-18.6 3.9-6.4 7.7-13 13.4-17.9 2.9-2.4 6.1-4.5 9.8-5.4 3.7-0.9 7.4-1 11.1-0.7 7.3 0.7 14.4 2.7 21.3 4.4 7 1.8 14.1 3.4 21.1 3.1 3.5-0.3 6.9-1.1 10.1-2.6 3.1-1.5 6.2-3.2 9-5.2 5.8-3.9 11.2-8.4 17-12.3 2.9-1.9 5.8-3.8 9-5.2 1.5-0.8 3.2-1.3 4.8-1.9 0.8-0.3 1.7-0.4 2.5-0.6q0.7-0.2 1.3-0.3l1.3-0.1c3.5-0.4 7 0.2 10.2 1.2l2.4 0.9c0.8 0.3 1.6 0.7 2.4 1 1.5 0.7 3 1.6 4.4 2.4 5.8 3.6 11 7.7 16.3 11.7 5.3 3.9 10.8 7.6 16.8 9.7 6.2 1.9 12.7 1.6 18.9 0.3 6.3-1.1 12.4-2.9 18.5-4.4 6.1-1.4 12.3-2.6 18.5-2.1 6.3 0.4 12.1 3.6 16.3 8 4.2 4.4 7.4 9.5 10.5 14.6 3 5 5.9 10.1 9.2 14.9 3.2 4.7 7.1 9 12 11.7 4.9 2.7 10.4 4 15.8 5 5.4 0.9 10.9 1.6 16.2 2.4 5.3 0.9 10.6 2 15.5 4.2 4.8 2.1 9.1 5.6 11.7 10.1 2.6 4.5 3.9 9.5 4.9 14.4 2 9.8 2.6 19.5 5.1 28.5 1.3 4.5 3.2 8.7 6.1 12.1 2.9 3.5 6.5 6.2 10.1 8.7 7.2 4.9 14.9 8.7 21.5 13.4 3.3 2.4 6.5 5 9 8 2.5 3.1 4.3 6.7 5.1 10.4 0.8 3.7 0.6 7.4 0.3 11-0.4 3.6-1.2 7.1-2 10.4-1.6 6.7-3.4 12.9-4.5 19-1.2 6-1.5 12 0 17.3 1.4 5.2 4.1 9.7 6.8 13.6 5.3 7.8 10.5 14 13.9 19.6 3.6 5.5 5.4 10.2 6 13.5 0.4 1.6 0.3 2.9 0.4 3.7q0.1 1.3 0.1 1.3z"/><path class="j" d=""/><path class="f" d="m474.1 733.9c0.3 0.1-7.1 30-16.5 66.9-9.4 36.8-17.2 66.6-17.5 66.6-0.3-0.1 7.1-30 16.5-66.9 9.4-36.8 17.2-66.7 17.5-66.6z"/><path class="b" d="m711.2 459.1c0 100.2-81.3 181.5-181.6 181.5-100.2 0-181.5-81.3-181.5-181.5 0-100.3 81.3-181.6 181.5-181.6 100.3 0 181.6 81.3 181.6 181.6z"/><path class="h" d="m469.3 370.4l8.5-20.2 95.9-22.4 14.4 23.3 61.3 15 17.7 151-6 71.4c-107 95.3-225.8 38.4-258.5 0.2l-0.6-7.7c0 0-2.9-116-1.7-136.6 1.3-20.7 15-45.7 17.5-48.2z"/><path class="f" d="m554.8 219.8c-2.2-16.7-0.8-34.2 6.9-49.2 0.8-1.5-4.4-15.7-2.7-16 2.5-0.4 10.6 14.7 11.5 17 6.5 14.9 7.8 31.6 6.4 47.8-1.5 16.2-5.6 32-9.9 47.7-5.7-15.8-10-30.7-12.2-47.3z"/><path class="k" d="m575.2 336.9l-77.4 48-16.7-18.2c0 0-1.8-25.5-1.8-25.5 0 0-39.6-2-44.1-40.8-2.3-18.7-3.7-57.7-4.5-93-1-38 27.4-70.3 65.2-74.3l3.7-0.4c40.7-1.9 65.1 31.6 65.8 72.4z"/><path class="l" d="m479.3 341.5c0 0 24.6-1.1 49-20.3 0 0-8.2 35.2-47.3 35.8z"/><path class="f" d="m458.2 233.4c3.1-0.1 5.8 2.1 6 5.1 0.2 2.9-2.2 5.4-5.2 5.6-3.1 0.1-5.8-2.1-6-5.1-0.2-2.9 2.2-5.4 5.2-5.6z"/><path class="f" d="m442.5 219.3c1.6-1.5 4.6-3.2 8.3-3.7 3.8-0.4 7.1 0.6 9.1 1.8 2.1 1.2 2.9 2.5 2.6 2.8-0.5 0.8-5.2-1.8-11.2-1.1-6 0.6-9.9 4.2-10.6 3.5-0.4-0.3 0.1-1.6 1.8-3.3z"/><path class="f" d="m511 228.9c3.1-0.1 5.8 2.1 6 5.1 0.2 2.9-2.2 5.4-5.2 5.6-3.1 0.1-5.8-2.1-6-5.1-0.2-2.9 2.1-5.4 5.2-5.6z"/><path class="f" d="m501.3 215.6c1.6-1.6 4.6-3.3 8.3-3.7 3.7-0.4 7.1 0.6 9.1 1.8 2.1 1.2 2.9 2.4 2.6 2.8-0.5 0.8-5.3-1.9-11.2-1.2-6 0.7-9.9 4.2-10.6 3.6-0.4-0.3 0.1-1.7 1.8-3.3z"/><path class="f" d="m473 268.1c-0.7 0-1.6 0.1-2.6-0.1-1-0.2-2.2-0.9-2.7-2-1.1-2.2-0.3-4.3 0.1-6.1q1.5-5.8 3.1-12.1c4.5-17.2 8.8-31 9.5-30.8 0.6 0.1-2.5 14.2-7 31.4q-1.7 6.4-3.3 12.1c-0.5 1.9-1 3.6-0.5 4.6 0.4 1.1 1.8 1.2 3.4 1.2 6.1 0.1 9.9 0.4 9.9 0.7 0 0.4-3.8 0.7-9.9 1.1z"/><path class="f" d="m502.3 273.5c0 2.7-1 6.6-4.1 9.8-3.1 3.2-7.2 4.5-10.1 4.7-2.9 0.3-4.6-0.4-4.6-0.8 0-1 7-1 12-6.2 5.1-5.2 4.4-11.6 5.4-11.7 0.4-0.1 1.3 1.5 1.4 4.2z"/><path class="f" d="m500.5 191.1c2.5-1.3 6.3-2.4 10.5-2.3 4.3 0 8 1.1 10.5 2.4 2.4 1.4 3.6 2.8 3.2 3.5-0.7 1.6-6.6 0.1-13.7 0.2-7.1-0.2-13 1.2-13.8-0.3-0.3-0.8 0.9-2.2 3.3-3.5z"/><path class="f" d="m442.5 198.8c1.6-1.5 4.4-3.1 7.8-3.5 3.4-0.5 6.6 0.2 8.5 1.3 2 1.1 2.8 2.4 2.4 3.1-0.8 1.6-5.1 0.8-10 1.6-5 0.6-9 2.4-10.1 1.2-0.6-0.6-0.2-2.1 1.4-3.7z"/><path class="k" d="m565.3 234.2c0.6-0.3 25.9-10.7 27.8 16 2 26.6-25.2 23.1-25.3 22.3-0.1-0.7-2.5-38.3-2.5-38.3z"/><path class="l" d="m575.2 261.8c0.1-0.1 0.5 0.3 1.3 0.6 0.8 0.3 2.1 0.5 3.5-0.2 2.7-1.2 4.8-5.8 4.6-10.7-0.1-2.4-0.8-4.7-1.8-6.5-1-1.9-2.3-3.2-3.8-3.3-1.4-0.3-2.4 0.7-2.6 1.4-0.3 0.8-0.1 1.3-0.3 1.4 0 0.1-0.6-0.4-0.4-1.5 0-0.6 0.3-1.2 0.9-1.8 0.6-0.5 1.5-0.9 2.5-0.8 2.1-0.1 4.1 1.7 5.2 3.7 1.2 2.1 2 4.6 2.1 7.4 0.2 5.3-2.1 10.6-5.9 12-1.9 0.6-3.5 0.1-4.3-0.4-0.9-0.6-1.1-1.2-1-1.3z"/><path class="f" d="m445.1 162c-4.5-2.1 7.6-16.9 17.9-22.4 15.6-8.3 39.8-14.4 54.8-11.1 18.2 3.9 33.5 11.8 43.5 27.4 10 15.7 14.6 34.3 15.2 52.9 0.2 5.6 0 11.5-2.7 16.5-3.3 6.1-10.2 10.3-9.4 18.4 0.3 3-0.3 6.1-2.2 8.4-4.6 5.5-10.9 1-13.9-3.7-6.6-10.1-8-22.5-9.3-34.5-0.9-8.5-1.8-17.2 0-25.5 1-4.5 2.9-8.9 3.6-13.4 0.8-4.6 0.3-9.7-2.7-13.2-0.5-0.6-1.3-1.3-2.3-2.1-8-6.1-18.7-7.4-28-3.5-14.7 6.3-39.8 15.9-46.8 11.2-10.2-6.7-12.8-11.3-12.8-11.3z"/><path class="h" d="m403.5 589.7c-14.8-15.4-28.7-37.2-39.1-53.6l5.2-40.9c0 0 8.3-62 16.5-75.8 8.3-13.8 30.2-21.1 31.7-23.2z"/><g style="opacity:.3"><path  d="m667.1 502.5c-0.4 4.3-0.5 20-0.9 24.3-12.9 0.5-25-1.6-37.2-5.9-4.1-1.5-8.3-3.3-11.2-6.6-2.5-2.8-3.9-6.5-6.7-9.1-2.5-2.4-6-3.5-9.1-5.2-7.3-4.1-12.3-11.5-15.2-19.3-2.8-7.9-3.8-16.3-4.7-24.6z"/></g><path class="h" d="m649.4 366.1c0 0 27.6 8.2 35.6 19.9 8.1 11.8 22.4 57.3 25.4 65.7 2.9 8.5 0.3 28-5.2 42.1-5.5 14.1-15 26.2-31.5 28-16.6 1.8-42.6-7.7-48.5-13.9-5.9-6.3-8.3-20.3-8.3-20.3 7.3-1.3 14.6-3.1 21.6-5.4"/><path class="f" d="m638.5 482.2q0 0-0.3 0.1-0.4 0.2-1.1 0.4-1.3 0.5-4.1 1.3c-3.6 1.1-9 2.6-16.1 3.9l0.3-0.3c0.6 3.1 1.5 6.5 2.8 10.1 0.6 1.8 1.4 3.6 2.4 5.4 0.9 1.8 2.1 3.6 3.7 5 1.5 1.5 3.5 2.6 5.5 3.7 2.1 1.1 4.3 2.1 6.5 3 4.6 1.8 9.5 3.4 14.7 4.6 5.2 1.2 10.7 2.1 16.4 2.1 1.4 0.1 2.9-0.1 4.3-0.2 1.4-0.2 2.9-0.3 4.3-0.7 2.9-0.7 5.7-1.8 8.3-3.3 5.3-2.9 9.7-7.4 13.1-12.8 3.5-5.3 6-11.4 7.8-17.7 1.5-4.9 2.5-9.8 3.2-14.7 0.7-4.9 1.1-9.7 0.7-14.5-0.1-2.4-0.6-4.6-1.4-6.8q-1.1-3.4-2.2-6.7-2.2-6.6-4.3-12.8c-2.8-8.4-5.6-16.3-8.4-23.6-2.9-7.3-5.6-14.2-8.9-19.9-1.6-2.9-3.9-5.1-6.2-7-2.3-1.8-4.8-3.3-7-4.7-4.6-2.6-8.8-4.4-12.3-5.9-3.4-1.4-6.1-2.4-8-3.1q-1.3-0.4-2.1-0.7-0.7-0.2-0.7-0.3 0 0 0.7 0.2 0.8 0.2 2.2 0.6c1.9 0.6 4.6 1.6 8.1 2.9 3.5 1.4 7.7 3.2 12.3 5.8 2.4 1.3 4.8 2.8 7.2 4.7 2.4 1.8 4.7 4.2 6.4 7.1 3.5 5.8 6.2 12.7 9.1 20 2.8 7.3 5.6 15.2 8.5 23.6q2.1 6.2 4.3 12.8 1.1 3.3 2.3 6.7c0.8 2.2 1.3 4.6 1.5 7 0.3 4.9 0 9.8-0.7 14.8-0.7 4.9-1.8 9.9-3.3 14.8-1.8 6.4-4.4 12.5-7.9 18-3.5 5.4-8.1 10.1-13.5 13.1-2.7 1.6-5.6 2.7-8.6 3.3-1.4 0.4-2.9 0.6-4.4 0.8-1.5 0.1-2.9 0.3-4.4 0.2-5.8 0-11.4-1-16.6-2.2-5.3-1.3-10.2-2.9-14.8-4.7-2.3-1-4.5-2-6.5-3.1-2.1-1.1-4.1-2.3-5.8-3.8-1.6-1.6-2.8-3.4-3.8-5.3-0.9-1.8-1.7-3.7-2.3-5.5-1.3-3.6-2.2-7.1-2.8-10.2v-0.3h0.2c7.1-1.3 12.5-2.6 16.1-3.6q2.7-0.8 4.2-1.2 0.6-0.2 1.1-0.3 0.3-0.1 0.3-0.1z"/><path class="f" d="m689.1 467.5c-0.2 0-0.8-3.4-3.1-8.5-2.3-5.1-6.4-11.8-12.5-17.7-3-2.9-6.4-5.2-9.7-6.9q-1.2-0.5-2.4-1c-0.8-0.4-1.6-0.6-2.4-0.8-1.5-0.6-3-0.7-4.4-0.9q-0.5-0.1-1-0.2-0.5 0-1 0-0.9 0-1.7 0c-1.1 0-2.1 0.2-2.8 0.3-1.6 0.2-2.4 0.3-2.5 0.2 0-0.1 0.9-0.3 2.4-0.6 0.8-0.2 1.7-0.5 2.9-0.5q0.8 0 1.8 0 0.4-0.1 0.9-0.1 0.6 0.1 1.1 0.1c1.4 0.2 3 0.3 4.6 0.8 0.8 0.3 1.6 0.4 2.4 0.8q1.3 0.5 2.6 1.1c3.3 1.7 6.8 4 9.9 7 6.3 6 10.3 12.9 12.4 18.1 0.6 1.3 1 2.5 1.3 3.6 0.4 1 0.7 2 0.8 2.7 0.3 1.6 0.5 2.4 0.4 2.5z"/><path class="f" d="m704.1 442.7c-0.2 0.1-0.9-3.5-4.1-8.4-3.1-4.7-9.1-10.7-17.6-13.3-8.4-2.5-16.7-1.7-22.4-1.2q-4.1 0.5-6.9 0.8c-1.6 0.2-2.5 0.3-2.5 0.2 0 0 0.9-0.3 2.5-0.6 1.6-0.3 3.9-0.7 6.8-1.1 5.8-0.8 14.1-1.7 22.8 0.9 4.4 1.4 8.2 3.6 11.1 6.1 3 2.5 5.2 5.3 6.8 7.8 1.6 2.5 2.4 4.8 2.9 6.3 0.5 1.6 0.7 2.5 0.6 2.5z"/><path class="f" d="m683.4 413.1c-0.1 0.4-7.3-1.9-16.4-1.5-9.2 0.3-16.1 3.2-16.2 2.8-0.1-0.1 1.6-1 4.5-1.9 2.9-0.9 7-1.8 11.6-2 4.7-0.1 8.9 0.4 11.8 1.1 3 0.7 4.7 1.4 4.7 1.5z"/><path class="f" d="m638.8 373c0.1 0-0.3 2.8-0.6 7.3-0.3 4.5-0.5 10.8 0.1 17.7 0.6 6.6 1.8 12.5 2.9 16.8l-0.8 0.3c-0.8-2.4-1.4-4.2-1.8-5.5-0.5-1.3-0.7-2.1-0.6-2.1 0.1 0 0.4 0.7 1 1.9 0.5 1.3 1.2 3.1 2.2 5.4l-0.8 0.2c-1.2-4.3-2.5-10.2-3.1-16.9-0.6-7-0.3-13.3 0.2-17.8 0.2-2.3 0.5-4.1 0.8-5.4 0.2-1.2 0.4-1.9 0.5-1.9z"/><path class="k" d="m606 358.3c0 8.2 4.2 20.2 4.2 20.2 0 0 16.4 8.3 20.1 12.4 3.8 4.1 5.4 8.3 4.6 15.8-0.8 7.5 7.8 10.6 10.3 16 2.5 5.4-1.6 17.3-1.2 22.3 0.4 5 4.9 20.6 4.9 20.6 0 0 0 0-0.4 9.5-0.4 9.5-16.5 16.6-16.5 16.6l-9.4-5.2-10.7 0.2c0 0-8.9 0.5-14.9-1.9-10.1-3.9-5.9-13.4-5.9-13.4 0 0-5.9-1.6-8.6-6.6-3.4-6.5 0.8-16.1 0.8-16.1-8.7-9.1-4.2-19-4.2-19 0 0-7.4-3.2-7.6-13.6-0.1-10.4 9.6-19.1 9.6-19.1 0 0 2.6-20.5 2.6-26.3 0-5.8-1.4-18.6 0-31.8 1.8-17.2 16.1-17.2 16.1-17.2 14.4 3.1 6.2 28.3 6.2 36.6z"/><path class="l" d="m609.4 381.7c0.1 0.1-1.4 1.1-3.9 2.5-2.6 1.5-6.1 3.5-10 5.6-3.9 2.1-7.4 4-10 5.3-2.6 1.3-4.3 2-4.4 1.9 0-0.1 1.5-1.1 4-2.6 2.5-1.4 6-3.4 9.9-5.5 3.9-2.1 7.5-4 10.1-5.3 2.6-1.3 4.3-2.1 4.3-1.9z"/><path class="l" d="m618.8 414c0.1 0-0.4 0.4-1.2 1.1-0.9 0.7-2.1 1.6-3.8 2.6-3.2 2.1-7.9 4.7-13.4 6.8-5.5 2.1-10.7 3.3-14.5 3.9-1.9 0.3-3.4 0.5-4.5 0.5-1.1 0.1-1.7 0.1-1.7 0 0-0.1 2.4-0.4 6.1-1.2 3.7-0.8 8.8-2.1 14.3-4.2 5.4-2.1 10.1-4.5 13.4-6.4 3.3-1.9 5.2-3.3 5.3-3.1z"/><path class="l" d="m631.1 403.7c0.3 0.1-0.3 1.9-2 3.5-1.7 1.5-3.5 1.9-3.6 1.6-0.1-0.3 1.4-1 2.9-2.4 1.5-1.4 2.4-2.8 2.7-2.7z"/><path class="l" d="m625.2 442.3c0 0.1-2.2 1-6 2.2-3.7 1.1-9 2.5-15 3.4-5.9 1-11.4 1.4-15.3 1.5-3.9 0.1-6.4-0.1-6.4-0.2 0-0.2 2.5-0.3 6.4-0.6 3.9-0.2 9.3-0.8 15.2-1.7 5.9-1 11.1-2.2 14.9-3.1 3.8-1 6.2-1.6 6.2-1.5z"/><path class="l" d="m638.3 439.9c-0.2-0.1 0.5-1.2 1.1-3 0.6-1.9 1.1-4.6 0.8-7.6-0.4-3-1.5-5.5-2.6-7.2-1-1.7-1.9-2.6-1.8-2.7 0.1-0.1 1.2 0.6 2.4 2.3 1.3 1.6 2.6 4.3 3 7.5 0.4 3.1-0.3 6-1.1 7.9-0.9 1.9-1.7 2.9-1.8 2.8z"/><path class="l" d="m625.9 471.3c0.1 0.1-1.9 0.6-5 1.2-3.2 0.5-7.7 0.9-12.6 0.9-4.9 0-9.4-0.5-12.6-1-3.2-0.6-5.1-1.1-5.1-1.2 0.1-0.2 2 0.1 5.2 0.5 3.2 0.3 7.6 0.7 12.5 0.7 4.9 0 9.3-0.3 12.5-0.7 3.1-0.3 5.1-0.6 5.1-0.4z"/><path class="l" d="m600.6 358.5c0 0.1-0.7 0.7-2 1.2-1.4 0.4-3.3 0.8-5.5 0.5-2.2-0.2-4-1-5.2-1.8-1.2-0.8-1.8-1.5-1.7-1.6 0.2-0.2 2.9 1.9 7 2.4 4.1 0.5 7.2-1 7.4-0.7z"/><path class="l" d="m641.2 441.1c0.1 0 0.2 0.6 0.3 1.6 0 1-0.1 2.4-0.5 4.2-0.4 1.7-1.1 3.8-1.7 6-0.6 2.2-1.2 4.7-0.7 7.3 0.3 2.5 2.2 4.6 2.5 7.1 0.3 2.6-0.7 4.7-1.6 6.2-0.9 1.6-1.9 2.7-2.6 3.4-0.6 0.7-1.1 1.1-1.1 1-0.2-0.1 1.4-1.7 3.1-4.7 0.8-1.5 1.6-3.5 1.2-5.7-0.2-2.2-2.1-4.2-2.6-7.1-0.4-2.9 0.2-5.5 0.9-7.8 0.7-2.2 1.4-4.2 1.9-5.9 1-3.4 0.8-5.6 0.9-5.6z"/><path class="f" d="m646.6 453.7c0.1 0 0.3 0.6 0.7 1.9 0.4 1.2 0.8 3 1.3 5.2 0.4 2.3 0.9 5 0.9 8.1 0.1 3-0.2 6.5-1.8 9.8-1.6 3.2-3.9 5.7-6.1 7.8-2.3 2.1-4.5 3.7-6.4 5-1.9 1.3-3.5 2.2-4.6 2.9-1.1 0.6-1.7 0.9-1.8 0.8-0.1-0.1 2.3-1.6 6-4.3 1.8-1.4 4-3 6.1-5.1 2.2-2.1 4.4-4.5 5.9-7.6 1.5-3 1.8-6.4 1.8-9.3 0-3-0.4-5.7-0.7-7.9-0.8-4.5-1.4-7.3-1.3-7.3z"/><path class="f" d="m495.7 387.1c0 0.1-0.9-0.5-2.3-1.7q-2.4-2-6.1-5-1.9-1.6-4.1-3.5c-0.8-0.7-1.5-1.3-2.4-1.7-0.8-0.4-1.8-0.5-2.7-0.1-1.7 0.9-2.8 3.1-4.3 4.9q-2.1 2.9-4.4 6c-2.4 3.2-4.8 6.3-6.9 9.2l-1.3 1.7 0.4-2.1c1.4-7.2 3.4-13.3 5-17.4 0.8-2.1 1.5-3.8 2-4.9 0.5-1.1 0.9-1.6 0.9-1.6 0.1 0-0.1 0.6-0.6 1.8-0.4 1.1-1 2.8-1.7 4.9-1.5 4.2-3.3 10.2-4.6 17.4l-0.9-0.4c2.1-2.9 4.4-6 6.9-9.2q2.2-3.1 4.4-6 1.1-1.4 2.1-2.8c0.7-0.9 1.5-1.8 2.6-2.4 1.2-0.6 2.6-0.4 3.5 0.2 1 0.5 1.8 1.2 2.5 1.8q2.2 1.9 4.1 3.6 3.6 3.2 5.9 5.3c1.3 1.2 2.1 2 2 2z"/><path class="f" d="m580.2 370.2q0 0.1-0.8 0.7-1 0.7-2.4 1.9c-2.2 1.6-5.2 3.8-8.8 6.6-7.6 5.6-17.9 13.2-29.4 21.6l-0.5 0.4-0.3-0.5q-0.3-0.5-0.7-1.1c-5.4-8.6-10.5-16.6-14.8-23.4l0.6 0.2c-7.1 2.8-12.6 5.9-16.4 8.2-1.9 1.1-3.4 2.1-4.4 2.7-0.9 0.7-1.5 1-1.5 1 0-0.1 0.4-0.5 1.4-1.2 0.9-0.7 2.4-1.7 4.2-2.9 3.7-2.5 9.3-5.7 16.3-8.6l0.4-0.1 0.2 0.3c4.3 6.7 9.4 14.7 14.9 23.2q0.4 0.6 0.7 1.1l-0.7-0.1c11.5-8.3 21.9-15.9 29.6-21.4 3.7-2.6 6.7-4.8 9-6.4q1.5-1 2.5-1.7 0.8-0.5 0.9-0.5z"/><path class="f" d="m400.7 449.8q0 0 0.1 1.4 0 1.5 0.1 4c0.1 3.6 0.2 8.7 0.3 14.9 0.2 12.6 0.7 29.9 1.4 49.1 0.6 19.2 1 36.5 1 49.1 0.1 6.3 0.1 11.4 0 14.9q-0.1 2.5-0.1 4.1 0 1.4-0.1 1.4 0 0-0.1-1.4 0-1.6-0.1-4.1c-0.1-3.6-0.2-8.7-0.3-14.9-0.2-12.5-0.7-29.9-1.4-49.1-0.6-19.1-1-36.5-1.1-49.1 0-6.3 0-11.4 0.1-14.9q0-2.5 0.1-4 0-1.4 0.1-1.4z"/><path class="f" d="m496.4 630.4q-0.1 0-0.1-0.6-0.1-0.6-0.2-1.7-0.3-2.3-0.7-6.5c-0.5-5.7-1.2-13.9-1.8-24.1-0.7-10.2-1.2-22.3-1.5-35.8-0.3-13.5-0.4-28.4-0.1-43.9 0.4-15.6 1.1-30.4 2-43.9 0.9-13.5 2-25.6 3.1-35.7 1-10.2 2-18.4 2.8-24q0.6-4.2 1-6.5 0.1-1.1 0.2-1.7 0.1-0.6 0.2-0.6 0 0-0.1 0.6 0 0.7-0.1 1.7-0.3 2.4-0.8 6.5c-0.6 5.7-1.5 13.9-2.5 24-1 10.2-2 22.3-2.9 35.8-0.8 13.4-1.5 28.2-1.8 43.8-0.4 15.5-0.3 30.4-0.1 43.9 0.3 13.4 0.8 25.6 1.3 35.7 0.6 10.2 1.1 18.5 1.5 24.2q0.3 4.1 0.5 6.5 0 1.1 0.1 1.7 0 0.6 0 0.6z"/><path class="f" d="m436.8 303c0 0-0.7 0.5-2.1 1.4q-2.2 1.4-6.3 4.1c-2.7 1.8-5.9 4.3-9.8 7.1-1.9 1.5-3.8 3.2-5.9 5q-1.6 1.3-3.3 2.7c-1.1 1-2.2 2.1-3.3 3.1-9.1 8.5-19.4 19.9-28.9 34.8q-1.8 2.8-3.6 5.7c-1.3 1.9-2.2 4-3.4 6.1-1.1 2.1-2.3 4.1-3.3 6.3q-1.5 3.3-3.1 6.8c-0.5 1.1-1.1 2.2-1.5 3.4q-0.7 1.8-1.4 3.6c-0.9 2.4-1.9 4.8-2.7 7.3-1.5 5.1-3.4 10.2-4.5 15.7-2.8 10.7-4.3 22.3-4.9 34.4-0.7 12.1 0 24.8 2.1 37.7 4.2 25.7 14.3 52.5 31.6 76.4 17 23.8 41.1 44.6 70 58.3 28.9 13.7 62.6 19.7 96.4 16.2 33.7-3.5 65.4-16.8 90.7-36.2 6.4-4.8 12.3-10.2 17.9-15.6q2-2.2 4-4.3 2.1-2.1 4-4.3 1.9-2.2 3.8-4.4 1.8-2.3 3.6-4.5c9.5-12.1 17-25.3 22.9-38.7 5.9-13.5 9.8-27.4 12.2-41.1 1.3-6.8 2-13.6 2.4-20.4 0.2-3.3 0.2-6.7 0.3-10 0-3.3-0.2-6.6-0.3-9.9q-0.1-2.4-0.2-4.9c-0.1-1.6-0.4-3.2-0.5-4.8q-0.6-4.7-1.2-9.4c-0.5-3.1-1.2-6.2-1.8-9.2-0.6-3-1.1-6.1-2.1-9q-1.2-4.3-2.5-8.6c-0.3-1.5-0.8-2.8-1.4-4.2q-0.8-2.1-1.5-4.1c-1.1-2.7-2-5.5-3.2-8.1q-1.8-3.8-3.5-7.6c-9.7-20-22.1-36.2-34.5-48.7-12.5-12.6-25.1-21.3-35.7-27.8q-4-2.3-7.6-4.4c-1.2-0.7-2.4-1.3-3.6-1.8q-1.7-0.9-3.3-1.6-3.3-1.6-6-2.9c-1.8-0.9-3.6-1.4-5.1-2.1q-4.6-1.7-7-2.6c-1.5-0.7-2.3-1-2.3-1 0 0 0.8 0.3 2.4 0.9q2.4 0.8 7 2.6c1.5 0.6 3.3 1.1 5.1 2q2.7 1.3 6 2.8 1.6 0.7 3.4 1.6c1.1 0.5 2.4 1.1 3.6 1.8q3.6 2 7.6 4.3c10.7 6.5 23.3 15.2 35.9 27.8 12.5 12.5 25 28.7 34.7 48.8q1.8 3.8 3.6 7.7c1.2 2.5 2.1 5.3 3.2 8q0.8 2.1 1.6 4.1c0.5 1.4 1 2.8 1.4 4.2q1.2 4.3 2.5 8.7c0.9 2.9 1.5 6 2.1 9 0.6 3.1 1.3 6.1 1.8 9.2q0.6 4.8 1.2 9.6c0.2 1.6 0.4 3.2 0.5 4.8q0.1 2.4 0.2 4.9c0.2 3.3 0.3 6.6 0.4 9.9-0.1 3.3-0.1 6.7-0.3 10.1-0.4 6.8-1.1 13.6-2.4 20.5-2.4 13.8-6.3 27.7-12.2 41.3-6 13.5-13.5 26.7-23.1 38.9q-1.7 2.3-3.5 4.5-2 2.3-3.9 4.5-1.9 2.2-3.9 4.3-2.1 2.1-4.1 4.3c-5.7 5.5-11.6 10.8-18 15.7-25.5 19.5-57.3 32.9-91.2 36.4-33.9 3.5-67.9-2.5-96.9-16.3-29.1-13.7-53.3-34.7-70.4-58.7-17.3-24-27.5-50.9-31.7-76.8-2-12.9-2.8-25.7-2-37.8 0.6-12.2 2.2-23.8 5-34.6 1.1-5.5 3-10.6 4.5-15.7 0.9-2.5 1.9-4.9 2.8-7.4q0.7-1.8 1.3-3.6c0.5-1.1 1.1-2.3 1.6-3.4q1.6-3.4 3.1-6.8c1.1-2.2 2.3-4.2 3.4-6.3 1.1-2.1 2.1-4.2 3.4-6.1q1.8-2.9 3.6-5.8c9.6-14.9 20-26.2 29.1-34.7 1.2-1 2.2-2.1 3.3-3.1q1.7-1.4 3.3-2.7c2.2-1.7 4.1-3.5 6-4.9 3.9-2.8 7.1-5.3 9.9-7.1q4.1-2.6 6.3-3.9c1.4-0.9 2.2-1.4 2.2-1.4z"/></svg>