<svg version="1.2" xmlns="http://www.w3.org/2000/svg" viewBox="0 0 1000 1000" width="800" height="800"><style>.a{fill:#ebebeb}.b{fill:#fafafa}.c{fill:#e0e0e0}.d{fill:#f5f5f5}.e{fill:#f0f0f0}.f{fill:#e6e6e6}.g{fill:#263238}.h{fill:#407bff}.i{opacity:.6;fill:#fff}.j{fill:#ffb573}.k{opacity:.2}.l{opacity:.3}.m{fill:#fff}.n{fill:#ed893e}.o{opacity:.3;fill:#263238}.p{opacity:.1;fill:#fff}.q{opacity:.2;fill:#fff}.r{opacity:.9;fill:#fff}.s{opacity:.5;fill:#407bff}.t{opacity:.6;fill:#407bff}.u{opacity:.1}.v{opacity:.7;fill:#fff}</style><path class="a" d="m1000 765.3h-1000v-0.5h1000z"/><path class="a" d="m788.7 787.7h101.8v0.5h-101.8z"/><path class="a" d="m199.3 782.3h-94.4v-0.5h94.4z"/><path class="a" d="m757.6 778.4h38.4v0.5h-38.4z"/><path class="a" d="m662.4 792.2h-28.1v-0.5h28.1z"/><path class="a" d="m616.5 792.2h-70.9v-0.5h70.9z"/><path class="a" d="m504.4 783.7h-114v-0.5h114z"/><path class="a" d="m780.7 764.8h-203.6v-593.5h203.6z"/><path class="b" d="m590.9 752.8v-569.5h176.1v569.5z"/><path class="a" d="m571 764.8h-203.6v-593.5h203.6z"/><path class="c" d="m571 173.7h6.1v588.8h-6.1z"/><path class="b" d="m381.2 752.8v-569.5h176.1v569.5z"/><path class="c" d="m873.7 166.9h-599.3c-1.4 0-2.6-1.2-2.6-2.7 0-1.4 1.2-2.6 2.6-2.6h599.3c1.5 0 2.7 1.2 2.7 2.6 0 1.5-1.2 2.7-2.7 2.7z"/><path class="c" d="m590.9 194.7v-11.4h176.1v11.4z"/><path class="c" d="m590.9 202.4v-19.1h176.1v19.1z"/><path class="c" d="m381.2 225.1v-41.8h176.1v41.8z"/><g style="opacity:.8"><path class="d" d="m806.9 757.5h-56.4v-608.4h56.4z"/><path class="e" d="m792 757.5h-26.6v-608.4h26.6z"/><path class="d" d="m837.1 757.5h-56.4v-608.4h56.4z"/><path class="e" d="m822.3 757.5h-26.7v-608.4h26.7z"/><path class="d" d="m865.3 757.5h-56.4v-608.4h56.4z"/></g><g style="opacity:.8"><path class="d" d="m362.9 757.5h-81.8v-608.4h81.8z"/><path class="e" d="m341.3 757.5h-38.6v-608.4h38.6z"/><path class="d" d="m406.8 757.5h-81.8v-608.4h81.8z"/><path class="e" d="m385.2 757.5h-38.6v-608.4h38.6z"/><path class="d" d="m447.7 757.5h-81.8v-608.4h81.8z"/></g><path class="e" d="m242.2 508.8h-132.1v-297.3h132.1z"/><path class="f" d="m242.2 211.5h4.2v297.3h-4.2z"/><path class="b" d="m122.1 496.8v-273.3h108.1v273.3z"/><path class="d" d="m250.5 656.1h-135.5c-6.2 0-11.3-5-11.3-11.2 0-6.2 5.1-11.2 11.3-11.2h135.5c6.2 0 11.3 5 11.3 11.2 0 6.2-5.1 11.2-11.3 11.2z"/><path class="f" d="m122.2 764.8h-22.2l25.3-108.7h22.3z"/><path class="f" d="m179.5 764.8h-22.2l12.4-108.7h22.3z"/><path class="f" d="m217.9 656.1h22.3l25.3 108.7h-22.3z"/><path class="d" d="m887.8 832.5c0 12.5-173.6 22.6-387.8 22.6-214.2 0-387.8-10.1-387.8-22.6 0-12.5 173.6-22.7 387.8-22.7 214.2 0 387.8 10.2 387.8 22.7z"/><path class="g" d="m629.2 615.2h-170.7c-3.2 0-5.9-2.7-5.9-5.9v-6.7c0-3.2 2.7-5.9 5.9-5.9h170.7c3.2 0 5.8 2.7 5.8 5.9v6.7c0 3.2-2.6 5.9-5.8 5.9z"/><path class="h" d="m616 615.2h10.4l8.6 205.3h-7.5z"/><path class="i" d="m616 615.2h10.4l8.6 205.3h-7.5z"/><path class="h" d="m558.7 820.5h-7.5l8.6-205.3h10.3z"/><path class="i" d="m558.7 820.5h-7.5l8.6-205.3h10.3z"/><path class="h" d="m517.5 615.2h10.3l8.7 205.3h-7.5z"/><path class="i" d="m517.5 615.2h10.3l8.7 205.3h-7.5z"/><path class="h" d="m460.1 820.5h-7.5l8.6-205.3h10.4z"/><path class="i" d="m460.1 820.5h-7.5l8.6-205.3h10.4z"/><g style="opacity:.3"><path class="h" d="m626.8 623.9h-10.3l-0.5-8.8h10.4z"/><path class="h" d="m559.8 615.1h10.3l-0.5 8.8h-10.2z"/><path class="h" d="m527.8 615.1l0.4 8.8h-10.2l-0.5-8.8z"/><path class="h" d="m461.2 615.1h10.4l-0.5 8.8h-10.2z"/></g><path class="j" d="m524.2 790.3l-17 9-26.6-36 16.9-9z"/><path class="g" d="m501.1 793.7l17.7-12.2c0.6-0.5 1.4-0.4 1.9 0.2l10.6 13.4c1.1 1.4 0.7 3.7-0.8 4.7-6.2 4.2-9 5.6-17.2 10.5-5 2.9-17 10-24.4 13.2-7.2 3.1-10.3-4.2-7.5-6.2 6.8-4.8 15.7-14.1 17.7-20.7 0.4-1.2 1.1-2.2 2-2.9z"/><path class="k" d="m510 771.1l-16.6 9.5-12.8-17.3 16.9-9z"/><path class="h" d="m604.6 540.9c0 0 5 14.5-4.7 40.8-11.8 32.1-103 25.3-141.8 36.2 0.5 61.7 51.8 137 51.8 137l-29.2 19.5c0 0-74.9-103.7-74.3-182.6 0.5-55 132-50.9 132-50.9z"/><path class="k" d="m604.6 540.9c0 0 5 14.5-4.7 40.8-11.8 32.1-103 25.3-141.8 36.2 0.5 61.7 51.8 137 51.8 137l-29.2 19.5c0 0-74.9-103.7-74.3-182.6 0.5-55 132-50.9 132-50.9z"/><path class="g" d="m518 760l-34.9 21.3-11-11.1 38.4-24.1z"/><path fill-rule="evenodd" class="h" d="m493.9 801.6q-1.2-0.2-1.8-1.7-0.4-0.9 0.1-1.6c1.4-2.1 8-2.2 8.7-2.2 0.2 0 0.4 0.1 0.4 0.3 0.1 0.2 0.1 0.4 0 0.5-1 1-2.4 2.5-3.8 3.5-1.3 0.8-2.5 1.4-3.6 1.2zm-0.9-2.8q-0.3 0.3-0.1 0.8 0.4 1 1.2 1.1c1.2 0.2 3.4-1.1 5.8-3.6-2.6 0.1-6.2 0.6-6.9 1.7z"/><path fill-rule="evenodd" class="h" d="m501 797c-2.3 0.2-6.9-1.5-7.7-3.4-0.3-0.8-0.1-1.5 0.5-2.1q0.9-0.7 2-0.5c2.6 0.4 5.4 5.2 5.5 5.4q0.1 0.2 0 0.4 0 0.1-0.1 0.2-0.1 0-0.2 0zm-6.6-4.8c-0.5 0.4-0.4 0.8-0.3 1 0.6 1.3 3.8 2.7 6 2.9-1-1.5-2.9-4-4.5-4.3q-0.5 0-1 0.3-0.1 0-0.2 0.1z"/><path class="j" d="m492.9 812.4l-19-0.9-3.2-44.9 19 0.9z"/><path class="g" d="m473.4 808.2l21.5-0.6c0.8-0.1 1.4 0.5 1.5 1.2l1.6 17c0.1 1.8-1.5 3.5-3.3 3.5-7.5 0.1-11.1-0.2-20.5 0.1-5.8 0.2-17.3 1-25.3 0-7.8-0.9-6.7-8.8-3.3-9.1 8.3-0.7 19.3-6.4 24.6-10.8 0.9-0.8 2.1-1.2 3.2-1.3z"/><path fill-rule="evenodd" class="h" d="m463.1 810.9q-0.9-0.9-0.6-2.4 0.2-1 1-1.3c2.3-1 7.8 2.5 8.4 2.9 0.2 0.1 0.3 0.3 0.2 0.5 0 0.2-0.1 0.3-0.3 0.3-1.4 0.4-3.3 0.8-5.1 0.9-1.4 0-2.8-0.2-3.6-0.9zm0.7-2.9q-0.4 0.2-0.5 0.7-0.2 1 0.4 1.5c0.9 0.9 3.5 0.9 6.9 0.1-2.3-1.3-5.5-2.8-6.8-2.3z"/><path fill-rule="evenodd" class="h" d="m471.5 810.9c-2-1.1-4.9-5-4.6-7.1 0.2-0.8 0.7-1.3 1.6-1.4q1.1-0.2 1.9 0.6c2 1.8 1.8 7.3 1.7 7.5q0 0.3-0.2 0.4-0.1 0.1-0.2 0.1-0.1 0-0.2-0.1zm-2.9-7.6c-0.6 0.1-0.7 0.4-0.8 0.7-0.2 1.4 1.8 4.3 3.5 5.7 0-1.8-0.3-5-1.5-6.1q-0.4-0.3-0.9-0.3-0.1 0-0.3 0z"/><path class="k" d="m491.5 792.3h-19l-1.8-25.7 19.1 0.9z"/><path class="h" d="m640.8 540.9c0 0 2.5 29.2-4.5 48.1-7.9 21.5-95.1 18.9-130.7 18.9 7.7 61.2-7.2 177.3-7.2 177.3l-35-1.4c0 0-3.6-128.7-10.8-188.4-5-41.5 132.5-54.5 132.5-54.5z"/><path class="g" d="m502.3 787.3l-42.1-2-1.5-18.4 46.2 3.2z"/><path class="j" d="m554.6 419.6c-0.2 3.4-0.5 6.3-0.9 9.4q-0.5 4.6-1.2 9.1-1.5 9.1-3.6 18.1c-2.9 12.1-6.5 24.2-13.2 36.5-1.7 3.1-3.6 6.1-6.1 9.2-2.5 3-5.7 6.1-9.1 8.4-7 4.7-14.9 7-22.2 7.5-7.3 0.5-14.1-0.4-20.5-2q-4.8-1.2-9.4-3-2.2-0.8-4.4-1.9c-1.5-0.7-2.8-1.4-4.5-2.3l5.2-13.4 3.9 0.5 4 0.4q4 0.4 7.9 0.4c5.1 0 10.1-0.5 14.4-1.7 4.3-1.2 7.7-3 10.2-5.3 1.2-1.2 2.2-2.2 3.3-3.9 1.1-1.5 2.1-3.6 3.2-5.6 2-4.3 3.7-9.2 5.1-14.3 1.6-5 2.8-10.3 3.9-15.7 1.1-5.4 2-10.9 2.9-16.4l1.2-8.3c0.3-2.7 0.7-5.6 1-8.1z"/><path class="g" d="m553 474.2l-44.6-9.2c0 0 1.1-16.3 8-41.8 6.9-25.4 24.3-33.5 38.3-19.9 14.4 13.9 6.4 46.6-1.7 70.9z"/><path class="l" d="m540.4 431.1c3.2-2.8 12.2 10 17.7 25.9-1.5 5.9-3.3 11.8-5.1 17.2l-26.8-5.6c2.1-15.8 7.1-31 14.2-37.5z"/><path class="j" d="m470.4 500.1l1.2 5.3c-3.4 8.3-20.2 1.1-20.2 1.1l0.4-21.2 9.9 3.8c4.4 2.4 7.7 6.5 8.7 11z"/><path class="j" d="m451.8 485.3l-0.4 21.2-17.4-2.9 5.9-17.8z"/><path class="g" d="m455 499.9c-0.4 0-0.8-0.2-1-0.6l-17.8-34.4c-0.3-0.5-0.1-1.2 0.4-1.5 0.6-0.3 1.3-0.1 1.6 0.5l17.9 34.4c0.3 0.5 0 1.2-0.5 1.5q-0.3 0.2-0.6 0.1z"/><path class="g" d="m553.1 389.7l21.3-6.1 27.5-1.3c8.6-0.4 16.3 5 19 13.1 5.2 16 10 39.1 13.5 59 4 22.4 6 56 6.4 86.5h-102.4c-2.4-63.7-10.5-101.3-14.1-122.2-1.4-8.4 2.9-16.7 10.6-20.3z"/><path class="l" d="m636.8 471.1c0 0-28.9 12.1-34.3-7.8-5.5-19.9 3.4-59.9 21.6-56.8 4 14.6 7.6 32.2 10.3 47.9 0.9 5.1 1.7 10.7 2.4 16.7z"/><path class="g" d="m570.8 342c4.4 10.8 1.8 30.6-6.9 25-8.7-5.6 4.2-31.6 6.9-25z"/><path class="j" d="m577.9 384.7c3 3.2 3.7 5.6 0.6 8.7-5.4 5.5-12.7 11.2-23.6 13.2-9.5 1.6-12.1-1-12.7-3.7-0.4-2.2 0.8-4.4 2.7-5.7 8.7-6 7-9.1 4.9-13.2-1-2-2.7-4.7-3.5-5.1l11.3-17.3 8.3-12.7c0.9 11.9 3.4 26.6 12 35.8z"/><path class="k" d="m549.1 374.6l6.9-12.3q0.3 0.5 0.5 1c0.6 1.3 1.1 3 1.5 4.7 1.3 5.5-3 13.3-7.6 17q-0.3-0.5-0.6-1c-0.9-1.8-2.3-4.2-3.2-4.9q-0.1-0.2-0.3-0.2z"/><path class="g" d="m507.6 334c-2.6 5.8 6.5 22.3 17 15.6 10.5-6.6-12.5-25.9-17-15.6z"/><path class="m" d="m558 410.1c-0.3 0-0.5-0.2-0.6-0.5-0.7-4.9-3.9-8.1-7.6-11.7-4.7-4.5-9.9-9.7-11.6-19.8-0.1-0.3 0.1-0.6 0.4-0.7 0.4 0 0.6 0.2 0.7 0.5 1.7 9.7 6.8 14.8 11.3 19.2 3.7 3.6 7.2 7 8 12.3 0 0.4-0.2 0.6-0.5 0.7q0 0-0.1 0z"/><path class="j" d="m562.3 328.1c3.9 18.2 7.1 28.6 0.6 40.1-9.7 17.4-34.1 15-43.4-1.7-8.4-15-13.4-42.1 2.2-53.8 15.3-11.5 36.6-2.7 40.6 15.4z"/><path class="g" d="m567.6 340.6c-6.2 8.8-22.6-7.4-21.2-18.3-16.3 9.2-33.9 21.5-44.6 11.1-12.4-12-9-29.2 5.5-30.7-2.6 5 11.9 7.2 19.7-0.5 13.1-13 33.8-10.3 33.5 0.2 9.9-3.9 20.8 18.7 7.1 38.2z"/><path class="g" d="m558.5 305.4c3.9-2.9 1.3-13.2-7.6-16.2 8.5 1.1 17.3 7.5 7.6 16.2z"/><path class="j" d="m573.4 339.8c0.2 4.5-1.5 8.7-3.8 11.4-3.4 4.1-8.7 0.8-10-4.3-1.1-4.6 0.4-11.7 4.9-13.9 4.4-2.1 8.7 1.6 8.9 6.8z"/><path class="g" d="m536.3 342.8c0.4 1.5 0.1 3-0.9 3.3-0.9 0.4-2.1-0.5-2.6-2-0.4-1.5-0.1-2.9 0.9-3.3 0.9-0.3 2.1 0.6 2.6 2z"/><path class="g" d="m519.9 348.8c0.5 1.5 0.1 3-0.9 3.3-0.9 0.4-2.1-0.5-2.6-2-0.4-1.5-0.1-2.9 0.9-3.3 0.9-0.3 2.1 0.6 2.6 2z"/><path class="n" d="m530.1 359.6c0 0-3.2 2.5-6.1 1.5 1.6-4.8 1.5-13 1.5-13z"/><path class="g" d="m532.5 368.2c-0.2 0-0.5-0.1-0.5-0.4-0.1-0.2 0.1-0.5 0.3-0.5 6.7-1.5 8.9-6.8 8.9-6.9 0.1-0.2 0.4-0.3 0.6-0.2 0.3 0.1 0.4 0.3 0.3 0.6-0.1 0.2-2.1 4.9-7.8 6.9q-0.9 0.3-1.8 0.5z"/><path class="g" d="m536.8 336.4c-3.2-2.1-6.2-0.7-6.3-0.7-0.5 0.2-1 0-1.3-0.4-0.2-0.5 0-1.1 0.5-1.2 0.1-0.1 4-1.9 8.1 0.8 0.4 0.3 0.6 0.9 0.3 1.3q-0.1 0.2-0.3 0.3c-0.3 0.1-0.7 0.1-1-0.1z"/><path class="g" d="m516.1 340.1c-3.6 1.5-4.2 4.7-4.3 4.8-0.1 0.5-0.5 0.9-1 0.8-0.5-0.1-0.9-0.6-0.8-1.1 0.1-0.1 0.8-4.3 5.4-6.2 0.4-0.2 1 0 1.2 0.5q0 0.2 0 0.5c0 0.3-0.2 0.6-0.5 0.7z"/><path class="j" d="m617.3 396c2 3.3 3.6 6.2 5.3 9.3q2.5 4.6 4.8 9.3c3.2 6.2 6.1 12.6 8.8 19.1 2.6 6.6 5.2 13.3 7.2 20.3 2.1 7 3.9 14.3 4.6 22.5 0.3 4.1 0.4 8.5-0.5 13.4-0.3 2.3-1.1 5.5-2.6 8.4-1.5 3-3.7 5.8-6.1 7.9-2.5 2.2-5.2 3.7-7.8 4.7-2.5 1-5 1.6-7.3 2-4.7 0.8-8.9 0.7-12.8 0.4-4-0.3-7.7-1-11.3-1.8q-5.5-1.3-10.6-3c-6.8-2.3-13.2-5-19.7-8.4l5.1-13.4c12.4 2.3 25.8 4.5 37 3.8 2.7-0.1 5.3-0.6 7.2-1.2 2-0.6 3.1-1.5 3-1.8 0-0.1-0.1-0.1-0.2-0.2 0-0.1-0.1-0.2 0.1-1.2 0.1-1.8 0-4.2-0.4-6.7-0.8-5.2-2.4-11-4.5-16.8-2-5.8-4.4-11.6-7-17.4-2.6-5.9-5.5-11.7-8.3-17.5q-2.2-4.3-4.5-8.6l-4.5-8.4z"/><path class="g" d="m647.5 441.4l-41.6 18.3c0 0-8.6-13.9-17.7-38.7-9.1-24.7 0.4-41.3 19.8-38.4 19.8 3 32.1 34.3 39.5 58.8z"/><path class="j" d="m577.6 487.9l4.7 2.7c3.9 8.1-14.9 14.8-14.9 14.8l-12.6-17.9 8.9-2.7c4.8-1.7 9.9 0.8 13.9 3.1z"/><path class="j" d="m554.8 487.5l12.6 17.9-11.6 3.4-8.9-8.9z"/><path class="m" d="m569.2 342c0 1.9-1.3 3.5-2.8 3.5-1.6 0-2.9-1.6-2.9-3.5 0-1.9 1.3-3.5 2.9-3.5 1.5 0 2.8 1.6 2.8 3.5z"/><path class="m" d="m568.7 351.2h-1.6l-1-8.1 3.1-0.7z"/><path class="m" d="m580.2 502.4c-6 0-11.3-0.9-14.5-3.8-2.3-2.1-3.5-5.1-3.5-9 0-9.7 2-17.5 3.8-24.4 2.7-10.9 4.9-19.5-1.7-30.1-10.7-16.8-7.5-40.4-0.1-55.2 5.7-11.3 3.8-23.8 3.1-28.5q-0.2-1-0.2-1.4c-0.1-0.4 0.2-0.6 0.5-0.7 0.3 0 0.6 0.2 0.6 0.5q0.1 0.5 0.2 1.4c0.8 4.8 2.7 17.6-3.1 29.2-7.3 14.5-10.5 37.6-0.1 54.1 7 11 4.6 20.3 1.9 31-1.8 6.8-3.8 14.6-3.8 24.1 0 3.6 1.1 6.3 3.1 8.1 5.4 4.9 17.4 3.7 28.9 2.5 5.1-0.6 10.5-1.1 15.2-1.1 0.3 0 0.6 0.2 0.6 0.6 0 0.3-0.3 0.5-0.6 0.5-4.7 0-10 0.6-15.1 1.1-5.2 0.6-10.4 1.1-15.2 1.1z"/><path class="m" d="m635.6 499.3v1.6c0 0.7-0.5 1.2-1.2 1.2h-22.7c-0.7 0-1.2-0.5-1.2-1.2v-1.6c0-0.6 0.5-1.2 1.2-1.2h22.7c0.7 0 1.2 0.6 1.2 1.2z"/><path class="h" d="m777.3 515.4h-554.6c-3.6 0-6.6-2.9-6.6-6.6 0-3.7 3-6.7 6.6-6.7h554.6c3.6 0 6.6 3 6.6 6.7 0 3.7-3 6.6-6.6 6.6z"/><path class="o" d="m777.3 515.4h-129.8c-3.7 0-6.7-2.9-6.7-6.6 0-3.7 3-6.7 6.7-6.7h129.8c3.6 0 6.6 3 6.6 6.7 0 3.7-3 6.6-6.6 6.6z"/><path class="g" d="m751.6 515.4h17.6l14.7 313.8h-12.7z"/><path class="p" d="m751.6 515.4h17.6l14.7 313.8h-12.7z"/><path class="g" d="m653.6 829.2h-12.8l14.7-313.8h17.7z"/><path class="q" d="m653.6 829.2h-12.8l14.7-313.8h17.7z"/><path class="g" d="m326.8 515.4h17.7l14.7 313.8h-12.8z"/><path class="p" d="m326.8 515.4h17.7l14.7 313.8h-12.8z"/><path class="g" d="m228.8 829.2h-12.7l14.7-313.8h17.6z"/><path class="q" d="m228.8 829.2h-12.7l14.7-313.8h17.6z"/><path class="g" d="m661 558.4h-426.5v-26.3h426.5z"/><path class="q" d="m661 558.4h-426.5v-26.3h426.5z"/><path class="h" d="m395.4 484.4c0.5 0 0.9 0.4 0.9 0.9v15.9c0 0.5-0.4 0.9-0.9 0.9h-90.7c-1.6 0-2.8-1.2-2.8-2.8v-12.1c0-1.5 1.2-2.8 2.8-2.8z"/><path class="r" d="m396.3 500.4h-38c-0.9 0-1.6-0.7-1.6-1.6v-11.1c0-0.9 0.7-1.6 1.6-1.6h38z"/><path class="h" d="m354.9 487.2v12.1c0 1.6-1.3 2.8-2.8 2.8h-91.6c-1.6 0-2.8-1.2-2.8-2.8v-12.1c0-1.5 1.2-2.8 2.8-2.8h91.6c1.5 0 2.8 1.3 2.8 2.8z"/><path class="k" d="m354.9 487.2v12.1c0 1.6-1.3 2.8-2.8 2.8h-91.6c-1.6 0-2.8-1.2-2.8-2.8v-12.1c0-1.5 1.2-2.8 2.8-2.8h91.6c1.5 0 2.8 1.3 2.8 2.8z"/><path class="s" d="m308.2 485.6v15.4c0 0.6-0.5 1.1-1.2 1.1h-13.9c-0.6 0-1.1-0.5-1.1-1.1v-15.4c0-0.7 0.5-1.2 1.1-1.2h13.9c0.7 0 1.2 0.5 1.2 1.2z"/><path class="s" d="m328.2 485.6v15.4c0 0.6-0.5 1.1-1.1 1.1h-13.9c-0.6 0-1.1-0.5-1.1-1.1v-15.4c0-0.7 0.5-1.2 1.1-1.2h13.9c0.6 0 1.1 0.5 1.1 1.2z"/><path class="h" d="m386.5 462.6c0.5 0 0.9 0.5 0.9 1v19.9c0 0.5-0.4 0.9-0.9 0.9h-98.2c-1.6 0-2.8-1.2-2.8-2.8v-16.2c0-1.5 1.2-2.8 2.8-2.8z"/><path class="r" d="m387.4 482.7h-45.5c-0.9 0-1.6-0.7-1.6-1.6v-15.2c0-0.8 0.7-1.6 1.6-1.6h45.5z"/><path class="h" d="m338.5 465.4v16.2c0 1.6-1.3 2.8-2.8 2.8h-77.1c-1.5 0-2.8-1.2-2.8-2.8v-16.2c0-1.5 1.3-2.8 2.8-2.8h77.1c1.5 0 2.8 1.3 2.8 2.8z"/><path class="q" d="m338.5 465.4v16.2c0 1.6-1.3 2.8-2.8 2.8h-77.1c-1.5 0-2.8-1.2-2.8-2.8v-16.2c0-1.5 1.3-2.8 2.8-2.8h77.1c1.5 0 2.8 1.3 2.8 2.8z"/><path class="t" d="m330.2 468.7v9.7c0 0.9-0.8 1.7-1.7 1.7h-56.5c-0.9 0-1.7-0.8-1.7-1.7v-9.7c0-1 0.8-1.7 1.7-1.7h56.5c0.9 0 1.7 0.7 1.7 1.7z"/><path class="h" d="m407.8 452.2c0.5 0 0.9 0.3 0.9 0.6v9.3c0 0.3-0.4 0.5-0.9 0.5h-90.7c-1.6 0-2.8-0.7-2.8-1.6v-7.1c0-0.9 1.2-1.7 2.8-1.7z"/><path class="r" d="m408.7 461.7h-38.3c-0.7 0-1.2-0.6-1.2-1.3v-6c0-0.6 0.5-1.2 1.2-1.2h38.3z"/><path class="h" d="m367.3 454.4v6.1c0 1.2-1 2.1-2.1 2.1h-93c-1.1 0-2.1-0.9-2.1-2.1v-6.1c0-1.2 1-2.2 2.1-2.2h93c1.1 0 2.1 1 2.1 2.2z"/><path class="k" d="m367.3 454.4v6.1c0 1.2-1 2.1-2.1 2.1h-93c-1.1 0-2.1-0.9-2.1-2.1v-6.1c0-1.2 1-2.2 2.1-2.2h93c1.1 0 2.1 1 2.1 2.2z"/><path class="s" d="m284.3 452.6v9.6c0 0.3-0.1 0.4-0.4 0.4h-2.9c-0.2 0-0.4-0.1-0.4-0.4v-9.6c0-0.2 0.2-0.4 0.4-0.4h2.9c0.3 0 0.4 0.2 0.4 0.4z"/><path class="s" d="m359.8 452.6v9.6c0 0.3-0.2 0.4-0.4 0.4h-2.9c-0.2 0-0.4-0.1-0.4-0.4v-9.6c0-0.2 0.2-0.4 0.4-0.4h2.9c0.2 0 0.4 0.2 0.4 0.4z"/><path class="h" d="m398.9 437.1c0.5 0 1 0.3 1 0.6v14c0 0.3-0.5 0.5-1 0.5h-98.2c-1.6 0-2.8-0.7-2.8-1.6v-11.8c0-0.9 1.2-1.7 2.8-1.7z"/><path class="r" d="m399.9 451.2h-45.9c-0.7 0-1.2-0.5-1.2-1.2v-10.6c0-0.7 0.5-1.3 1.2-1.3h45.9z"/><path class="h" d="m350.9 439.3v10.8c0 1.2-1 2.1-2.1 2.1h-78.4c-1.2 0-2.1-0.9-2.1-2.1v-10.8c0-1.2 0.9-2.2 2.1-2.2h78.4c1.1 0 2.1 1 2.1 2.2z"/><path class="u" d="m350.9 439.3v10.8c0 1.2-1 2.1-2.1 2.1h-78.4c-1.2 0-2.1-0.9-2.1-2.1v-10.8c0-1.2 0.9-2.2 2.1-2.2h78.4c1.1 0 2.1 1 2.1 2.2z"/><path class="m" d="m521.5 500.5c0 0.9-0.7 1.6-1.7 1.6h-82.5c-0.9 0-1.7-0.7-1.7-1.6 0-1 0.8-1.7 1.7-1.7h82.5c1 0 1.7 0.7 1.7 1.7z"/><path class="g" d="m681.3 494.8h54.3l4.9 7.1h-64.1z"/><path  d="m765.1 373.7c0 4-3.3 7.3-7.3 7.3-4 0-7.3-3.3-7.3-7.3 0-4.1 3.3-7.3 7.3-7.3 4 0 7.3 3.2 7.3 7.3z"/><path class="g" d="m710.2 499.6q-0.4 0-0.9-0.1c-1.1-0.5-1.7-1.9-1.2-3.1l52.3-123.6c0.5-1.2 1.8-1.8 3-1.3 1.2 0.5 1.7 1.9 1.2 3.1l-52.2 123.6c-0.4 0.9-1.3 1.4-2.2 1.4z"/><path class="g" d="m762.5 376c-0.5 0-1-0.2-1.4-0.5l-94.9-71.1c-1-0.8-1.2-2.2-0.5-3.3 0.8-1 2.2-1.2 3.3-0.4l94.9 71.1c1 0.8 1.2 2.2 0.4 3.2-0.4 0.7-1.1 1-1.8 1z"/><path class="g" d="m769.8 373.7c0 4-3.3 7.3-7.3 7.3-4 0-7.3-3.3-7.3-7.3 0-4.1 3.3-7.3 7.3-7.3 4 0 7.3 3.2 7.3 7.3z"/><path class="g" d="m672.7 307.7c-2.8 2.8-7.4 2.8-10.3 0-2.8-2.9-2.8-7.5 0-10.3 2.9-2.9 7.5-2.9 10.3 0 2.9 2.8 2.9 7.4 0 10.3z"/><path class="h" d="m657.4 335.8c-6.4 6.4-16.7 6.4-23.1 0-6.4-6.4-6.4-16.7 0-23.1 6.4-6.3 16.7-6.3 23.1 0 6.3 6.4 6.3 16.7 0 23.1z"/><path class="v" d="m657.4 335.8c-6.4 6.4-16.7 6.4-23.1 0-6.4-6.4-6.4-16.7 0-23.1 6.4-6.3 16.7-6.3 23.1 0 6.3 6.4 6.3 16.7 0 23.1z"/><path class="g" d="m667.6 352l-49.5-49.5c13.7-13.6 35.8-13.6 49.5 0 13.6 13.7 13.6 35.8 0 49.5z"/><g style="opacity:.2"><path class="h" d="m667.6 352l-44.1 150.1h-213l207.6-199.6z"/><path class="v" d="m667.6 352l-44.1 150.1h-213l207.6-199.6z"/></g></svg>