<svg version="1.2" xmlns="http://www.w3.org/2000/svg" viewBox="0 0 3000 2000" width="800" height="533"><style>.a{fill:#edf2ff}.b{fill:none;stroke:#edf2ff;stroke-width:4.4}.c{fill:#102048}.d{fill:#f9b384}.e{fill:#e28b6d}.f{fill:#ee6f57}.g{fill:#1f3c88}.h{fill:#fff}.i{fill:#708cd5}.j{opacity:.4;fill:#1f3c88}.k{opacity:.4;fill:#fc8879}.l{opacity:.2;fill:#1f3c88}.m{fill:#fff;stroke:#708cd5;stroke-width:4.2}.n{fill:#fbc343}.o{opacity:.8;fill:#fff}.p{fill:none;stroke:#102048;stroke-width:6.2}</style><path class="a" d="m1399.9 1075.9c-144.7-51.2-286-129.4-350.1-269.3-63.2-138.2-31.7-314.1 75.5-421.8 37.3-37.5 84.4-67.6 136.7-74.6 74-10 146.4 26.8 206.5 71 60.2 44.2 114.9 97.4 182.6 128.9 76.8 35.7 164 40.5 245.2 64.7 49.6 14.8 98.6 38.1 131.1 78.3 32.4 39.8 45.3 92.6 46 144 1.7 147.2-99.5 289.2-238.2 338.5-91 32.4-186.2 11.9-276.4-11.9-50.9-13.4-105.1-28.7-158.9-47.8z"/><path class="b" d="m1700.7 1074.3c-134.1 86.1-287.3 153-439.7 119.3-150.4-33.2-269.7-166.3-285.9-319.1-5.7-53.2 0.8-109.7 29-156.5 39.8-66.2 115.7-102.4 189.6-124.2 73.9-21.8 151.4-33.6 220.1-69.3 77.9-40.4 138-108.3 209.6-159.4 43.7-31.2 93.9-56.6 146.7-58.5 52.6-1.9 102.8 19.9 143.9 50.8 118 88.6 165.3 257.5 114.9 400.2-33 93.6-110.7 158.3-187.7 216.9-43.6 33.2-90.7 67.8-140.5 99.8z"/><path class="c" d="m1240.5 833.1c0 0-14.9-37.9 46.6-89.2l-0.9 84.8z"/><path class="d" d="m1213.9 660.3c0 0-24-43.4-30-66.7-0.8-3.4 0.6-7.2 3.6-8.5 11.2-5.1 29.1 27 51 71.6z"/><path class="d" d="m1266.4 720.6l-38.4 24.9c-16.9-7.7-31.6-23-41.8-51.5-1.4-4-1.1-8.5 1.1-12.1l8-13.8c2.9-4.9 4.2-10.6 3.9-16.4l-0.7-16.6c-0.1-1.2 0.4-2.4 1.2-3.2l5.9-6.1c1.1-1.1 2.7-1.2 3.9-0.3l12.4 10.2-2.4-0.2c0 0 2 21.5 18 22.6l8.3 10.6z"/><path class="d" d="m1271.6 717.2l-5.2 3.4-20.6-51.9-8.3-10.6c-16-1.1-18-22.6-18-22.6l2.4 0.2 18.8 1.1c5.2 0.3 10.2 2.6 14 6.5l12.7 13.3c2.5 2.5 4.3 5.7 5.3 9.2 5.1 17.3 4.1 34.4-1.1 51.4z"/><path class="d" d="m1294.6 725.3l-8.7 82.3c0 0-24.9 19.7-26.1 21.7-0.6 0.9-9.1-19.3-18.5-42.2-12.1-29.6-25.6-63.7-25.6-63.7l54-30.6 19 24.8z"/><path class="e" d="m1294.6 725.3l-8.7 82.3c0 0-24.9 19.7-26.1 21.7-0.6 0.9-9.1-19.3-18.5-42.2l47.4-69.5z"/><path class="e" d="m1246.6 671.6c-1.2-1.5-6.7-8.8-8.4-11.1-19-1.4-20.6-24.6-20.6-24.9l-0.1-1.9h1.9c30.9-0.7 37.4 7.5 41.3 12.4 0.6 0.9 1.2 1.6 1.8 2.1l-2.5 2.8c-0.8-0.7-1.5-1.6-2.3-2.6-3.6-4.5-9-11.3-36.1-11 0.7 5.2 4 18.9 17.6 19.4l0.9 0.1 0.5 0.7c2.6 3.4 7.7 10.3 8.8 11.5z"/><path class="e" d="m1234.5 677.7c-1.9 0-3.6-0.8-4.7-1.7-2.5-2.1-20-15.8-20-15.8l2.3-3c0 0 17.5 13.8 20.1 15.9 0.6 0.5 2 1.2 3.5 0.6 2.3-0.9 3.9-4.1 4.6-9.2l3.7 0.5c-1.2 8.3-4.4 11.2-6.9 12.2q-1.3 0.5-2.6 0.5z"/><path class="e" d="m1217.9 636.5c-1.7-1.6-15.1-3.6-17.7-2.8l-1-3.6c3.2-0.9 19.7 0.8 21.9 4.5z"/><path class="e" d="m1233.7 697.9c-5.5 0-12.2-4.4-13.1-5l-15.7-10.3 2.1-3.1 15.6 10.3c4 2.7 10.9 5.8 13.1 3.8q1.1-1 1.1-3.3c-0.1-4.6-3.8-11.4-6.8-13.9l2.4-2.8c3.7 3.1 8 10.8 8.1 16.6 0.1 2.6-0.7 4.8-2.3 6.2-1.2 1.1-2.8 1.5-4.5 1.5z"/><path class="e" d="m1222.2 710.6c-4.6 0-10.2-3.6-11.6-4.5l-13.8-9.1 2.1-3.1 13.8 9.1c3.4 2.3 9.4 5 11.2 3.4q0.9-0.9 0.9-2.8c-0.1-4.2-3.6-10.1-5.9-12l2.4-2.9c3.3 2.8 7.1 9.7 7.2 14.8 0.1 2.4-0.7 4.3-2.1 5.6-1.2 1.1-2.6 1.5-4.2 1.5z"/><path class="f" d="m1475.3 1744.5l-5.2 78h-150.7c19.3-27.2 58.6-48.9 90.1-51.1l4-18.3c17.9 0.6 41.9-3.8 61.8-8.6z"/><path class="d" d="m1413.5 1753.1l14-63.1 50.8 9.8-3 44.7c-19.9 4.8-43.9 9.2-61.8 8.6z"/><path class="d" d="m1662.1 1744.5l-12.3-61.6 50.9-6.8 18.6 64.8c-18.3 3.1-37.5 4.3-57.2 3.6z"/><path class="f" d="m1677.7 1822.2l-15.6-77.7c19.7 0.7 38.9-0.5 57.2-3.6l3.9 13.6c31.6 2.2 62 3.2 87 36.8z"/><path class="g" d="m1559.4 936l-6.5 181.4c-0.2 4.9-0.3 9.8-0.5 14.6-3.4 99.6-9.9 195.3-18.8 287.7-10.2 104.7-23.6 205.3-39.2 302.9h-103c-13.7-217.6-36.8-478.9 5.6-715.3l25.9-63.2z"/><path class="g" d="m1701 1017.5c25.8 216 48.1 457.9 38.2 683.4l-111.8 21.7c-30.5-188-83.9-430-90.6-648l-14.9-177.3 167.6 46.9z"/><path class="d" d="m1572.2 491.6v92.6h-74.7v-92.6z"/><path class="h" d="m1497 548.7c27.3 37.8 62.1 21.2 75.1-4.2l88.9 394.6c-82.9 35.7-162.6 40.9-237.3-1.4l47.2-373.6z"/><path class="c" d="m1484 443.4c-77.2 4.2-68.2-106.9-7.6-88.3 31.4-34.3 85.3-38.8 118.7-5.9 38.5 2.1 34.8 52.6 18.3 85.2z"/><path class="c" d="m1510.4 491.6c17.2 12.2 39 27.4 39 27.4-11.3 14.2-29.9 22.4-51.9 21.9v-49.3z"/><path class="d" d="m1603.2 401.9l-5.9 57.1c-9.1 25.3-20.3 43.2-34.3 54.5-14.5 11.7-33.3 15.4-50.6 10.2-14.8-4.5-26.9-15.5-31.9-30.4-2.7-8.2-3.2-17.6-0.9-27.7 0.4-1.6 0.7-3.2 0.9-4.8 0.7-6.6 0-13.2-1.6-19.6-3.5-13.4-3.7-27.4-1.2-41.9l67-21.2z"/><path class="i" d="m1472.2 1089.5c-34.7 7.6-75.4 6.9-120.5 0 11.1-100.9 26.3-197.8 49.7-286.6l-97.5-9.6c0.9-15.7 3-31.9 6.2-48.5 3.6-18.7 8.8-37.9 15.4-57.5q0.3-1 0.7-2.1c23.6-68.1 66.3-119.4 171.4-136.9 32.9 156.9 30.5 389-25.4 541.2z"/><path class="i" d="m1723.4 958.8c5.9 35.4 11.1 70.8 16.4 107.6-33.7 12-74.4 16.4-121.1 14.3-19.5-62.8-32.7-128.2-40.4-195.9 0-0.3 0-0.5 0-0.8-12.1-107.6-19.9-221.2-6.1-339.4 43 3.1 87 16.2 128.3 42.7 14.2 9.1 25.7 22.5 33.3 38.3 28.9 59.4 42.4 111.7 53.5 165.7l-90.3 36.7q3.9 16.6 7.5 32.7c7.3 33.4 13.4 65.7 18.9 98.1z"/><path class="i" d="m1422.2 764.8l-12.1 98.5-5.7 7.5-27.6 36.6c-11.3 14.9-26.8 22.3-42.3 22.4-16.8 0.2-33.5-8.2-45-24.9l-49-71.8c24.1-32.2 47.4-65 54-107.8 31.7 36.8 41 50.7 41 50.7z"/><path class="c" d="m1462.8 381.4l64.5-21.2 82.2 26.3-2.1 28-3 16.5c-27.3 7.4-45.9-12.5-53.8-27.5-24.9 13-49.8 18.2-74.6 19.5z"/><path class="j" d="m1723.4 958.8c-52.6-5.1-102.4-29.3-145.1-74-0.1-0.3-0.4-0.5-0.6-0.7l0.6-0.1 126.2-23.3c7.3 33.4 13.4 65.7 18.9 98.1z"/><path class="c" d="m1540.4 1135.9c16.1 97.5 2.1 191.4-6.8 283.8-75.1-116.8-3.1-259 6.8-283.8z"/><path class="g" d="m1347.1 795.4l-54-69 2.9-2.3 54.1 69z"/><path class="j" d="m1680.8 683.1l18.7 106.8c0 0-33.3 22-43.5 4-7.9-14.1 2.5-60.1 24.8-110.8z"/><path class="d" d="m1455.2 709.8l53.1 37.7c22.2 8.6 41.5 19.5 58.2 32.4l2 64.5c-24.6 1.2-49.2 2.4-69.3-9.3-4-2.4-8.5-4-13.1-4.7l-9.9-1.3c-1.3-0.2-3.5-0.6-4.2-1.8-3.4-2.8-6.8-10.5-4.5-14.7l3.2-5.3c0.2-0.3 0.1-0.6-0.2-0.7l-2.2-0.6c-3.5-1.1-6.2-4.1-7-7.9-0.2-0.9-0.3-1.9-0.3-2.9 0.2-4 2.8-7.5 6.4-9.2 0.8-0.8 0.9-2 0.3-2.9l-4.1-5.7c-2.4-3.3-3.2-7.6-2.1-11.7l0.2-0.6c0.7-2.6 2.8-4.4 5.2-4.6l22.6-1.5c-38.6-29.7-45.9-44.1-34.3-49.2z"/><path class="i" d="m1787.3 791.3l7.9 33c10.1 42.8-22 83.6-62.2 78.9l-191.3-23.2 14.6-109.1z"/><path class="g" d="m1378.6 907.6l-3.7-0.4 26.8-225.9 3.7 0.5z"/><path class="g" d="m1699.6 784.9l-143.4-12.1 0.3-3.7 143.4 12.1z"/><path class="e" d="m1498.7 789c-1.1-0.2-26.9-2.9-31.5-4.2l1-3.5c3.5 1 23.5 3.2 30.9 4z"/><path class="e" d="m1502.1 813.5c-1.1-0.1-27.7-2.8-32.3-4.1l1-3.6c3.6 1 24.1 3.2 31.7 4z"/><path class="d" d="m1586.2 473c46.8 7 53-67.5 3.3-37.7z"/><path class="e" d="m1597 452.7c-0.5-2.4-0.7-5-0.1-7.6 0.5-2.5 1.7-5 3.7-6.9 1.9-2 4.7-3.4 7.6-3.1 2.9 0.1 5.6 1.9 6.7 4.3l-1.2 0.8c-1.7-1.4-3.6-2.1-5.5-1.9-1.8 0.2-3.6 1.1-5 2.5-1.5 1.4-2.5 3.2-3.3 5.2-0.8 2-1.1 4.2-1.4 6.6z"/><path class="c" d="m1506.2 442.7c0 4.8-2.7 8.7-6.1 8.7-3.3 0-6-3.9-6-8.7 0-4.8 2.7-8.7 6-8.7 3.4 0 6.1 3.9 6.1 8.7z"/><path class="c" d="m1551.8 438c0 4.8-2.7 8.7-6 8.7-3.4 0-6.1-3.9-6.1-8.7 0-4.8 2.7-8.7 6.1-8.7 3.3 0 6 3.9 6 8.7z"/><path class="c" d="m1525.3 435.3c-0.5 4.5-2 8.7-4 12.6-1.7 4-4.4 7.7-6.1 11.1-1.8 3.6-2.3 6.9-0.1 9.8 2.2 3 5.8 5.4 9.3 7.9l-0.8 1.5c-4-1.6-8.2-3.2-11.5-6.9-1.7-1.8-2.8-4.5-2.8-7.2 0-2.6 0.9-5 1.9-7 2.2-4.2 4.7-7.3 6.8-11 2.1-3.6 4.2-7.2 5.6-11.1z"/><path class="h" d="m1511.6 491.1l32.8-9.4c0 0-0.1 14.8-15.8 18.4-9 2.1-17-9-17-9z"/><path class="k" d="m1495.3 477c0 8.5-6.5 15.5-14.8 16.3-2.7-8.2-3.2-17.6-0.9-27.7 0.4-1.6 0.7-3.2 0.9-4.8 8.3 0.7 14.8 7.7 14.8 16.2z"/><path class="k" d="m1582.2 465.4c0 9-7.3 16.3-16.3 16.3-9 0-16.3-7.3-16.3-16.3 0-9 7.3-16.3 16.3-16.3 9 0 16.3 7.3 16.3 16.3z"/><path class="j" d="m1381.1 880.4l-4.3 27c-11.3 14.9-26.8 22.3-42.3 22.4 15.3-62.5 51.7-107.6 51.7-107.6z"/><path class="l" d="m1348.1 793.6l-38-48.8c3.6-18.7 8.8-37.9 15.4-57.5q0.3-1 0.7-2.1c7.2 13.5 24.1 51.3 21.9 108.4z"/><path class="m" d="m1329.1 466.7c-30.8 8.1-55.9 6.1-77.2-3-24.4 18.1-55.2 28.2-88.4 26.2-67.4-3.9-122.2-58.5-126.4-125.9-4.9-77.5 55.7-142 131.7-143.6 75-1.5 137.8 59.9 137.8 134.9 0 27.5-8.3 53.1-22.5 74.5 12.2 15.2 27.4 26.2 45.2 33.4 1.6 0.6 1.5 3-0.2 3.5z"/><path class="n" d="m1203.2 381.9c-6.4 7.5-10.3 16.8-10.3 26.6 0 12.4-10.1 22.5-22.5 22.5-12.4 0-22.4-10.1-22.4-22.5 0-9.5-3.3-18.8-9.7-25.8-8-8.9-12.4-21.2-10.8-34.5 2.4-19.5 18.4-35.2 37.9-37.4 26.2-2.9 48.3 17.4 48.3 43 0 10.7-4 20.6-10.5 28.1z"/><path class="c" d="m1155 424.8h30.8c-1 7.6-7.5 13.5-15.4 13.5-7.9 0-14.4-5.9-15.4-13.5z"/><path class="o" d="m1157.7 347.2c-2.8 7.8-8.2 13.1-12 11.7-3.8-1.3-4.6-8.8-1.8-16.6 2.8-7.9 8.2-13.1 12-11.8 3.8 1.4 4.6 8.9 1.8 16.7z"/><path class="n" d="m1171.8 296.1h-1.1c-2.1 0-3.8-1.8-3.8-3.9v-24.2c0-2.2 1.7-3.9 3.8-3.9h1.1c2.1 0 3.8 1.7 3.8 3.9v24.2c0 2.1-1.7 3.9-3.8 3.9z"/><path class="n" d="m1138.4 303.2l-1 0.7c-1.7 1.1-4.1 0.7-5.2-1l-11.9-17.6c-1.2-1.7-0.7-4.1 1-5.2l1-0.7c1.7-1.2 4.1-0.7 5.2 1l11.9 17.6c1.2 1.7 0.7 4-1 5.2z"/><path class="n" d="m1201.8 297.4l11.5-17c1.2-1.7 3.5-2.2 5.2-1l1.1 0.7c1.7 1.2 2.1 3.5 1 5.2l-11.5 17c-1.2 1.7-3.5 2.1-5.2 1l-1.1-0.8c-1.7-1.1-2.1-3.5-1-5.1z"/><path class="p" d="m1073.6 1820.4h946.7"/><path class="d" d="m2992 2119.2l-447.1-264.2c-67-1-121.2-16.9-156.6-54.6-92.5 28.6-163.4-36.7-115.9-82.2-10.3-25-10.5-47.7 7.3-66.1-13.6-18-16-41.7-0.5-59.2 2.2-73.2 65-116.2 179.3-84.4-20.4-88.5-34.2-172.8 40.2-199.7 20.9 96.9 41.6 197.3 66.7 231 42.6 31.2 80.5 61.2 102.1 86.6l485.2 212.9z"/><path class="e" d="m2404.4 1641.7c-15.5 0-30.8-3.2-44.9-9.6l-81.4-36.7 2.2-5 81.4 36.8c20.8 9.3 44.5 11.6 66.8 6.2 21.3-5.1 29.5-14.7 32-18.6 3.6-5.6 3.5-18.9-2-28.3-3-5.1-8.9-11.2-19.7-10.5l-35.5 3.1-44.2-38.2 3.6-4.1 42.5 36.7 33.2-2.9c10.6-0.7 19.4 4 24.8 13.1 6.8 11.6 6.4 27 1.9 34-2.9 4.5-12.1 15.4-35.4 21-8.3 2-16.8 3-25.3 3z"/><path class="e" d="m2396 1699.5c-41.5 0-114.4-43.1-117.7-45.1l2.8-4.6c0.8 0.5 87 51.4 123.4 43.4 37.5-8.2 56.7-32.1 59.1-39.3 1.8-5.7-5.2-18.3-10-24.9l4.4-3.2c1.5 1.9 14.1 19.7 10.7 29.8-3.5 10.9-25.7 34.7-63.1 42.9-2.9 0.7-6.2 1-9.6 1z"/><path class="e" d="m2379.5 1750.6c-52.5 0-105.9-28.6-108.4-30l2.6-4.8c0.7 0.4 65.7 35.3 121 28.5 56.6-7 71.6-14.7 76.6-24.2 2.3-4.4 2.1-14.8-4.2-22.9-4.8-6-14.4-12.3-33.1-7.7l-1.3-5.2c22.7-5.7 34 3.6 38.7 9.6 7.3 9.3 8.1 22.1 4.7 28.7-6.1 11.6-21.3 19.8-80.7 27.1-5.2 0.6-10.6 0.9-15.9 0.9z"/><path class="e" d="m2389.2 1802.9l-1.9-5.1c23.6-9 52.3-30.6 52.3-43.9 0-1.4 0.1-5.9-8.4-9.2l2-5c9.8 3.8 11.9 9.9 11.9 14.2-0.1 17.2-32.6 40.1-55.9 49z"/><path class="e" d="m2499.2 1729c-31.8-10.2-36-68.2-38.7-106.5l-0.4-6 5.4-0.4 0.4 6c2.5 34.6 6.6 92.7 34.9 101.8z"/><path class="d" d="m812.9 819c12.1 19.1 6.1 41.3-9.6 56.4 14.1 20.3 10.5 41.9-3.2 64.2 38.4 50.7-39.3 102.1-123.1 60.7-39.6 30.6-93.8 37.4-157.9 28.2l-147.5 57.9-319.6 125.7-110.6-291.7 415.3-108 80.4-20.9c24.5-20.9 65.3-43.8 110.7-67.1 29.2-28.3 64.3-121 99.1-210.2 66.9 37.1 40.8 115.4 7.8 196.7 113.9-12.8 167.3 37.9 158.2 108.1z"/><path class="e" d="m702.8 848.1c-13.9 0-27.8-2.7-40.8-8.1-21.5-8.9-28.6-20.9-30.7-25.6-3.3-7.6-1.3-22.5 7.1-32.6 6.6-8 15.8-11.1 26-8.8l31.1 7.7 46.1-28.4 3.1 5.2-48.2 29.7-33.5-8.4c-10-2.3-16.4 2.5-20 6.8-6.6 8.1-8.8 20.6-6.2 26.3 1.8 4.1 8 14.4 27.5 22.6 20.4 8.4 43.3 9.9 64.4 4.2l83.4-22.6 1.6 5.8-83.4 22.6c-9 2.4-18.2 3.6-27.5 3.6z"/><path class="e" d="m697.3 904.1c-8.2 0-15.5-1-21.4-3.3-34.5-13.6-52.2-39.9-53.9-51-1.7-10.3 13.2-25.4 14.9-27.1l4.2 4.2c-5.5 5.6-14.1 16.4-13.2 22 1.2 7.2 15.8 32.7 50.2 46.3 33.3 13.1 123.2-22.2 124.1-22.6l2.2 5.6c-3.1 1.2-65.8 25.9-107.1 25.9z"/><path class="e" d="m719.1 956.5c-13.8 0-28-1.5-41.3-5.3-55.7-16.1-69-26.3-73.1-38.5-2.3-7 0.4-19.1 9-27.1 5.5-5 17.8-12.2 38.8-3.3l-2.3 5.5c-17-7.2-27-2.8-32.4 2.2-7.2 6.6-8.9 16.3-7.4 20.8 3.3 9.7 16.3 19.3 69.1 34.6 51.7 15 119-8.3 119.6-8.6l2 5.7c-2.1 0.7-40.4 14-82 14z"/><path class="e" d="m675.5 1002.9c-21-12.1-48.6-39.1-46-55.7 0.7-4.3 3.6-9.9 13.8-12.1l1.3 5.8c-8.3 1.9-9 5.9-9.2 7.2-1.8 12.2 22.1 37.5 43.1 49.6z"/><path class="e" d="m582.1 915.6l-0.9-5.9c28.2-4.4 41-59 48.6-91.6l1.3-5.6 5.9 1.3-1.4 5.7c-8.5 36.3-21.3 91.2-53.5 96.1z"/><path class="f" d="m361.2 812c-18.3 90-13.6 181.5 10.4 274.4l-431.6 177.6 1.4-343.6 415.3-108z"/><path class="c" d="m391.1 1847.8l-26-236c216 182 154 276 154 276z"/><path class="d" d="m-13.9 1777.9l474.6-208.2c21.1-24.9 58.2-54.2 99.9-84.8 24.5-32.9 44.8-131.1 65.2-225.9 72.8 26.4 59.3 108.8 39.3 195.3 111.8-31.1 173.2 11.1 175.4 82.6 15.1 17.1 12.8 40.3-0.5 57.9 17.4 18 17.2 40.2 7.1 64.7 46.4 44.4-22.9 108.3-113.3 80.3-34.7 36.9-87.7 52.4-153.2 53.5l-437.2 258.4z"/><path class="e" d="m718.1 1584.6c-8.4 0-16.7-0.9-24.8-2.9-22.8-5.4-31.8-16.1-34.6-20.5-4.5-6.9-4.8-21.9 1.8-33.2 5.3-9 13.9-13.6 24.2-12.9l32.6 2.8 41.5-35.8 3.5 4-43.2 37.3-34.8-3c-10.5-0.6-16.2 5.2-19.2 10.3-5.4 9.2-5.5 22.2-2 27.6 2.5 3.8 10.5 13.2 31.4 18.3 21.8 5.2 44.9 3 65.3-6.2l79.6-35.9 2.2 4.8-79.6 36c-13.8 6.2-28.9 9.3-43.9 9.3z"/><path class="e" d="m726.3 1641.1c-3.4 0-6.6-0.3-9.5-0.9-36.5-8-58.2-31.3-61.7-42-3.2-9.9 9.1-27.2 10.5-29.2l4.3 3.2c-4.7 6.5-11.6 18.8-9.8 24.3 2.4 7.2 21.2 30.5 57.9 38.5 35.5 7.8 119.8-42 120.6-42.5l2.8 4.6c-3.3 1.9-74.6 44-115.1 44z"/><path class="e" d="m742.4 1691.2c-5.3 0-10.4-0.3-15.6-0.9-58.1-7.2-72.9-15.2-78.9-26.6-3.3-6.4-2.5-18.9 4.6-28 4.6-5.9 15.7-14.9 37.9-9.4l-1.3 5.1c-18.3-4.5-27.7 1.6-32.4 7.5-6.2 7.9-6.3 18.1-4.1 22.4 4.9 9.3 19.5 16.9 74.9 23.7 54.1 6.7 117.7-27.5 118.3-27.8l2.6 4.6c-2.4 1.3-54.7 29.4-106 29.4z"/><path class="e" d="m732.8 1742.3c-22.7-8.7-54.5-31.1-54.5-47.9-0.1-4.3 1.9-10.2 11.6-14l1.9 5c-8.3 3.2-8.2 7.6-8.2 9 0 13 28 34.1 51.1 42.9z"/><path class="e" d="m625.3 1670.1l-1.6-5.1c27.7-8.9 31.7-65.6 34.1-99.5l0.5-5.9 5.3 0.3-0.5 5.9c-2.6 37.6-6.6 94.3-37.8 104.3z"/><path class="i" d="m365.1 1611.8c20.5 94.5 70 196 154 276l-492 288-264-360z"/><path class="d" d="m3132.7 944.6l-151.8 282.1-331.9-184-118.9-65.9c-66.4 0.7-120.6-13.5-156.8-50-90.9 30.9-163-31.9-117.2-78.3-10.9-24.6-11.7-47.1 5.4-65.8-13.9-17.5-17-41-2.1-58.7 0.2-72.7 61.4-117.1 175.6-88.7-22.7-87.2-38.7-170.4 34.4-199.1 23.4 95.5 46.7 194.5 72.5 227.3 43 29.8 81.5 58.5 103.6 83.2l70.6 28.6z"/><path class="e" d="m2381.9 769.3c-14.3 0-28.6-2.8-41.9-8.3l-81.8-34.3 2.3-5.5 81.8 34.2c20.8 8.7 44.3 10.3 66.2 4.4 21-5.6 28.7-15.3 31.1-19.2 3.4-5.6 2.9-18.6-2.8-27.7-3-4.9-8.9-10.7-19.5-9.7l-35.2 4-45-36.7 3.8-4.7 43 35.2 32.8-3.7c10.7-1 19.6 3.4 25.2 12.4 7.1 11.4 7.2 26.8 2.8 34-2.7 4.5-11.6 15.7-34.6 21.9-9.3 2.5-18.7 3.7-28.2 3.7z"/><path class="e" d="m2376.5 826.8c-41.5 0-113.1-39.6-116.5-41.5l3-5.2c0.8 0.5 87.6 48.6 123.3 39.7 36.9-9.2 55.2-33.2 57.4-40.5 1.6-5.5-5.6-17.7-10.5-24.1l4.7-3.7c1.5 2 14.6 19.3 11.5 29.6-3.2 11-24.7 35.3-61.6 44.5-3.4 0.9-7.2 1.2-11.3 1.2z"/><path class="e" d="m2359.2 878.1c-50.9 0-102-25.7-104.5-26.9l2.7-5.4c0.7 0.4 66.1 33.2 120.7 24.9 55.8-8.4 70.4-16.5 75-25.9 2.2-4.4 1.7-14.5-4.7-22.2-4.8-5.9-14.4-11.8-32.7-6.7l-1.6-5.7c22.5-6.3 34 2.6 38.9 8.5 7.7 9.3 8.9 21.9 5.5 28.7-5.8 11.8-20.6 20.4-79.5 29.3-6.5 1-13.2 1.4-19.8 1.4z"/><path class="e" d="m2374.4 929.6l-2.3-5.6c23-9.4 50.8-31.9 50.5-44.6 0-1.4-0.1-5.7-8.4-8.7l2.1-5.6c10 3.6 12.2 9.7 12.3 14.1 0.4 17.2-31.3 40.9-54.2 50.4z"/><path class="e" d="m2481.3 853.3c-32.1-9.3-37.8-66.8-41.5-104.9l-0.6-5.9 6-0.7 0.6 6c3.3 34.3 9 91.6 37.1 99.8z"/><path class="g" d="m3132.7 944.6l-48.7 347.4-435-249.3c37.5-62.5 68-137.3 67.1-267.4z"/></svg>